<svg width="142" height="82" viewBox="0 0 142 82" fill="none" xmlns="http://www.w3.org/2000/svg">
<g clip-path="url(#clip0_262_2)">
<path fill-rule="evenodd" clip-rule="evenodd" d="M1.03236 40.1239C0.760291 38.3202 2.27243 37.0777 2.99756 35.579C3.40333 34.7401 3.15838 33.5929 3.60806 33.2768C4.05785 32.9608 5.25462 33.3689 6.33356 34.1432C6.42581 33.4763 6.0112 33.4066 5.5161 33.0589C4.80264 32.5581 5.20908 31.205 4.90432 30.4492C3.91178 27.9976 5.92139 26.3576 7.51878 24.6583C8.8371 23.2569 10.1893 21.6087 11.8299 20.5905C13.655 19.4585 15.8526 18.6682 13.3981 16.4563C13.8792 16.2427 14.3544 16.0148 14.8227 15.7727C12.764 15.2957 9.87283 10.7936 10.0129 8.73002C10.1344 6.95243 12.5188 8.78225 13.4926 8.26131C14.3918 7.78072 15.2011 7.07229 15.7627 6.22503C16.4727 5.15705 18.2393 5.4371 19.2984 5.43236C21.6817 5.42049 24.0778 5.21283 26.4552 5.12027C28.5652 5.03839 30.2677 5.81207 32.2341 6.3164C33.1986 6.56322 36.2696 6.24757 36.9597 7.02245C37.6825 7.83649 38.3761 8.70393 39.5823 8.29691C40.6215 7.94685 41.3876 8.95432 42.3101 9.19283C42.4642 7.76768 43.0072 8.56866 44.1725 8.43575C45.0319 8.33726 45.7863 8.29336 46.5313 8.84515C47.0591 9.23674 47.8367 8.50695 48.4533 8.76801C49.0465 9.01839 49.0733 10.0104 49.7143 10.3047C49.4971 8.57576 51.5487 8.00854 52.7982 8.68374C54.1142 9.39336 54.05 11.3858 55.9931 9.95585C56.5536 9.54409 57.0042 9.52508 57.6464 9.85141C58.4719 10.2715 59.5709 9.38864 60.4933 9.59274C61.0737 9.7209 63.5865 12.7575 63.9427 11.1674C64.3805 9.2047 62.7165 8.56982 63.8177 6.41251C64.6 4.87937 65.9872 3.03298 67.8263 3.95619C68.1171 4.10214 69.2568 3.50882 69.5312 3.44C70.3895 3.22403 71.6054 3.24708 72.4563 3.45659C74.1476 3.87295 75.8796 4.36378 76.2278 1.16688C80.5589 1.78503 79.5769 1.96444 82.4596 1.00635C83.8218 0.910344 85.2211 1.94826 86.6925 1.09949C87.5276 0.617767 89.0193 2.27644 89.3612 3.10785C90.6004 6.12059 92.0563 5.2422 92.8394 6.88604C92.217 7.27881 90.9992 7.28602 90.5228 7.80814C90.2449 8.11429 93.0373 10.9514 91.7809 11.7037C92.8296 12.0629 95.6106 13.1124 96.9107 12.3984C98.3875 11.5874 99.2629 13.9786 100.839 13.892C100.893 14.3486 100.127 14.5719 102.97 19.9139C104.279 21.2934 105.469 19.9566 106.384 19.8685C107.997 19.7096 109.572 21.4408 111.458 22.038C112.676 22.0297 114.341 20.5565 116.794 19.9132C118.205 19.5435 119.217 20.9312 119.659 21.9005C120.377 23.4783 122.623 23.8192 123.107 25.2285C125.069 24.081 124.178 23.2872 126.555 24.5521C127.786 25.2071 131.089 26.6145 132.11 25.4006C132.99 27.1853 134.388 26.1173 135.389 27.3241C135.881 27.9198 136.703 28.3031 137.443 28.4912C138.746 28.8226 139.118 27.7841 140.069 28.1386C138.894 29.2779 141.491 31.7933 139.415 33.3541C138.823 33.7995 137.381 33.6036 137.914 34.7401C138.61 36.2217 140.134 34.4137 140.18 36.278C139.18 35.9742 137.502 36.9062 138.065 38.1866C138.258 38.6245 141.433 39.7305 139.786 40.9503C140.135 41.2375 140.528 41.3229 140.965 41.2067C141.178 41.9154 140.364 44.6747 140.056 45.1851C139.087 46.7891 136.677 45.4495 135.135 45.7616C134.235 45.9444 133.457 45.3411 132.585 45.8221C131.772 46.2707 131.738 47.3838 130.581 47.7825C127.138 49.8173 128.628 51.2828 129.167 51.3151C128.523 51.8894 129.18 52.8388 128.4 53.2968C127.447 53.8569 125.028 53.2826 123.885 53.495C122.757 53.7062 122.603 54.9415 121.433 55.0317C120.054 55.1385 118.421 55.873 118.074 57.3812C117.438 56.3014 115.976 56.3856 115.03 56.935C113.436 57.8594 112.318 57.4002 110.633 57.9128C107.813 58.772 107.365 62.7971 104.529 63.5316C104.641 63.0356 108.62 59.9361 105.463 59.516C106.563 61.1369 104.441 61.4455 103.49 62.0969C103.144 62.3337 104.084 65.3333 104.038 65.6244C103.805 64.7978 102.358 63.6419 102.268 63.9677C102.174 63.7119 103.348 63.094 101.873 62.4857C100.779 67.3253 99.1911 62.2302 100.829 63.4756C100.991 62.5438 100.93 61.3242 100.92 62.5126C100.974 62.6242 100.479 62.7498 100.137 62.7003C99.6807 62.6343 99.3079 61.8719 99.1539 63.2239C99.3167 63.3114 97.7023 61.3408 97.7272 61.4893C97.8066 62.3011 98.5717 62.8831 93.9669 62.0632C94.2396 62.5392 95.2971 63.4112 96.4341 64.1285C96.5298 63.6049 97.0973 63.1107 97.8156 64.7603C97.5303 62.0442 101.221 66.324 101.303 64.6962C101.394 64.8257 101.919 65.632 100.822 66.5557L102.392 65.6011C101.877 66.4752 105.263 67.9701 105.393 68.1379C106.931 70.1203 104.346 70.5397 108.451 71.7288C108.295 70.9231 104.723 67.2683 105.422 67.9379C105.987 68.4788 107.378 69.8039 107.976 70.1403C108.575 70.4768 109.146 70.7263 109.658 70.85C110.169 70.9737 110.622 70.9714 110.985 70.804C111.347 70.6366 111.619 70.3041 111.77 69.7674C112.678 70.8389 113.257 70.5149 114.296 69.9643C115.685 69.2298 117.377 69.9323 118.495 70.8793C117.157 71.0608 117.179 71.717 117.2 72.8443C117.225 74.2268 115.987 74.1627 114.944 74.2837C113.811 74.4143 113.188 74.3632 112.156 73.7842C111.531 73.4329 110.672 72.8835 109.913 73.1861C109.163 73.4863 109.571 74.2837 109.111 74.47C107.991 74.9245 107.344 76.0589 106.154 76.2298C104.538 76.4624 103.113 76.2987 101.858 77.5838C99.7014 79.7921 95.6975 82.4431 93.3539 78.4821C95.0436 78.8701 95.465 73.0911 92.8657 72.7019C91.4283 72.486 90.674 71.9579 89.4573 71.2198C88.3235 70.5328 87.2714 71.0216 86.0721 70.8697C84.2505 70.636 88.313 67.8866 88.9412 67.6314C90.1813 67.1295 94.4725 66.427 94.8613 64.8974C93.7964 64.9294 93.6224 63.852 93.6002 63.0178C92.3672 63.7226 92.6789 63.897 91.1002 63.1067C89.8041 62.4576 88.0596 63.1518 86.6373 63.1767C85.0936 63.204 84.1291 63.3737 82.715 62.5799C81.4995 61.8975 80.1264 60.7833 78.6422 61.2235C83.0304 59.4649 77.5259 60.1366 76.4587 58.5749C79.2016 59.9431 82.8716 59.5587 85.193 57.806C83.6283 58.2593 81.5054 59.0413 80.1147 57.6387C79.0684 56.5838 79.8647 54.7896 78.7239 53.705C79.6137 54.8916 79.3288 56.0201 79.3545 57.3397C79.3744 58.3495 77.081 57.7075 76.5403 58.0623C76.2379 57.4761 76.2659 56.9065 76.6209 56.3535C75.9366 56.4995 75.8116 57.4287 75.473 57.9152C74.9989 58.5987 73.6141 57.9508 72.903 58.0766C69.8624 58.6118 70.3295 61.5522 68.5534 63.4437C68.3888 62.5455 66.706 59.8364 65.5278 60.7097C65.9622 61.9652 67.8796 62.0732 68.2451 63.3346C68.6783 64.8262 64.5599 67.5721 63.5078 68.144C64.4618 67.4973 65.6528 66.8138 65.9482 65.5809C64.8354 65.6651 62.8013 69.4114 62.5736 66.777C62.0469 67.3668 61.309 69.2666 62.9928 68.4846C62.7849 68.7611 62.5911 69.0459 62.4089 69.3402C63.5953 69.5146 64.2527 71.8167 62.9122 72.2451C62.5296 68.5938 59.5586 70.322 57.9132 70.7349C55.8033 71.2644 55.3239 72.8353 52.9404 71.2097C52.5766 70.9616 49.9216 69.5093 51.9153 69.1618C53.9719 68.8034 53.3292 67.6237 54.3171 66.3729C55.4054 64.9941 56.6578 63.9099 56.3741 61.8618C56.1254 60.0652 55.8547 59.6382 58.0418 58.8313C58.2228 59.3498 58.4166 59.8613 58.6256 60.3691C59.8821 57.7395 63.3507 62.0926 65.2342 60.0706C64.4145 59.8154 64.0927 59.0693 63.3185 58.7442C65.5265 57.6267 61.6694 53.9893 59.8314 53.7363C60.3008 52.9762 60.3217 50.0608 59.2675 51.4543C58.9498 51.8743 57.8369 48.5906 57.6139 48.25C57.0464 47.379 56.8759 46.4471 56.2599 45.4994C54.712 43.1178 55.4171 45.9966 53.7304 44.0344C53.025 43.2137 51.1597 41.8376 50.7919 43.5653C50.5292 42.0322 49.5365 43.9548 49.2528 42.4763C47.5409 43.295 45.62 39.9163 44.136 39.4402C42.952 39.0604 42.0556 41.1325 38.5916 40.3588C37.9115 40.2069 37.1134 40.3814 37.3504 41.3188C36.9547 41.8278 35.8122 41.7147 35.1844 41.8646C34.5765 42.0099 33.7796 42.2954 33.5437 42.9706C32.9996 44.5299 32.1974 44.3993 30.6187 44.5429C28.6721 44.7209 26.5563 44.3412 25.127 45.9752C23.0217 48.3829 21.875 45.4329 19.8736 44.7743C18.9172 44.4598 17.8325 44.8004 16.875 44.9167C15.6816 45.0615 15.0687 44.6604 13.9453 44.4646C12.8057 44.2664 11.6894 44.6604 10.6676 43.9353C8.96515 42.725 8.73276 44.2474 7.1774 44.6521C7.13653 42.8175 5.41065 43.539 4.5092 42.5292C3.87514 41.8172 3.51081 42.1281 2.89194 41.6629C2.19016 41.1373 2.03834 40.3565 1.03179 40.1239" fill="#808080" fill-opacity="0.65"/>
<path d="M1.03236 40.1239C0.760291 38.3202 2.27243 37.0777 2.99756 35.579C3.40333 34.7401 3.15838 33.5929 3.60806 33.2768C4.05785 32.9608 5.25462 33.3689 6.33356 34.1432C6.42581 33.4763 6.0112 33.4066 5.5161 33.0589C4.80264 32.5581 5.20908 31.205 4.90432 30.4492C3.91178 27.9976 5.92139 26.3576 7.51878 24.6583C8.8371 23.2569 10.1893 21.6087 11.8299 20.5905C13.655 19.4585 15.8526 18.6682 13.3981 16.4563C13.8792 16.2427 14.3544 16.0148 14.8227 15.7727C12.764 15.2957 9.87283 10.7936 10.0129 8.73002C10.1344 6.95243 12.5188 8.78225 13.4926 8.26131C14.3918 7.78072 15.2011 7.07229 15.7627 6.22503C16.4727 5.15705 18.2393 5.4371 19.2984 5.43236C21.6817 5.42049 24.0778 5.21283 26.4552 5.12027C28.5652 5.03839 30.2677 5.81207 32.2341 6.3164C33.1986 6.56322 36.2696 6.24757 36.9597 7.02245C37.6825 7.83649 38.3761 8.70393 39.5823 8.29691C40.6215 7.94685 41.3876 8.95432 42.3101 9.19283C42.4642 7.76768 43.0072 8.56866 44.1725 8.43575C45.0319 8.33726 45.7863 8.29336 46.5313 8.84515C47.0591 9.23674 47.8367 8.50695 48.4533 8.76801C49.0465 9.01839 49.0733 10.0104 49.7143 10.3047C49.4971 8.57576 51.5487 8.00854 52.7982 8.68374C54.1142 9.39336 54.05 11.3858 55.9931 9.95585C56.5536 9.54409 57.0042 9.52508 57.6464 9.85141C58.4719 10.2715 59.5709 9.38864 60.4933 9.59274C61.0737 9.7209 63.5865 12.7575 63.9427 11.1674C64.3805 9.2047 62.7165 8.56982 63.8177 6.41251C64.6 4.87937 65.9872 3.03298 67.8263 3.95619C68.1171 4.10214 69.2568 3.50882 69.5312 3.44C70.3895 3.22403 71.6054 3.24708 72.4563 3.45659C74.1476 3.87295 75.8796 4.36378 76.2278 1.16688C80.5589 1.78503 79.5769 1.96444 82.4596 1.00635C83.8218 0.910344 85.2211 1.94826 86.6925 1.09949C87.5276 0.617767 89.0193 2.27644 89.3612 3.10785C90.6004 6.12059 92.0563 5.2422 92.8394 6.88604C92.217 7.27881 90.9992 7.28602 90.5228 7.80814C90.2449 8.11429 93.0373 10.9514 91.7809 11.7037C92.8296 12.0629 95.6106 13.1124 96.9107 12.3984C98.3875 11.5874 99.2629 13.9786 100.839 13.892C100.893 14.3486 100.127 14.5719 102.97 19.9139C104.279 21.2934 105.469 19.9566 106.384 19.8685C107.997 19.7096 109.572 21.4408 111.458 22.038C112.676 22.0297 114.341 20.5565 116.794 19.9132C118.205 19.5435 119.217 20.9312 119.659 21.9005C120.377 23.4783 122.623 23.8192 123.107 25.2285C125.069 24.081 124.178 23.2872 126.555 24.5521C127.786 25.2071 131.089 26.6145 132.11 25.4006C132.99 27.1853 134.388 26.1173 135.389 27.3241C135.881 27.9198 136.703 28.3031 137.443 28.4912C138.746 28.8226 139.118 27.7841 140.069 28.1386C138.894 29.2779 141.491 31.7933 139.415 33.3541C138.823 33.7995 137.381 33.6036 137.914 34.7401C138.61 36.2217 140.134 34.4137 140.18 36.278C139.18 35.9742 137.502 36.9062 138.065 38.1866C138.258 38.6245 141.433 39.7305 139.786 40.9503C140.135 41.2375 140.528 41.3229 140.965 41.2067C141.178 41.9154 140.364 44.6747 140.056 45.1851C139.087 46.7891 136.677 45.4495 135.135 45.7616C134.235 45.9444 133.457 45.3411 132.585 45.8221C131.772 46.2707 131.738 47.3838 130.581 47.7825C127.138 49.8173 128.628 51.2828 129.167 51.3151C128.523 51.8894 129.18 52.8388 128.4 53.2968C127.447 53.8569 125.028 53.2826 123.885 53.495C122.757 53.7062 122.603 54.9415 121.433 55.0317C120.054 55.1385 118.421 55.873 118.074 57.3812C117.438 56.3014 115.976 56.3856 115.03 56.935C113.436 57.8594 112.318 57.4002 110.633 57.9128C107.813 58.772 107.365 62.7971 104.529 63.5316C104.641 63.0356 108.62 59.9361 105.463 59.516C106.563 61.1369 104.441 61.4455 103.49 62.0969C103.144 62.3337 104.084 65.3333 104.038 65.6244C103.805 64.7978 102.358 63.6419 102.268 63.9677C102.174 63.7119 103.348 63.094 101.873 62.4857C100.779 67.3253 99.1911 62.2302 100.829 63.4756C100.991 62.5438 100.93 61.3242 100.92 62.5126C100.974 62.6242 100.479 62.7498 100.137 62.7003C99.6807 62.6343 99.3079 61.8719 99.1539 63.2239C99.3167 63.3114 97.7023 61.3408 97.7272 61.4893C97.8066 62.3011 98.5717 62.8831 93.9669 62.0632C94.2396 62.5392 95.2971 63.4112 96.4341 64.1285C96.5298 63.6049 97.0973 63.1107 97.8156 64.7603C97.5303 62.0442 101.221 66.324 101.303 64.6962C101.394 64.8257 101.919 65.632 100.822 66.5557L102.392 65.6011C101.877 66.4752 105.263 67.9701 105.393 68.1379C106.931 70.1203 104.346 70.5397 108.451 71.7288C108.295 70.9231 104.723 67.2683 105.422 67.9379C105.987 68.4788 107.378 69.8039 107.976 70.1403C108.575 70.4768 109.146 70.7263 109.658 70.85C110.169 70.9737 110.622 70.9714 110.985 70.804C111.347 70.6366 111.619 70.3041 111.77 69.7674C112.678 70.8389 113.257 70.5149 114.296 69.9643C115.685 69.2298 117.377 69.9323 118.495 70.8793C117.157 71.0608 117.179 71.717 117.2 72.8443C117.225 74.2268 115.987 74.1627 114.944 74.2837C113.811 74.4143 113.188 74.3632 112.156 73.7842C111.531 73.4329 110.672 72.8835 109.913 73.1861C109.163 73.4863 109.571 74.2837 109.111 74.47C107.991 74.9245 107.344 76.0589 106.154 76.2298C104.538 76.4624 103.113 76.2987 101.858 77.5838C99.7014 79.7921 95.6975 82.4431 93.3539 78.4821C95.0436 78.8701 95.465 73.0911 92.8657 72.7019C91.4283 72.486 90.674 71.9579 89.4573 71.2198C88.3235 70.5328 87.2714 71.0216 86.0721 70.8697C84.2505 70.636 88.313 67.8866 88.9412 67.6314C90.1813 67.1295 94.4725 66.427 94.8613 64.8974C93.7964 64.9294 93.6224 63.852 93.6002 63.0178C92.3672 63.7226 92.6789 63.897 91.1002 63.1067C89.8041 62.4576 88.0596 63.1518 86.6373 63.1767C85.0936 63.204 84.1291 63.3737 82.715 62.5799C81.4995 61.8975 80.1264 60.7833 78.6422 61.2235C83.0304 59.4649 77.5259 60.1366 76.4587 58.5749C79.2016 59.9431 82.8716 59.5587 85.193 57.806C83.6283 58.2593 81.5054 59.0413 80.1147 57.6387C79.0684 56.5838 79.8647 54.7896 78.7239 53.705C79.6137 54.8916 79.3288 56.0201 79.3545 57.3397C79.3744 58.3495 77.081 57.7075 76.5403 58.0623C76.2379 57.4761 76.2659 56.9065 76.6209 56.3535C75.9366 56.4995 75.8116 57.4287 75.473 57.9152C74.9989 58.5987 73.6141 57.9508 72.903 58.0766C69.8624 58.6118 70.3295 61.5522 68.5534 63.4437C68.3888 62.5455 66.706 59.8364 65.5278 60.7097C65.9622 61.9652 67.8796 62.0732 68.2451 63.3346C68.6783 64.8262 64.5599 67.5721 63.5078 68.144C64.4618 67.4973 65.6528 66.8138 65.9482 65.5809C64.8354 65.6651 62.8013 69.4114 62.5736 66.777C62.0469 67.3668 61.309 69.2666 62.9928 68.4846C62.7849 68.7611 62.5911 69.0459 62.4089 69.3402C63.5953 69.5146 64.2527 71.8167 62.9122 72.2451C62.5296 68.5938 59.5586 70.322 57.9132 70.7349C55.8033 71.2644 55.3239 72.8353 52.9404 71.2097C52.5766 70.9616 49.9216 69.5093 51.9153 69.1618C53.9719 68.8034 53.3292 67.6237 54.3171 66.3729C55.4054 64.9941 56.6578 63.9099 56.3741 61.8618C56.1254 60.0652 55.8547 59.6382 58.0418 58.8313C58.2228 59.3498 58.4166 59.8613 58.6256 60.3691C59.8821 57.7395 63.3507 62.0926 65.2342 60.0706C64.4145 59.8154 64.0927 59.0693 63.3185 58.7442C65.5265 57.6267 61.6694 53.9893 59.8314 53.7363C60.3008 52.9762 60.3217 50.0608 59.2675 51.4543C58.9498 51.8743 57.8369 48.5906 57.6139 48.25C57.0464 47.379 56.8759 46.4471 56.2599 45.4994C54.712 43.1178 55.4171 45.9966 53.7304 44.0344C53.025 43.2137 51.1597 41.8376 50.7919 43.5653C50.5292 42.0322 49.5365 43.9548 49.2528 42.4763C47.5409 43.295 45.62 39.9163 44.136 39.4402C42.952 39.0604 42.0556 41.1325 38.5916 40.3588C37.9115 40.2069 37.1134 40.3814 37.3504 41.3188C36.9547 41.8278 35.8122 41.7147 35.1844 41.8646C34.5765 42.0099 33.7796 42.2954 33.5437 42.9706C32.9996 44.5299 32.1974 44.3993 30.6187 44.5429C28.6721 44.7209 26.5563 44.3412 25.127 45.9752C23.0217 48.3829 21.875 45.4329 19.8736 44.7743C18.9172 44.4598 17.8325 44.8004 16.875 44.9167C15.6816 45.0615 15.0687 44.6604 13.9453 44.4646C12.8057 44.2664 11.6894 44.6604 10.6676 43.9353C8.96515 42.725 8.73276 44.2474 7.1774 44.6521C7.13653 42.8175 5.41065 43.539 4.5092 42.5292C3.87514 41.8172 3.51081 42.1281 2.89194 41.6629C2.19016 41.1373 2.03834 40.3565 1.03179 40.1239" stroke="#FAFF00"/>
<path d="M1.03236 40.1239C0.760291 38.3202 2.27243 37.0777 2.99756 35.579C3.40333 34.7401 3.15838 33.5929 3.60806 33.2768C4.05785 32.9608 5.25462 33.3689 6.33356 34.1432C6.42581 33.4763 6.0112 33.4066 5.5161 33.0589C4.80264 32.5581 5.20908 31.205 4.90432 30.4492C3.91178 27.9976 5.92139 26.3576 7.51878 24.6583C8.8371 23.2569 10.1893 21.6087 11.8299 20.5905C13.655 19.4585 15.8526 18.6682 13.3981 16.4563C13.8792 16.2427 14.3544 16.0148 14.8227 15.7727C12.764 15.2957 9.87283 10.7936 10.0129 8.73002C10.1344 6.95243 12.5188 8.78225 13.4926 8.26131C14.3918 7.78072 15.2011 7.07229 15.7627 6.22503C16.4727 5.15705 18.2393 5.4371 19.2984 5.43236C21.6817 5.42049 24.0778 5.21283 26.4552 5.12027C28.5652 5.03839 30.2677 5.81207 32.2341 6.3164C33.1986 6.56322 36.2696 6.24757 36.9597 7.02245C37.6825 7.83649 38.3761 8.70393 39.5823 8.29691C40.6215 7.94685 41.3876 8.95432 42.3101 9.19283C42.4642 7.76768 43.0072 8.56866 44.1725 8.43575C45.0319 8.33726 45.7863 8.29336 46.5313 8.84515C47.0591 9.23674 47.8367 8.50695 48.4533 8.76801C49.0465 9.01839 49.0733 10.0104 49.7143 10.3047C49.4971 8.57576 51.5487 8.00854 52.7982 8.68374C54.1142 9.39336 54.05 11.3858 55.9931 9.95585C56.5536 9.54409 57.0042 9.52508 57.6464 9.85141C58.4719 10.2715 59.5709 9.38864 60.4933 9.59274C61.0737 9.7209 63.5865 12.7575 63.9427 11.1674C64.3805 9.2047 62.7165 8.56982 63.8177 6.41251C64.6 4.87937 65.9872 3.03298 67.8263 3.95619C68.1171 4.10214 69.2568 3.50882 69.5312 3.44C70.3895 3.22403 71.6054 3.24708 72.4563 3.45659C74.1476 3.87295 75.8796 4.36378 76.2278 1.16688C80.5589 1.78503 79.5769 1.96444 82.4596 1.00635C83.8218 0.910344 85.2211 1.94826 86.6925 1.09949C87.5276 0.617767 89.0193 2.27644 89.3612 3.10785C90.6004 6.12059 92.0563 5.2422 92.8394 6.88604C92.217 7.27881 90.9992 7.28602 90.5228 7.80814C90.2449 8.11429 93.0373 10.9514 91.7809 11.7037C92.8296 12.0629 95.6106 13.1124 96.9107 12.3984C98.3875 11.5874 99.2629 13.9786 100.839 13.892C100.893 14.3486 100.127 14.5719 102.97 19.9139C104.279 21.2934 105.469 19.9566 106.384 19.8685C107.997 19.7096 109.572 21.4408 111.458 22.038C112.676 22.0297 114.341 20.5565 116.794 19.9132C118.205 19.5435 119.217 20.9312 119.659 21.9005C120.377 23.4783 122.623 23.8192 123.107 25.2285C125.069 24.081 124.178 23.2872 126.555 24.5521C127.786 25.2071 131.089 26.6145 132.11 25.4006C132.99 27.1853 134.388 26.1173 135.389 27.3241C135.881 27.9198 136.703 28.3031 137.443 28.4912C138.746 28.8226 139.118 27.7841 140.069 28.1386C138.894 29.2779 141.491 31.7933 139.415 33.3541C138.823 33.7995 137.381 33.6036 137.914 34.7401C138.61 36.2217 140.134 34.4137 140.18 36.278C139.18 35.9742 137.502 36.9062 138.065 38.1866C138.258 38.6245 141.433 39.7305 139.786 40.9503C140.135 41.2375 140.528 41.3229 140.965 41.2067C141.178 41.9154 140.364 44.6747 140.056 45.1851C139.087 46.7891 136.677 45.4495 135.135 45.7616C134.235 45.9444 133.457 45.3411 132.585 45.8221C131.772 46.2707 131.738 47.3838 130.581 47.7825C127.138 49.8173 128.628 51.2828 129.167 51.3151C128.523 51.8894 129.18 52.8388 128.4 53.2968C127.447 53.8569 125.028 53.2826 123.885 53.495C122.757 53.7062 122.603 54.9415 121.433 55.0317C120.054 55.1385 118.421 55.873 118.074 57.3812C117.438 56.3014 115.976 56.3856 115.03 56.935C113.436 57.8594 112.318 57.4002 110.633 57.9128C107.813 58.772 107.365 62.7971 104.529 63.5316C104.641 63.0356 108.62 59.9361 105.463 59.516C106.563 61.1369 104.441 61.4455 103.49 62.0969C103.144 62.3337 104.084 65.3333 104.038 65.6244C103.805 64.7978 102.358 63.6419 102.268 63.9677C102.174 63.7119 103.348 63.094 101.873 62.4857C100.779 67.3253 99.1911 62.2302 100.829 63.4756C100.991 62.5438 100.93 61.3242 100.92 62.5126C100.974 62.6242 100.479 62.7498 100.137 62.7003C99.6807 62.6343 99.3079 61.8719 99.1539 63.2239C99.3167 63.3114 97.7023 61.3408 97.7272 61.4893C97.8066 62.3011 98.5717 62.8831 93.9669 62.0632C94.2396 62.5392 95.2971 63.4112 96.4341 64.1285C96.5298 63.6049 97.0973 63.1107 97.8156 64.7603C97.5303 62.0442 101.221 66.324 101.303 64.6962C101.394 64.8257 101.919 65.632 100.822 66.5557L102.392 65.6011C101.877 66.4752 105.263 67.9701 105.393 68.1379C106.931 70.1203 104.346 70.5397 108.451 71.7288C108.295 70.9231 104.723 67.2683 105.422 67.9379C105.987 68.4788 107.378 69.8039 107.976 70.1403C108.575 70.4768 109.146 70.7263 109.658 70.85C110.169 70.9737 110.622 70.9714 110.985 70.804C111.347 70.6366 111.619 70.3041 111.77 69.7674C112.678 70.8389 113.257 70.5149 114.296 69.9643C115.685 69.2298 117.377 69.9323 118.495 70.8793C117.157 71.0608 117.179 71.717 117.2 72.8443C117.225 74.2268 115.987 74.1627 114.944 74.2837C113.811 74.4143 113.188 74.3632 112.156 73.7842C111.531 73.4329 110.672 72.8835 109.913 73.1861C109.163 73.4863 109.571 74.2837 109.111 74.47C107.991 74.9245 107.344 76.0589 106.154 76.2298C104.538 76.4624 103.113 76.2987 101.858 77.5838C99.7014 79.7921 95.6975 82.4431 93.3539 78.4821C95.0436 78.8701 95.465 73.0911 92.8657 72.7019C91.4283 72.486 90.674 71.9579 89.4573 71.2198C88.3235 70.5328 87.2714 71.0216 86.0721 70.8697C84.2505 70.636 88.313 67.8866 88.9412 67.6314C90.1813 67.1295 94.4725 66.427 94.8613 64.8974C93.7964 64.9294 93.6224 63.852 93.6002 63.0178C92.3672 63.7226 92.6789 63.897 91.1002 63.1067C89.8041 62.4576 88.0596 63.1518 86.6373 63.1767C85.0936 63.204 84.1291 63.3737 82.715 62.5799C81.4995 61.8975 80.1264 60.7833 78.6422 61.2235C83.0304 59.4649 77.5259 60.1366 76.4587 58.5749C79.2016 59.9431 82.8716 59.5587 85.193 57.806C83.6283 58.2593 81.5054 59.0413 80.1147 57.6387C79.0684 56.5838 79.8647 54.7896 78.7239 53.705C79.6137 54.8916 79.3288 56.0201 79.3545 57.3397C79.3744 58.3495 77.081 57.7075 76.5403 58.0623C76.2379 57.4761 76.2659 56.9065 76.6209 56.3535C75.9366 56.4995 75.8116 57.4287 75.473 57.9152C74.9989 58.5987 73.6141 57.9508 72.903 58.0766C69.8624 58.6118 70.3295 61.5522 68.5534 63.4437C68.3888 62.5455 66.706 59.8364 65.5278 60.7097C65.9622 61.9652 67.8796 62.0732 68.2451 63.3346C68.6783 64.8262 64.5599 67.5721 63.5078 68.144C64.4618 67.4973 65.6528 66.8138 65.9482 65.5809C64.8354 65.6651 62.8013 69.4114 62.5736 66.777C62.0469 67.3668 61.309 69.2666 62.9928 68.4846C62.7849 68.7611 62.5911 69.0459 62.4089 69.3402C63.5953 69.5146 64.2527 71.8167 62.9122 72.2451C62.5296 68.5938 59.5586 70.322 57.9132 70.7349C55.8033 71.2644 55.3239 72.8353 52.9404 71.2097C52.5766 70.9616 49.9216 69.5093 51.9153 69.1618C53.9719 68.8034 53.3292 67.6237 54.3171 66.3729C55.4054 64.9941 56.6578 63.9099 56.3741 61.8618C56.1254 60.0652 55.8547 59.6382 58.0418 58.8313C58.2228 59.3498 58.4166 59.8613 58.6256 60.3691C59.8821 57.7395 63.3507 62.0926 65.2342 60.0706C64.4145 59.8154 64.0927 59.0693 63.3185 58.7442C65.5265 57.6267 61.6694 53.9893 59.8314 53.7363C60.3008 52.9762 60.3217 50.0608 59.2675 51.4543C58.9498 51.8743 57.8369 48.5906 57.6139 48.25C57.0464 47.379 56.8759 46.4471 56.2599 45.4994C54.712 43.1178 55.4171 45.9966 53.7304 44.0344C53.025 43.2137 51.1597 41.8376 50.7919 43.5653C50.5292 42.0322 49.5365 43.9548 49.2528 42.4763C47.5409 43.295 45.62 39.9163 44.136 39.4402C42.952 39.0604 42.0556 41.1325 38.5916 40.3588C37.9115 40.2069 37.1134 40.3814 37.3504 41.3188C36.9547 41.8278 35.8122 41.7147 35.1844 41.8646C34.5765 42.0099 33.7796 42.2954 33.5437 42.9706C32.9996 44.5299 32.1974 44.3993 30.6187 44.5429C28.6721 44.7209 26.5563 44.3412 25.127 45.9752C23.0217 48.3829 21.875 45.4329 19.8736 44.7743C18.9172 44.4598 17.8325 44.8004 16.875 44.9167C15.6816 45.0615 15.0687 44.6604 13.9453 44.4646C12.8057 44.2664 11.6894 44.6604 10.6676 43.9353C8.96515 42.725 8.73276 44.2474 7.1774 44.6521C7.13653 42.8175 5.41065 43.539 4.5092 42.5292C3.87514 41.8172 3.51081 42.1281 2.89194 41.6629C2.19016 41.1373 2.03834 40.3565 1.03179 40.1239" stroke="url(#paint0_linear_262_2)"/>
<path d="M34.751 23.793C34.751 23.8867 34.7158 23.9688 34.6455 24.0391C34.5752 24.1016 34.4893 24.1562 34.3877 24.2031C34.2939 24.25 34.1963 24.293 34.0947 24.332C33.9932 24.3711 33.9072 24.4062 33.8369 24.4375C33.7744 24.4688 33.7197 24.5039 33.6729 24.543C33.6338 24.582 33.5908 24.625 33.5439 24.6719C33.5049 24.7109 33.458 24.7461 33.4033 24.7773C33.3564 24.8086 33.2939 24.8359 33.2158 24.8594C33.1143 24.8828 33.0244 24.8945 32.9463 24.8945C32.8682 24.8945 32.7939 24.9023 32.7236 24.918C32.6533 24.9258 32.5908 24.9531 32.5361 25C32.4814 25.0469 32.4268 25.1289 32.3721 25.2461C32.3252 25.3477 32.29 25.4688 32.2666 25.6094C32.251 25.7422 32.2236 25.8711 32.1846 25.9961C32.1455 26.1211 32.0869 26.2266 32.0088 26.3125C31.9385 26.3984 31.8252 26.4414 31.6689 26.4414C31.6689 26.5273 31.6963 26.6172 31.751 26.7109C31.8135 26.7969 31.876 26.8828 31.9385 26.9688C32.0088 27.0547 32.0713 27.1445 32.126 27.2383C32.1807 27.3242 32.208 27.4102 32.208 27.4961C32.208 27.5898 32.1885 27.6797 32.1494 27.7656C32.1104 27.8516 32.0908 27.9414 32.0908 28.0352L32.0791 28.75C32.0713 28.9062 32.0986 29.0625 32.1611 29.2188C32.2314 29.3672 32.2666 29.5234 32.2666 29.6875C32.2666 29.7812 32.2471 29.875 32.208 29.9688C32.1689 30.0547 32.1494 30.1484 32.1494 30.25C32.1494 30.5781 32.1807 30.9062 32.2432 31.2344C32.3135 31.5547 32.3486 31.8867 32.3486 32.2305C32.3486 32.457 32.3291 32.7031 32.29 32.9688C32.251 33.2266 32.1572 33.4453 32.0088 33.625C32.0166 33.7344 32.04 33.8281 32.0791 33.9062C32.1182 33.9766 32.1572 34.0547 32.1963 34.1406C32.2354 34.2188 32.2705 34.3086 32.3018 34.4102C32.3408 34.5039 32.3604 34.6289 32.3604 34.7852C32.3604 34.9258 32.3447 35.1133 32.3135 35.3477C32.29 35.5742 32.2432 35.7969 32.1729 36.0156C32.1025 36.2266 32.0049 36.4141 31.8799 36.5781C31.7627 36.7344 31.6104 36.8125 31.4229 36.8125C31.4072 36.8125 31.3916 36.8125 31.376 36.8125C31.3682 36.8047 31.3564 36.8008 31.3408 36.8008L31.3291 36.8711V36.9062C31.3291 37.0156 31.3604 37.1133 31.4229 37.1992C31.4932 37.2852 31.5283 37.3828 31.5283 37.4922C31.5283 37.5469 31.4932 37.6172 31.4229 37.7031C31.3604 37.7891 31.2822 37.8789 31.1885 37.9727C31.0947 38.0664 30.9971 38.1562 30.8955 38.2422C30.8018 38.3281 30.7236 38.4023 30.6611 38.4648C30.5908 38.5352 30.5361 38.6055 30.4971 38.6758C30.4658 38.7383 30.4307 38.7969 30.3916 38.8516C30.3604 38.8984 30.3135 38.9414 30.251 38.9805C30.1963 39.0117 30.1104 39.0391 29.9932 39.0625C29.79 39.1016 29.6104 39.1602 29.4541 39.2383C29.2979 39.3164 29.1455 39.3984 28.9971 39.4844C28.8486 39.5625 28.6885 39.6289 28.5166 39.6836C28.3447 39.7461 28.1377 39.7773 27.8955 39.7773C27.7627 39.7773 27.6338 39.7617 27.5088 39.7305C27.3838 39.6992 27.2588 39.6641 27.1338 39.625C27.0088 39.5781 26.8799 39.5391 26.7471 39.5078C26.6221 39.4766 26.4971 39.4609 26.3721 39.4609C26.2705 39.4609 26.1689 39.4688 26.0674 39.4844C25.9736 39.4922 25.876 39.4961 25.7744 39.4961C25.6963 39.4961 25.6338 39.4922 25.5869 39.4844C25.5479 39.4766 25.501 39.4453 25.4463 39.3906C25.4072 39.3438 25.3447 39.3008 25.2588 39.2617C25.1807 39.2227 25.0947 39.1875 25.001 39.1562C24.9072 39.1172 24.8135 39.0859 24.7197 39.0625C24.626 39.0312 24.5479 39.0078 24.4854 38.9922C24.3447 38.9531 24.208 38.875 24.0752 38.7578C23.9502 38.6406 23.833 38.5078 23.7236 38.3594C23.6221 38.2031 23.5283 38.043 23.4424 37.8789C23.3643 37.7148 23.3018 37.5664 23.2549 37.4336C23.1611 37.168 23.0947 36.8984 23.0557 36.625C23.0166 36.3438 22.9854 36.0664 22.9619 35.793C22.9385 35.5117 22.9111 35.2344 22.8799 34.9609C22.8564 34.6797 22.8096 34.4023 22.7393 34.1289C22.708 34.0195 22.6729 33.9102 22.6338 33.8008C22.6025 33.6836 22.5869 33.5664 22.5869 33.4492C22.5869 33.3633 22.5947 33.2812 22.6104 33.2031C22.626 33.1172 22.6416 33.0312 22.6572 32.9453C22.7197 32.6172 22.7666 32.2852 22.7979 31.9492C22.8369 31.6133 22.8564 31.2773 22.8564 30.9414C22.8564 30.4961 22.833 30.0547 22.7861 29.6172C22.7471 29.1797 22.7275 28.7383 22.7275 28.293C22.7275 28.207 22.7275 28.125 22.7275 28.0469C22.7275 27.9688 22.7314 27.8867 22.7393 27.8008C22.7549 27.6445 22.7861 27.4922 22.833 27.3438C22.8877 27.1953 22.915 27.043 22.915 26.8867C22.915 26.832 22.9072 26.7812 22.8916 26.7344C22.876 26.6875 22.8604 26.6367 22.8447 26.582C22.751 26.3789 22.6963 26.1953 22.6807 26.0312C22.665 25.8594 22.6494 25.6641 22.6338 25.4453C22.6025 25.1094 22.5322 24.8711 22.4229 24.7305C22.3213 24.5898 22.1885 24.4883 22.0244 24.4258C21.8682 24.3633 21.6924 24.3125 21.4971 24.2734C21.3096 24.2266 21.1104 24.125 20.8994 23.9688C20.8369 23.9297 20.7822 23.8828 20.7354 23.8281C20.6963 23.7656 20.6768 23.6992 20.6768 23.6289C20.6768 23.5039 20.7432 23.3906 20.876 23.2891C21.0166 23.1875 21.1807 23.1055 21.3682 23.043C21.5557 22.9805 21.7432 22.9336 21.9307 22.9023C22.1182 22.8633 22.2627 22.8438 22.3643 22.8438C22.4893 22.8438 22.6064 22.8594 22.7158 22.8906C22.833 22.9219 22.9541 22.9375 23.0791 22.9375C23.3291 22.9375 23.5713 22.9102 23.8057 22.8555C24.04 22.793 24.2822 22.7617 24.5322 22.7617C24.6338 22.7617 24.79 22.7812 25.001 22.8203C25.2119 22.8594 25.4229 22.918 25.6338 22.9961C25.8447 23.0664 26.0283 23.1562 26.1846 23.2656C26.3486 23.3672 26.4307 23.4844 26.4307 23.6172C26.4307 23.7891 26.376 23.9531 26.2666 24.1094C26.165 24.2578 26.0361 24.4023 25.8799 24.543C25.7236 24.6836 25.5518 24.8281 25.3643 24.9766C25.1846 25.125 25.0166 25.2852 24.8604 25.457C24.7041 25.6289 24.5713 25.8242 24.4619 26.043C24.3604 26.2539 24.3096 26.4922 24.3096 26.7578C24.3096 26.9141 24.3135 27.0742 24.3213 27.2383C24.3369 27.3945 24.3447 27.5508 24.3447 27.707C24.3447 28.0195 24.3135 28.3281 24.251 28.6328C24.1963 28.9375 24.1689 29.25 24.1689 29.5703C24.1689 29.8281 24.2041 30.0625 24.2744 30.2734C24.3525 30.4766 24.3916 30.6367 24.3916 30.7539C24.3916 30.8789 24.376 30.9961 24.3447 31.1055C24.3213 31.207 24.3096 31.3164 24.3096 31.4336C24.3096 31.4883 24.3096 31.5391 24.3096 31.5859C24.3174 31.6328 24.3213 31.6836 24.3213 31.7383C24.3213 31.8633 24.3018 31.9648 24.2627 32.043C24.2314 32.1211 24.1963 32.1914 24.1572 32.2539C24.1182 32.3164 24.0791 32.375 24.04 32.4297C24.001 32.4844 23.9814 32.5469 23.9814 32.6172C24.0205 32.5859 24.0596 32.5586 24.0986 32.5352C24.1377 32.5117 24.1807 32.5 24.2275 32.5C24.2822 32.5 24.3252 32.5195 24.3564 32.5586C24.3877 32.5977 24.4111 32.6445 24.4268 32.6992C24.4502 32.7461 24.4658 32.8008 24.4736 32.8633C24.4814 32.918 24.4854 32.9648 24.4854 33.0039C24.4854 33.207 24.5127 33.4062 24.5674 33.6016C24.6299 33.7969 24.6611 33.9961 24.6611 34.1992C24.6611 34.3789 24.6455 34.5625 24.6143 34.75C24.583 34.9297 24.5674 35.1133 24.5674 35.3008C24.5674 35.4805 24.5791 35.6484 24.6025 35.8047C24.6338 35.9531 24.7393 36.0742 24.9189 36.168C24.9502 36.1836 24.9854 36.2305 25.0244 36.3086C25.0635 36.3867 25.1025 36.4727 25.1416 36.5664C25.1885 36.6523 25.2354 36.7422 25.2822 36.8359C25.3291 36.9219 25.376 36.9844 25.4229 37.0234C25.5166 37.1094 25.6182 37.1797 25.7275 37.2344C25.8369 37.2891 25.9463 37.3438 26.0557 37.3984C26.1729 37.4453 26.2822 37.5 26.3838 37.5625C26.4932 37.6172 26.5908 37.6953 26.6768 37.7969C26.7471 37.8828 26.8369 37.9609 26.9463 38.0312C27.0557 38.0938 27.1611 38.1641 27.2627 38.2422C27.3721 38.3125 27.4658 38.3906 27.5439 38.4766C27.6221 38.5625 27.6611 38.668 27.6611 38.793C27.6611 38.6914 27.6768 38.6094 27.708 38.5469C27.7158 38.5703 27.7197 38.6055 27.7197 38.6523C27.7197 38.7148 27.7041 38.7617 27.6729 38.793C27.6963 38.7695 27.7236 38.7305 27.7549 38.6758C27.7861 38.6211 27.8174 38.5664 27.8486 38.5117C27.8799 38.457 27.9111 38.4102 27.9424 38.3711C27.9736 38.332 28.0088 38.3125 28.0479 38.3125C28.1025 38.3125 28.1533 38.332 28.2002 38.3711C28.2471 38.4102 28.2705 38.4609 28.2705 38.5234C28.2705 38.6016 28.2549 38.6758 28.2236 38.7461C28.1924 38.8164 28.1729 38.8906 28.165 38.9688C28.2432 38.9688 28.3213 38.9531 28.3994 38.9219C28.4854 38.8828 28.5635 38.8359 28.6338 38.7812C28.7041 38.7266 28.7588 38.6641 28.7979 38.5938C28.8447 38.5156 28.8682 38.4336 28.8682 38.3477C28.8682 38.2461 28.8369 38.1836 28.7744 38.1602C28.7197 38.1289 28.6494 38.1133 28.5635 38.1133C28.501 38.1133 28.4385 38.1172 28.376 38.125C28.3213 38.1328 28.2627 38.1367 28.2002 38.1367H28.165C28.2041 38.0195 28.2627 37.9219 28.3408 37.8438C28.4189 37.7656 28.5088 37.7031 28.6104 37.6562C28.7119 37.6016 28.8174 37.5586 28.9268 37.5273C29.0361 37.4883 29.1416 37.4492 29.2432 37.4102C29.4072 37.3477 29.54 37.2656 29.6416 37.1641C29.7432 37.0547 29.8369 36.9414 29.9229 36.8242C30.0088 36.707 30.0947 36.5898 30.1807 36.4727C30.2666 36.3477 30.3721 36.2344 30.4971 36.1328C30.5049 36.0781 30.5088 36.0273 30.5088 35.9805C30.5088 35.9336 30.5088 35.8867 30.5088 35.8398C30.5088 35.6758 30.501 35.5156 30.4854 35.3594C30.4775 35.1953 30.4736 35.0312 30.4736 34.8672C30.4736 34.6875 30.4971 34.5078 30.5439 34.3281C30.5986 34.1484 30.626 33.9688 30.626 33.7891C30.626 33.6328 30.6064 33.4844 30.5674 33.3438C30.5283 33.1953 30.5088 33.043 30.5088 32.8867C30.5088 32.7461 30.5283 32.6094 30.5674 32.4766C30.6064 32.3359 30.626 32.1953 30.626 32.0547C30.626 31.8281 30.6064 31.6094 30.5674 31.3984C30.5283 31.1797 30.5088 30.9609 30.5088 30.7422C30.5088 30.4453 30.5322 30.1562 30.5791 29.875C30.6338 29.5938 30.6611 29.3086 30.6611 29.0195C30.6611 28.6445 30.626 28.2773 30.5557 27.918C30.4932 27.5586 30.4619 27.1914 30.4619 26.8164C30.4619 26.7617 30.4619 26.6914 30.4619 26.6055C30.4697 26.5117 30.4814 26.4219 30.4971 26.3359C30.5205 26.2422 30.5518 26.1641 30.5908 26.1016C30.6299 26.0312 30.6885 25.9961 30.7666 25.9961C30.6963 25.9883 30.6064 25.9414 30.4971 25.8555C30.3955 25.7617 30.2939 25.6602 30.1924 25.5508C30.0986 25.4336 30.0127 25.3203 29.9346 25.2109C29.8643 25.0938 29.8291 25.0039 29.8291 24.9414C29.79 24.9492 29.751 24.957 29.7119 24.9648C29.6807 24.9648 29.6455 24.9648 29.6064 24.9648C29.4971 24.9648 29.3916 24.9453 29.29 24.9062C29.1963 24.8672 29.1025 24.8281 29.0088 24.7891C28.915 24.7422 28.8174 24.6992 28.7158 24.6602C28.6143 24.6211 28.5049 24.6016 28.3877 24.6016H28.3291C28.2979 24.4062 28.2471 24.2188 28.1768 24.0391C28.1143 23.8594 28.083 23.668 28.083 23.4648C28.083 23.3086 28.1221 23.1836 28.2002 23.0898C28.2861 22.9961 28.3916 22.9258 28.5166 22.8789C28.6416 22.8242 28.7744 22.7891 28.915 22.7734C29.0635 22.7578 29.1963 22.75 29.3135 22.75C29.5322 22.75 29.7471 22.7617 29.958 22.7852C30.1689 22.8086 30.3838 22.8203 30.6025 22.8203C30.7666 22.8203 30.9189 22.7852 31.0596 22.7148C31.2002 22.6367 31.3486 22.5977 31.5049 22.5977C31.5908 22.5977 31.6807 22.6172 31.7744 22.6562C31.8682 22.6875 31.9619 22.7266 32.0557 22.7734C32.1572 22.8203 32.2588 22.8672 32.3604 22.9141C32.4619 22.9531 32.5596 22.9805 32.6533 22.9961C32.8018 23.0195 32.958 23.0312 33.1221 23.0312C33.2939 23.0312 33.4619 23.0391 33.626 23.0547C33.79 23.0703 33.9463 23.1016 34.0947 23.1484C34.2432 23.1875 34.3799 23.2617 34.5049 23.3711C34.5674 23.4258 34.6221 23.4883 34.6689 23.5586C34.7236 23.6289 34.751 23.707 34.751 23.793ZM49.0361 39.1094C49.0361 39.1875 48.9463 39.25 48.7666 39.2969C48.5947 39.3438 48.3799 39.3789 48.1221 39.4023C47.8721 39.4258 47.6025 39.4414 47.3135 39.4492C47.0244 39.457 46.7705 39.4609 46.5518 39.4609H46.001C45.7744 39.4609 45.5518 39.4688 45.333 39.4844C45.1221 39.5 44.9033 39.5078 44.6768 39.5078C44.6064 39.5078 44.5088 39.5078 44.3838 39.5078C44.2666 39.5 44.1494 39.4805 44.0322 39.4492C43.9229 39.418 43.8252 39.375 43.7393 39.3203C43.6611 39.2656 43.6221 39.1836 43.6221 39.0742C43.6221 39.0586 43.6416 38.9805 43.6807 38.8398C43.7275 38.6992 43.79 38.5508 43.8682 38.3945C43.9541 38.2305 44.0557 38.0859 44.1729 37.9609C44.29 37.8281 44.4229 37.7617 44.5713 37.7617C44.6572 37.7617 44.7354 37.7734 44.8057 37.7969C44.8291 37.6953 44.8408 37.5859 44.8408 37.4688C44.8408 37.2422 44.7939 37.0352 44.7002 36.8477C44.6143 36.6602 44.5127 36.4766 44.3955 36.2969C44.2861 36.1172 44.1768 35.9375 44.0674 35.7578C43.958 35.5703 43.8838 35.3672 43.8447 35.1484C43.8213 35.0234 43.7783 34.918 43.7158 34.832C43.6611 34.7383 43.5986 34.6484 43.5283 34.5625C43.4658 34.4766 43.4033 34.3867 43.3408 34.293C43.2861 34.1992 43.2471 34.0859 43.2236 33.9531C43.208 33.8516 43.1885 33.7773 43.165 33.7305C43.1494 33.6758 43.126 33.6328 43.0947 33.6016C43.0635 33.5703 43.0205 33.543 42.9658 33.5195C42.9189 33.4961 42.8564 33.457 42.7783 33.4023C42.7002 33.3555 42.6455 33.3008 42.6143 33.2383C42.5908 33.1758 42.5713 33.1133 42.5557 33.0508C42.5479 32.9805 42.54 32.9102 42.5322 32.8398C42.5244 32.7617 42.5049 32.6875 42.4736 32.6172C42.4111 32.5859 42.3525 32.5586 42.2979 32.5352C42.251 32.5117 42.1963 32.4844 42.1338 32.4531C42.0869 32.3438 42.0439 32.2227 42.0049 32.0898C41.9658 31.9492 41.915 31.8164 41.8525 31.6914C41.7979 31.5664 41.7236 31.4648 41.6299 31.3867C41.5439 31.3008 41.4229 31.2578 41.2666 31.2578C41.165 31.2578 41.0596 31.3047 40.9502 31.3984C40.8486 31.4844 40.7393 31.5898 40.6221 31.7148C40.5127 31.8398 40.4033 31.9727 40.2939 32.1133C40.1846 32.2461 40.0752 32.3594 39.9658 32.4531C39.958 32.4844 39.9541 32.5156 39.9541 32.5469C39.9541 32.5781 39.9541 32.6094 39.9541 32.6406C39.9541 32.7344 39.958 32.832 39.9658 32.9336C39.9736 33.0273 39.9775 33.1211 39.9775 33.2148C39.9775 33.3477 39.958 33.4609 39.9189 33.5547C39.8877 33.6484 39.8486 33.7422 39.8018 33.8359C39.7549 33.9219 39.7119 34.0117 39.6729 34.1055C39.6416 34.1914 39.626 34.293 39.626 34.4102C39.626 34.6602 39.6533 34.9102 39.708 35.1602C39.7705 35.4102 39.8018 35.6602 39.8018 35.9102C39.8018 36.043 39.7939 36.1758 39.7783 36.3086C39.7705 36.4414 39.7666 36.5742 39.7666 36.707C39.7666 36.9883 39.8174 37.207 39.9189 37.3633C40.0205 37.5117 40.1455 37.6289 40.2939 37.7148C40.4424 37.8008 40.6064 37.8633 40.7861 37.9023C40.9658 37.9336 41.1299 37.9688 41.2783 38.0078C41.4268 38.0391 41.5518 38.0859 41.6533 38.1484C41.7549 38.2031 41.8057 38.2969 41.8057 38.4297C41.8057 38.5312 41.7783 38.6406 41.7236 38.7578C41.6768 38.875 41.6104 38.9844 41.5244 39.0859C41.4385 39.1875 41.3408 39.2773 41.2314 39.3555C41.1299 39.4258 41.0283 39.4648 40.9268 39.4727C40.8799 39.4805 40.833 39.4844 40.7861 39.4844C40.7393 39.4844 40.6924 39.4844 40.6455 39.4844C40.5283 39.4844 40.4111 39.4727 40.2939 39.4492C40.1768 39.418 40.0557 39.4023 39.9307 39.4023C39.8291 39.4023 39.7275 39.418 39.626 39.4492C39.5322 39.4805 39.4346 39.5078 39.333 39.5312C39.083 39.5859 38.8291 39.6328 38.5713 39.6719C38.3135 39.7188 38.0596 39.7422 37.8096 39.7422C37.708 39.7422 37.5869 39.7109 37.4463 39.6484C37.3057 39.5859 37.1689 39.5039 37.0361 39.4023C36.9111 39.3008 36.8018 39.1836 36.708 39.0508C36.6221 38.918 36.5791 38.7812 36.5791 38.6406C36.5791 38.4297 36.6533 38.2539 36.8018 38.1133C36.9502 37.9648 37.1143 37.8594 37.2939 37.7969C37.3643 37.6719 37.4463 37.5977 37.54 37.5742C37.6416 37.5508 37.7354 37.5352 37.8213 37.5273C37.915 37.5117 37.9971 37.4805 38.0674 37.4336C38.1377 37.3789 38.1807 37.2578 38.1963 37.0703C38.2119 36.9141 38.2549 36.7734 38.3252 36.6484C38.4033 36.5234 38.4424 36.3867 38.4424 36.2383L38.4307 36.1797C38.376 35.6328 38.3174 35.0898 38.2549 34.5508C38.2002 34.0117 38.1729 33.4648 38.1729 32.9102C38.1729 32.3945 38.1807 31.8789 38.1963 31.3633C38.2197 30.8398 38.2588 30.3203 38.3135 29.8047C38.3291 29.6953 38.3447 29.5859 38.3604 29.4766C38.3838 29.3594 38.3955 29.2422 38.3955 29.125C38.3955 29 38.3643 28.8867 38.3018 28.7852C38.2393 28.6758 38.208 28.5547 38.208 28.4219C38.208 28.2656 38.2158 28.1172 38.2314 27.9766C38.2549 27.8281 38.2666 27.6758 38.2666 27.5195C38.2666 27.4102 38.2549 27.3047 38.2314 27.2031C38.2158 27.1016 38.208 27 38.208 26.8984C38.208 26.75 38.2119 26.6055 38.2197 26.4648C38.2275 26.3164 38.2314 26.1719 38.2314 26.0312C38.2314 25.7266 38.2119 25.4844 38.1729 25.3047C38.1416 25.125 38.0713 24.9922 37.9619 24.9062C37.8604 24.8125 37.7158 24.7539 37.5283 24.7305C37.3486 24.6992 37.1064 24.6836 36.8018 24.6836C36.6768 24.6836 36.5479 24.6797 36.415 24.6719C36.29 24.6641 36.1729 24.6367 36.0635 24.5898C35.9619 24.543 35.876 24.4766 35.8057 24.3906C35.7354 24.2969 35.7002 24.168 35.7002 24.0039C35.7002 23.8398 35.7354 23.6758 35.8057 23.5117C35.8838 23.3398 35.9893 23.2031 36.1221 23.1016C36.2236 23.0234 36.3799 22.957 36.5908 22.9023C36.8096 22.8398 37.0557 22.7891 37.3291 22.75C37.6104 22.7109 37.9033 22.6836 38.208 22.668C38.5205 22.6445 38.8213 22.6289 39.1104 22.6211C39.4072 22.6055 39.6768 22.5977 39.9189 22.5977C40.1611 22.5898 40.3564 22.5859 40.5049 22.5859C40.7627 22.5859 40.9736 22.6016 41.1377 22.6328C41.3096 22.6641 41.4463 22.7266 41.5479 22.8203C41.6572 22.9141 41.7314 23.043 41.7705 23.207C41.8174 23.3711 41.8408 23.5859 41.8408 23.8516C41.8408 24.125 41.7783 24.3555 41.6533 24.543C41.5283 24.7305 41.3096 24.8242 40.9971 24.8242C40.9111 24.8242 40.8252 24.8203 40.7393 24.8125C40.6533 24.7969 40.5674 24.7891 40.4814 24.7891C40.3643 24.7891 40.2471 24.8359 40.1299 24.9297C40.0127 25.0156 39.9072 25.1172 39.8135 25.2344C39.7275 25.3516 39.6572 25.4648 39.6025 25.5742C39.5479 25.6836 39.5205 25.7617 39.5205 25.8086C39.5205 25.9414 39.5439 26.0742 39.5908 26.207C39.6455 26.332 39.6729 26.4609 39.6729 26.5938C39.6729 26.75 39.6494 26.8984 39.6025 27.0391C39.5557 27.1797 39.5322 27.3281 39.5322 27.4844C39.5322 27.5469 39.5361 27.6055 39.5439 27.6602C39.5518 27.707 39.5635 27.7578 39.5791 27.8125C39.5869 27.875 39.5947 27.9766 39.6025 28.1172C39.6104 28.2578 39.6182 28.418 39.626 28.5977C39.6338 28.7695 39.6455 28.9492 39.6611 29.1367C39.6768 29.3164 39.7002 29.4844 39.7314 29.6406C39.7627 29.7891 39.8018 29.9141 39.8486 30.0156C39.9033 30.1094 39.9736 30.1562 40.0596 30.1562C40.1846 30.1562 40.3291 30.0547 40.4932 29.8516C40.665 29.6484 40.8291 29.4141 40.9854 29.1484C41.1494 28.875 41.29 28.6094 41.4072 28.3516C41.5322 28.0859 41.6064 27.8945 41.6299 27.7773C41.7861 27.707 41.9268 27.6211 42.0518 27.5195C42.1846 27.4102 42.3057 27.2969 42.415 27.1797C42.4932 27.1016 42.6104 26.9727 42.7666 26.793C42.9307 26.6133 43.0947 26.4219 43.2588 26.2188C43.4229 26.0156 43.5635 25.8203 43.6807 25.6328C43.8057 25.4453 43.8682 25.3008 43.8682 25.1992C43.8682 25.082 43.8369 24.957 43.7744 24.8242C43.7119 24.6914 43.6455 24.5508 43.5752 24.4023C43.5049 24.2539 43.4385 24.1055 43.376 23.957C43.3135 23.8008 43.2822 23.6406 43.2822 23.4766C43.2822 23.3359 43.3682 23.2227 43.54 23.1367C43.7119 23.0508 43.915 22.9844 44.1494 22.9375C44.3838 22.8828 44.6182 22.8477 44.8525 22.832C45.0947 22.8086 45.2822 22.7969 45.415 22.7969C46.001 22.7969 46.5791 22.8711 47.1494 23.0195C47.7275 23.1602 48.2822 23.3555 48.8135 23.6055C48.7275 23.8555 48.6221 24.0391 48.4971 24.1562C48.3799 24.2734 48.251 24.3594 48.1104 24.4141C47.9697 24.4688 47.8174 24.5039 47.6533 24.5195C47.4893 24.5273 47.3213 24.5469 47.1494 24.5781C46.9775 24.6016 46.8018 24.6484 46.6221 24.7188C46.4502 24.7891 46.2822 24.9102 46.1182 25.082C45.9932 25.2148 45.876 25.3516 45.7666 25.4922C45.6572 25.6328 45.5439 25.7695 45.4268 25.9023C45.3174 26.0352 45.2002 26.1641 45.0752 26.2891C44.9502 26.4062 44.8057 26.5117 44.6416 26.6055V26.6641C44.6416 26.9453 44.5674 27.1953 44.4189 27.4141C44.2705 27.6328 44.1064 27.8555 43.9268 28.082C43.7549 28.3086 43.5947 28.5547 43.4463 28.8203C43.2979 29.0859 43.2236 29.4062 43.2236 29.7812C43.2236 29.9688 43.2432 30.1758 43.2822 30.4023C43.3213 30.6211 43.3838 30.8359 43.4697 31.0469C43.5557 31.25 43.665 31.4336 43.7979 31.5977C43.9385 31.7617 44.1064 31.8789 44.3018 31.9492C44.3018 31.9883 44.3096 32.0781 44.3252 32.2188C44.3408 32.3516 44.3604 32.5 44.3838 32.6641C44.415 32.8203 44.4502 32.9766 44.4893 33.1328C44.5361 33.2812 44.5869 33.3906 44.6416 33.4609C44.6885 33.5156 44.7158 33.5625 44.7236 33.6016C44.7393 33.6406 44.7471 33.6797 44.7471 33.7188C44.7549 33.75 44.7588 33.7852 44.7588 33.8242C44.7666 33.8555 44.7822 33.8984 44.8057 33.9531C44.8604 33.9922 44.915 34.0234 44.9697 34.0469C45.0244 34.0703 45.083 34.0977 45.1455 34.1289V34.6211C45.1689 34.6914 45.2002 34.7344 45.2393 34.75C45.2783 34.7656 45.3291 34.7734 45.3916 34.7734C45.4385 34.7734 45.4736 34.8242 45.4971 34.9258C45.5283 35.0273 45.5557 35.1523 45.5791 35.3008C45.6104 35.4414 45.6416 35.5898 45.6729 35.7461C45.7041 35.9023 45.751 36.0312 45.8135 36.1328C45.8916 36.2656 45.958 36.4062 46.0127 36.5547C46.0752 36.7031 46.1338 36.8516 46.1885 37C46.251 37.1406 46.3174 37.2812 46.3877 37.4219C46.458 37.5625 46.5439 37.6875 46.6455 37.7969C46.7939 37.9609 46.9775 38.0938 47.1963 38.1953C47.4229 38.2891 47.6377 38.3555 47.8408 38.3945C47.8955 38.4102 47.9893 38.4453 48.1221 38.5C48.2549 38.5469 48.3877 38.6055 48.5205 38.6758C48.6611 38.7461 48.7822 38.8203 48.8838 38.8984C48.9854 38.9766 49.0361 39.0469 49.0361 39.1094ZM63.9775 37.7852C63.9775 37.8555 63.9736 37.9492 63.9658 38.0664C63.958 38.1836 63.9189 38.2617 63.8486 38.3008C63.7705 38.3398 63.7197 38.4062 63.6963 38.5C63.6807 38.5938 63.6729 38.6875 63.6729 38.7812C63.6729 38.875 63.6689 38.9609 63.6611 39.0391C63.6533 39.1094 63.6221 39.1445 63.5674 39.1445C63.5283 39.1445 63.4971 39.1367 63.4736 39.1211C63.4502 39.0977 63.4189 39.0859 63.3799 39.0859C63.3408 39.0859 63.3018 39.1055 63.2627 39.1445C63.2236 39.1836 63.2041 39.2227 63.2041 39.2617C63.2041 39.3008 63.2158 39.332 63.2393 39.3555C63.2705 39.3711 63.2861 39.3984 63.2861 39.4375C63.2861 39.4688 63.2275 39.5078 63.1104 39.5547C62.9932 39.5938 62.8604 39.6328 62.7119 39.6719C62.5635 39.7188 62.4189 39.7539 62.2783 39.7773C62.1377 39.8086 62.0439 39.8242 61.9971 39.8242C61.7158 39.8242 61.4346 39.7734 61.1533 39.6719C60.8721 39.5703 60.5986 39.4766 60.333 39.3906C60.0127 39.2812 59.7744 39.1016 59.6182 38.8516C59.4697 38.6016 59.3604 38.3203 59.29 38.0078C59.2197 37.6953 59.165 37.375 59.126 37.0469C59.0947 36.7188 59.0322 36.4258 58.9385 36.168C58.8994 36.0508 58.8799 35.9531 58.8799 35.875C58.8799 35.7969 58.8877 35.7344 58.9033 35.6875C58.9268 35.6328 58.9502 35.5898 58.9736 35.5586C59.0049 35.5195 59.0283 35.4883 59.0439 35.4648C59.0674 35.4336 59.0791 35.4023 59.0791 35.3711C59.0791 35.2773 59.0518 35.1836 58.9971 35.0898C58.9424 34.9961 58.915 34.8711 58.915 34.7148C58.915 34.6289 58.915 34.5469 58.915 34.4688C58.9229 34.3828 58.9268 34.2969 58.9268 34.2109C58.9268 33.9219 58.8994 33.6836 58.8447 33.4961C58.7979 33.3086 58.7275 33.1367 58.6338 32.9805C58.5479 32.8242 58.4424 32.668 58.3174 32.5117C58.2002 32.3555 58.0674 32.168 57.9189 31.9492C57.8486 31.9648 57.7744 31.9727 57.6963 31.9727C57.626 31.9727 57.5518 31.9727 57.4736 31.9727C57.3174 31.9727 57.1611 31.9648 57.0049 31.9492C56.8564 31.9336 56.7041 31.9258 56.5479 31.9258C56.3838 31.9258 56.2158 31.9414 56.0439 31.9727C55.8799 32.0039 55.7119 32.0195 55.54 32.0195C55.4307 32.0195 55.3213 32.0039 55.2119 31.9727C55.1025 31.9336 54.9932 31.9141 54.8838 31.9141C54.751 31.9141 54.6182 31.9414 54.4854 31.9961C54.3525 32.043 54.2314 32.1133 54.1221 32.207C54.0127 32.293 53.9229 32.3984 53.8525 32.5234C53.79 32.6406 53.7588 32.7695 53.7588 32.9102V33.2852C53.7588 33.9648 53.7002 34.6328 53.583 35.2891C53.5674 35.3906 53.5518 35.4922 53.5361 35.5938C53.5205 35.6875 53.5127 35.7891 53.5127 35.8984C53.5127 36.2188 53.5752 36.4766 53.7002 36.6719C53.833 36.8672 53.9932 37.0273 54.1807 37.1523C54.3682 37.2695 54.5752 37.3672 54.8018 37.4453C55.0283 37.5234 55.2354 37.6055 55.4229 37.6914C55.6104 37.7695 55.7666 37.8672 55.8916 37.9844C56.0244 38.1016 56.0908 38.2617 56.0908 38.4648C56.0908 38.543 56.0752 38.6172 56.0439 38.6875C56.0205 38.75 55.9893 38.8125 55.9502 38.875C55.8486 39.0391 55.751 39.1641 55.6572 39.25C55.5713 39.3281 55.4736 39.3906 55.3643 39.4375C55.2627 39.4844 55.1494 39.5195 55.0244 39.543C54.8994 39.5664 54.751 39.5977 54.5791 39.6367C54.4463 39.668 54.3057 39.6875 54.1572 39.6953C54.0166 39.7109 53.876 39.7188 53.7354 39.7188C53.5166 39.7188 53.3018 39.6914 53.0908 39.6367C52.8799 39.5898 52.665 39.5664 52.4463 39.5664C52.2822 39.5664 52.1143 39.582 51.9424 39.6133C51.7783 39.6367 51.6143 39.6641 51.4502 39.6953C51.2861 39.7344 51.1221 39.7656 50.958 39.7891C50.7939 39.8203 50.6299 39.8359 50.4658 39.8359C50.3564 39.8359 50.2354 39.8242 50.1025 39.8008C49.9775 39.7773 49.8604 39.7344 49.751 39.6719C49.6416 39.6172 49.5479 39.543 49.4697 39.4492C49.3994 39.3555 49.3643 39.2422 49.3643 39.1094C49.3643 39 49.3916 38.9023 49.4463 38.8164C49.501 38.7305 49.5713 38.6562 49.6572 38.5938C49.751 38.5312 49.8486 38.4805 49.9502 38.4414C50.0518 38.4023 50.1494 38.3789 50.2432 38.3711C50.3291 38.3633 50.3994 38.3594 50.4541 38.3594C50.5166 38.3594 50.5674 38.3516 50.6064 38.3359C50.6533 38.3203 50.7002 38.2969 50.7471 38.2656C50.7939 38.2344 50.8486 38.1875 50.9111 38.125C50.9502 38.0859 50.9854 38.0547 51.0166 38.0312C51.0557 38.0078 51.1025 37.9961 51.1572 37.9961C51.1963 37.9961 51.2354 38 51.2744 38.0078C51.3135 38.0156 51.3525 38.0195 51.3916 38.0195C51.4541 38.0195 51.5166 38 51.5791 37.9609C51.7432 37.8672 51.8604 37.7461 51.9307 37.5977C52.001 37.4492 52.0479 37.2891 52.0713 37.1172C52.0947 36.9375 52.1064 36.7539 52.1064 36.5664C52.1143 36.3789 52.1377 36.207 52.1768 36.0508C52.2158 35.8789 52.2354 35.7188 52.2354 35.5703C52.2354 35.2969 52.2002 35.0273 52.1299 34.7617C52.0674 34.4961 52.0361 34.2266 52.0361 33.9531C52.0361 33.625 52.0596 33.2969 52.1064 32.9688C52.1533 32.6406 52.1768 32.3125 52.1768 31.9844C52.1768 31.8984 52.1729 31.8164 52.165 31.7383C52.165 31.6602 52.165 31.5781 52.165 31.4922C52.165 30.9297 52.2002 30.375 52.2705 29.8281C52.3408 29.2812 52.376 28.7266 52.376 28.1641C52.376 28.0078 52.3721 27.8555 52.3643 27.707C52.3564 27.5586 52.3447 27.4062 52.3291 27.25C52.3135 27.125 52.2979 26.9727 52.2822 26.793C52.2666 26.6055 52.2432 26.4141 52.2119 26.2188C52.1807 26.0234 52.1377 25.8281 52.083 25.6328C52.0361 25.4375 51.9658 25.2656 51.8721 25.1172C51.7861 24.9609 51.6768 24.8359 51.5439 24.7422C51.4189 24.6406 51.2666 24.5898 51.0869 24.5898C51.0479 24.5898 51.0049 24.5938 50.958 24.6016C50.9189 24.6094 50.8799 24.6133 50.8408 24.6133C50.7549 24.6133 50.6846 24.5898 50.6299 24.543C50.5752 24.4883 50.5322 24.4258 50.501 24.3555C50.4697 24.2773 50.4463 24.1953 50.4307 24.1094C50.4229 24.0234 50.4189 23.9492 50.4189 23.8867C50.4189 23.6211 50.4854 23.4258 50.6182 23.3008C50.7588 23.1758 50.9268 23.0898 51.1221 23.043C51.3252 22.9961 51.54 22.9766 51.7666 22.9844C52.001 22.9844 52.208 22.9766 52.3877 22.9609C52.5908 22.9453 52.79 22.9102 52.9854 22.8555C53.1885 22.8008 53.3955 22.7734 53.6064 22.7734C53.9111 22.7734 54.2119 22.8125 54.5088 22.8906C54.8057 22.9688 55.1064 23.0078 55.4111 23.0078C55.6611 23.0078 55.9033 22.9883 56.1377 22.9492C56.3721 22.9023 56.6064 22.8398 56.8408 22.7617C56.958 22.7227 57.0635 22.7031 57.1572 22.7031C57.4619 22.7031 57.7627 22.7422 58.0596 22.8203C58.3564 22.8984 58.6533 22.9453 58.9502 22.9609C59.1533 22.9766 59.3643 23.0156 59.583 23.0781C59.8018 23.1328 60.0049 23.2148 60.1924 23.3242C60.3877 23.4258 60.5557 23.5586 60.6963 23.7227C60.8369 23.8867 60.9268 24.0781 60.9658 24.2969C60.9893 24.4297 61.0439 24.5586 61.1299 24.6836C61.2158 24.8008 61.3057 24.9102 61.3994 25.0117C61.501 25.1055 61.5869 25.1953 61.6572 25.2812C61.7354 25.3594 61.7744 25.4258 61.7744 25.4805C61.7744 25.5352 61.7471 25.5781 61.6924 25.6094C61.6455 25.6328 61.6221 25.6758 61.6221 25.7383C61.6221 25.7773 61.6455 25.8203 61.6924 25.8672C61.7471 25.9141 61.8057 25.9688 61.8682 26.0312C61.9307 26.0938 61.9854 26.1641 62.0322 26.2422C62.0869 26.3125 62.1143 26.3906 62.1143 26.4766C62.1143 26.5938 62.0752 26.6992 61.9971 26.793C61.9268 26.8789 61.8916 26.9805 61.8916 27.0977L61.915 27.1328L62.0791 27.0859L62.1025 27.1094C62.1338 27.2344 62.1455 27.3672 62.1377 27.5078C62.1377 27.6406 62.1377 27.7617 62.1377 27.8711C62.1377 28.0195 62.1338 28.1836 62.126 28.3633C62.1182 28.543 62.0986 28.7188 62.0674 28.8906C62.0361 29.0625 61.9893 29.2227 61.9268 29.3711C61.8643 29.5195 61.7744 29.6367 61.6572 29.7227C61.5869 29.7773 61.5127 29.8203 61.4346 29.8516C61.3643 29.875 61.2939 29.9062 61.2236 29.9453C61.1533 29.9766 61.0908 30.0195 61.0361 30.0742C60.9814 30.1289 60.9385 30.2031 60.9072 30.2969C60.8682 30.4297 60.8018 30.5547 60.708 30.6719C60.6143 30.7891 60.5166 30.9062 60.415 31.0234C60.3213 31.1328 60.2354 31.2461 60.1572 31.3633C60.0869 31.4805 60.0518 31.6094 60.0518 31.75C60.0518 31.9766 60.1025 32.1875 60.2041 32.3828C60.3135 32.5781 60.4111 32.7773 60.4971 32.9805C60.583 33.1914 60.6455 33.4062 60.6846 33.625C60.7236 33.8359 60.751 34.0508 60.7666 34.2695C60.79 34.4883 60.8057 34.707 60.8135 34.9258C60.8291 35.1445 60.8525 35.3633 60.8838 35.582C60.8994 35.6758 60.9346 35.832 60.9893 36.0508C61.0518 36.2617 61.126 36.4766 61.2119 36.6953C61.2979 36.9141 61.3955 37.1055 61.5049 37.2695C61.6143 37.4336 61.7275 37.5156 61.8447 37.5156C61.9463 37.5156 62.0283 37.4609 62.0908 37.3516C62.1533 37.2422 62.2119 37.1172 62.2666 36.9766C62.3291 36.8359 62.3955 36.6992 62.4658 36.5664C62.5439 36.4336 62.6455 36.3438 62.7705 36.2969C63.0127 36.3203 63.2119 36.3672 63.3682 36.4375C63.5322 36.5078 63.6572 36.6055 63.7432 36.7305C63.8291 36.8477 63.8877 36.9961 63.9189 37.1758C63.958 37.3477 63.9775 37.5508 63.9775 37.7852ZM60.4736 27.0039C60.4736 26.8945 60.4502 26.7695 60.4033 26.6289C60.3564 26.4805 60.2979 26.332 60.2275 26.1836C60.1572 26.0352 60.0791 25.8945 59.9932 25.7617C59.915 25.6289 59.8369 25.5195 59.7588 25.4336C59.5947 25.4336 59.4854 25.4219 59.4307 25.3984C59.376 25.375 59.3408 25.3477 59.3252 25.3164C59.3096 25.2773 59.29 25.2344 59.2666 25.1875C59.251 25.1406 59.1963 25.0938 59.1025 25.0469C58.8291 24.9141 58.583 24.8125 58.3643 24.7422C58.1455 24.6719 57.8838 24.6367 57.5791 24.6367C57.4932 24.6367 57.4072 24.6602 57.3213 24.707C57.2432 24.7539 57.1729 24.7773 57.1104 24.7773C56.9307 24.7773 56.7549 24.7578 56.583 24.7188C56.4111 24.6719 56.2354 24.6484 56.0557 24.6484C55.7979 24.6484 55.5322 24.6797 55.2588 24.7422C55.0791 24.7891 54.8994 24.832 54.7197 24.8711C54.54 24.9102 54.3799 24.9688 54.2393 25.0469C54.0986 25.125 53.9814 25.2305 53.8877 25.3633C53.8018 25.4961 53.7588 25.6797 53.7588 25.9141C53.7588 26.1562 53.7822 26.3945 53.8291 26.6289C53.8838 26.8633 53.9111 27.1016 53.9111 27.3438C53.9111 27.4609 53.8916 27.5742 53.8525 27.6836C53.8213 27.793 53.7861 27.9023 53.7471 28.0117C53.708 28.1133 53.6689 28.2188 53.6299 28.3281C53.5986 28.4375 53.583 28.5508 53.583 28.668C53.583 28.8086 53.5947 28.9531 53.6182 29.1016C53.6494 29.2422 53.7002 29.3711 53.7705 29.4883C53.8408 29.5977 53.9307 29.6875 54.04 29.7578C54.1572 29.8281 54.3018 29.8633 54.4736 29.8633C54.6377 29.8633 54.7939 29.832 54.9424 29.7695C55.0908 29.6992 55.2471 29.6641 55.4111 29.6641C55.4971 29.6641 55.5791 29.6875 55.6572 29.7344C55.7354 29.7734 55.8135 29.8164 55.8916 29.8633C55.9697 29.9102 56.0518 29.957 56.1377 30.0039C56.2236 30.043 56.3174 30.0625 56.4189 30.0625C56.4971 30.0625 56.5713 30.0547 56.6416 30.0391C56.7119 30.0156 56.7783 29.9883 56.8408 29.957C57.1377 29.8242 57.4502 29.707 57.7783 29.6055C58.1143 29.4961 58.4463 29.4414 58.7744 29.4414C58.8604 29.4414 58.9619 29.3945 59.0791 29.3008C59.1963 29.1992 59.3174 29.0742 59.4424 28.9258C59.5674 28.7695 59.6924 28.6016 59.8174 28.4219C59.9424 28.2344 60.0518 28.0508 60.1455 27.8711C60.2471 27.6836 60.3252 27.5156 60.3799 27.3672C60.4424 27.2109 60.4736 27.0898 60.4736 27.0039ZM77.4893 38.8047C77.4893 38.8906 77.4658 38.9766 77.4189 39.0625C77.3721 39.1406 77.3135 39.2148 77.2432 39.2852C77.1729 39.3477 77.0947 39.4023 77.0088 39.4492C76.9229 39.4883 76.8408 39.5078 76.7627 39.5078C76.708 39.5078 76.6533 39.5039 76.5986 39.4961C76.5439 39.4883 76.4893 39.4844 76.4346 39.4844C76.3643 39.4844 76.3174 39.5078 76.2939 39.5547C76.2705 39.5938 76.2471 39.6367 76.2236 39.6836C76.208 39.7305 76.1807 39.7734 76.1416 39.8125C76.1025 39.8594 76.0322 39.8828 75.9307 39.8828C75.8682 39.8828 75.8018 39.875 75.7314 39.8594C75.6611 39.8438 75.5908 39.8359 75.5205 39.8359C75.3721 39.8359 75.2275 39.8633 75.0869 39.918C74.9541 39.9805 74.8096 40.0117 74.6533 40.0117C74.5205 40.0117 74.3213 39.9883 74.0557 39.9414C73.79 39.9023 73.5205 39.8359 73.2471 39.7422C72.9814 39.6562 72.7471 39.5508 72.5439 39.4258C72.3408 39.293 72.2393 39.1406 72.2393 38.9688C72.2393 38.8359 72.3135 38.7031 72.4619 38.5703C72.6182 38.4297 72.79 38.2773 72.9775 38.1133C73.165 37.9414 73.333 37.75 73.4814 37.5391C73.6377 37.3281 73.7158 37.082 73.7158 36.8008C73.7158 36.6367 73.6807 36.4766 73.6104 36.3203C73.5479 36.1641 73.4658 36.0195 73.3643 35.8867C73.2627 35.7461 73.1455 35.6172 73.0127 35.5C72.8877 35.3828 72.7666 35.2734 72.6494 35.1719C72.6104 35.1562 72.5518 35.1484 72.4736 35.1484C72.2627 35.1484 72.0518 35.1719 71.8408 35.2188C71.6299 35.2578 71.4189 35.2773 71.208 35.2773C71.0986 35.2773 70.9854 35.2617 70.8682 35.2305C70.7588 35.1992 70.6846 35.1211 70.6455 34.9961C70.4424 35.0977 70.2393 35.1953 70.0361 35.2891C69.833 35.375 69.626 35.4531 69.415 35.5234C69.2822 35.5703 69.1846 35.6055 69.1221 35.6289C69.0674 35.6523 69.0244 35.6797 68.9932 35.7109C68.9697 35.7422 68.9502 35.7891 68.9346 35.8516C68.9268 35.9141 68.8994 36.0039 68.8525 36.1211C68.8213 36.1992 68.8057 36.2695 68.8057 36.332C68.8057 36.3945 68.8057 36.4648 68.8057 36.543C68.8057 36.6445 68.7861 36.7266 68.7471 36.7891C68.708 36.8438 68.665 36.8984 68.6182 36.9531C68.5791 37 68.54 37.0508 68.501 37.1055C68.4619 37.1602 68.4424 37.2305 68.4424 37.3164C68.4424 37.3867 68.4541 37.4492 68.4775 37.5039L68.4658 37.5625C68.4658 37.6797 68.4971 37.7734 68.5596 37.8438C68.6221 37.9062 68.6963 37.957 68.7822 37.9961C68.876 38.0273 68.9736 38.0586 69.0752 38.0898C69.1768 38.1211 69.2666 38.1602 69.3447 38.207C69.4229 38.2539 69.4971 38.332 69.5674 38.4414C69.6455 38.543 69.7119 38.6562 69.7666 38.7812C69.8291 38.8984 69.8799 39.0195 69.9189 39.1445C69.958 39.2617 69.9775 39.3633 69.9775 39.4492V39.5078H69.8252C69.5127 39.5078 69.2002 39.5234 68.8877 39.5547C68.583 39.5781 68.2783 39.6055 67.9736 39.6367C67.6689 39.6758 67.3604 39.707 67.0479 39.7305C66.7432 39.7617 66.4346 39.7773 66.1221 39.7773C66.0127 39.7773 65.8525 39.7734 65.6416 39.7656C65.4385 39.7578 65.2354 39.7344 65.0322 39.6953C64.8291 39.6641 64.6494 39.6094 64.4932 39.5312C64.3447 39.4453 64.2705 39.3242 64.2705 39.168C64.2705 39.0039 64.3057 38.8672 64.376 38.7578C64.4541 38.6484 64.5518 38.5586 64.6689 38.4883C64.7939 38.4102 64.9307 38.3477 65.0791 38.3008C65.2354 38.2461 65.3877 38.1953 65.5361 38.1484C65.6924 38.1016 65.8369 38.0547 65.9697 38.0078C66.1104 37.9609 66.2275 37.8984 66.3213 37.8203C66.415 37.7422 66.4932 37.6172 66.5557 37.4453C66.6182 37.2656 66.6689 37.0742 66.708 36.8711C66.7471 36.668 66.7822 36.4688 66.8135 36.2734C66.8447 36.0703 66.8721 35.9102 66.8955 35.793C66.9033 35.7539 66.9072 35.707 66.9072 35.6523C66.915 35.5898 66.9189 35.5273 66.9189 35.4648C66.9268 35.4023 66.9307 35.3438 66.9307 35.2891C66.9385 35.2344 66.9502 35.1953 66.9658 35.1719C67.0439 35.0391 67.1025 34.9609 67.1416 34.9375C67.1885 34.9141 67.2197 34.8945 67.2354 34.8789C67.2588 34.8633 67.2705 34.8242 67.2705 34.7617C67.2783 34.6914 67.2822 34.5508 67.2822 34.3398C67.2822 34.2461 67.3018 34.1758 67.3408 34.1289C67.3799 34.0742 67.4189 34.0273 67.458 33.9883C67.5049 33.9492 67.5479 33.9141 67.5869 33.8828C67.626 33.8438 67.6455 33.793 67.6455 33.7305C67.6455 33.6211 67.6143 33.5234 67.5518 33.4375C67.4893 33.3438 67.458 33.2422 67.458 33.1328C67.458 33.0703 67.4736 33.0156 67.5049 32.9688C67.5361 32.9219 67.5713 32.8789 67.6104 32.8398C67.6572 32.8008 67.6963 32.7617 67.7275 32.7227C67.7588 32.6758 67.7744 32.6211 67.7744 32.5586C67.7744 32.4727 67.7549 32.3867 67.7158 32.3008C67.6846 32.2148 67.6689 32.1289 67.6689 32.043C67.6689 31.9805 67.6885 31.9375 67.7275 31.9141C67.7744 31.8828 67.8213 31.8594 67.8682 31.8438C67.9229 31.8281 67.9697 31.8164 68.0088 31.8086C68.0557 31.793 68.0791 31.7734 68.0791 31.75C68.0557 31.7031 68.0127 31.6797 67.9502 31.6797C67.8564 31.6797 67.8096 31.7305 67.8096 31.832C67.7549 31.793 67.708 31.75 67.6689 31.7031C67.6299 31.6484 67.6104 31.5898 67.6104 31.5273C67.6104 31.4492 67.6299 31.3789 67.6689 31.3164C67.708 31.2461 67.751 31.168 67.7979 31.082C67.8525 30.9961 67.8994 30.8984 67.9385 30.7891C67.9775 30.6797 67.9971 30.5469 67.9971 30.3906C67.9971 30.2266 67.9736 30.0703 67.9268 29.9219C67.8799 29.7656 67.8564 29.6094 67.8564 29.4531C67.8564 29.375 67.8721 29.2969 67.9033 29.2188C67.9424 29.1406 67.9854 29.0664 68.0322 28.9961C68.0869 28.918 68.1377 28.8438 68.1846 28.7734C68.2393 28.6953 68.2783 28.6133 68.3018 28.5273C68.3486 28.3789 68.3721 28.2227 68.3721 28.0586C68.3799 27.8945 68.3838 27.7305 68.3838 27.5664C68.3916 27.4023 68.4033 27.2422 68.4189 27.0859C68.4424 26.9219 68.4932 26.7695 68.5713 26.6289C68.6416 26.5039 68.6963 26.4023 68.7354 26.3242C68.7744 26.2461 68.8096 26.1719 68.8408 26.1016C68.8721 26.0234 68.8994 25.9414 68.9229 25.8555C68.9463 25.7617 68.9697 25.6406 68.9932 25.4922C69.0322 25.2656 69.0908 25.0469 69.1689 24.8359C69.2549 24.625 69.3135 24.4062 69.3447 24.1797C69.3604 24.0078 69.3682 23.8633 69.3682 23.7461C69.376 23.6211 69.3955 23.5117 69.4268 23.418C69.4658 23.3242 69.5283 23.2422 69.6143 23.1719C69.708 23.1016 69.8486 23.0312 70.0361 22.9609C70.2393 22.8906 70.4424 22.8438 70.6455 22.8203C70.8486 22.7891 71.0518 22.7734 71.2549 22.7734C71.4893 22.7734 71.7314 22.7852 71.9814 22.8086C72.0049 22.9414 72.0557 23.0625 72.1338 23.1719C72.2119 23.2734 72.2939 23.375 72.3799 23.4766C72.4736 23.5781 72.5596 23.6836 72.6377 23.793C72.7236 23.8945 72.7822 24.0117 72.8135 24.1445C72.8525 24.3242 72.876 24.4961 72.8838 24.6602C72.8994 24.8164 72.9658 24.9727 73.083 25.1289C73.1377 25.2148 73.165 25.3164 73.165 25.4336C73.165 25.6133 73.1416 25.7852 73.0947 25.9492C73.0479 26.1133 73.0244 26.2812 73.0244 26.4531C73.0244 26.5547 73.0557 26.7227 73.1182 26.957C73.1807 27.1914 73.2549 27.4453 73.3408 27.7188C73.4268 27.9844 73.5088 28.2461 73.5869 28.5039C73.665 28.7539 73.7236 28.9492 73.7627 29.0898C73.833 29.3867 73.8682 29.6914 73.8682 30.0039C73.876 30.3164 73.9268 30.6211 74.0205 30.918C74.1143 31.2305 74.1963 31.543 74.2666 31.8555C74.3369 32.1602 74.3838 32.4766 74.4072 32.8047C74.4229 33.1094 74.4619 33.4062 74.5244 33.6953C74.5869 33.9766 74.6533 34.2617 74.7236 34.5508C74.7939 34.832 74.8564 35.1172 74.9111 35.4062C74.9736 35.6953 75.0049 35.9961 75.0049 36.3086C75.0049 36.4258 74.9932 36.5469 74.9697 36.6719C74.9541 36.7969 74.9033 36.9062 74.8174 37C74.9814 37.1953 75.165 37.4062 75.3682 37.6328C75.5791 37.8594 75.7861 38.0391 75.9893 38.1719C76.0674 38.2188 76.1885 38.2539 76.3525 38.2773C76.5166 38.3008 76.6807 38.332 76.8447 38.3711C77.0166 38.4023 77.165 38.4531 77.29 38.5234C77.4229 38.5859 77.4893 38.6797 77.4893 38.8047ZM72.5791 32.4883C72.5791 32.418 72.5518 32.3281 72.4971 32.2188C72.4424 32.1016 72.3799 31.9727 72.3096 31.832C72.2471 31.6914 72.1885 31.5391 72.1338 31.375C72.0791 31.2109 72.0518 31.0391 72.0518 30.8594C72.0518 30.6484 72.0205 30.4414 71.958 30.2383C71.8955 30.0273 71.8525 29.8164 71.8291 29.6055C71.8135 29.4336 71.7939 29.2461 71.7705 29.043C71.7549 28.832 71.7158 28.6367 71.6533 28.457C71.5908 28.2695 71.4932 28.1172 71.3604 28C71.2354 27.875 71.0518 27.8125 70.8096 27.8125C70.7939 27.875 70.7666 27.9219 70.7275 27.9531C70.6885 27.9766 70.6416 28 70.5869 28.0234C70.54 28.0391 70.4893 28.0547 70.4346 28.0703C70.3799 28.0859 70.3369 28.1133 70.3057 28.1523C70.3135 28.1758 70.3174 28.2109 70.3174 28.2578C70.3174 28.3984 70.2861 28.5312 70.2236 28.6562C70.1689 28.7734 70.1182 28.8945 70.0713 29.0195C70.0166 29.1523 69.9775 29.293 69.9541 29.4414C69.9385 29.582 69.9307 29.7227 69.9307 29.8633C69.9307 29.9883 69.9346 30.1094 69.9424 30.2266C69.9502 30.3438 69.9541 30.4609 69.9541 30.5781C69.9541 30.7578 69.9385 30.9141 69.9072 31.0469C69.876 31.1719 69.8408 31.2891 69.8018 31.3984C69.7627 31.5078 69.7275 31.6133 69.6963 31.7148C69.665 31.8086 69.6494 31.9102 69.6494 32.0195C69.6494 32.2539 69.6572 32.457 69.6729 32.6289C69.6885 32.8008 69.7236 32.9453 69.7783 33.0625C69.833 33.1719 69.9111 33.2578 70.0127 33.3203C70.1143 33.375 70.2549 33.4023 70.4346 33.4023C70.5596 33.4023 70.7393 33.3867 70.9736 33.3555C71.2158 33.3242 71.4541 33.2734 71.6885 33.2031C71.9307 33.125 72.1377 33.0273 72.3096 32.9102C72.4893 32.793 72.5791 32.6523 72.5791 32.4883ZM88.7393 24.1211C88.7393 24.207 88.708 24.2852 88.6455 24.3555C88.5908 24.4258 88.5205 24.4961 88.4346 24.5664C88.3564 24.6289 88.2744 24.6875 88.1885 24.7422C88.1025 24.7969 88.0322 24.8477 87.9775 24.8945C87.8447 25.0039 87.6846 25.0586 87.4971 25.0586C87.3721 25.0586 87.251 25.043 87.1338 25.0117C87.0244 24.9805 86.9072 24.9648 86.7822 24.9648C86.7275 24.9648 86.6846 24.9766 86.6533 25C86.5518 25.0625 86.4541 25.0977 86.3604 25.1055C86.2666 25.1133 86.165 25.1172 86.0557 25.1172C85.9932 25.1172 85.9072 25.0898 85.7979 25.0352C85.6963 24.9727 85.6416 24.9102 85.6338 24.8477L85.7158 24.7656C85.6299 24.7969 85.5713 24.832 85.54 24.8711C85.5088 24.9102 85.4854 24.9531 85.4697 25C85.4619 25.0469 85.4541 25.0977 85.4463 25.1523C85.4385 25.207 85.4189 25.2617 85.3877 25.3164C85.3486 25.3945 85.2861 25.4414 85.2002 25.457C85.1221 25.4727 85.04 25.5078 84.9541 25.5625C84.876 25.6172 84.8057 25.7188 84.7432 25.8672C84.6807 26.0078 84.6494 26.2461 84.6494 26.582C84.6494 26.7305 84.6572 26.875 84.6729 27.0156C84.6885 27.1562 84.6963 27.2969 84.6963 27.4375C84.6963 27.7188 84.6729 28 84.626 28.2812C84.5791 28.5547 84.5557 28.8359 84.5557 29.125C84.5557 29.2969 84.5283 29.4609 84.4736 29.6172C84.4268 29.7734 84.4033 29.9375 84.4033 30.1094C84.4033 30.3516 84.5049 30.5195 84.708 30.6133C84.6533 30.6367 84.6104 30.6992 84.5791 30.8008C84.5479 30.8945 84.5205 31.0039 84.4971 31.1289C84.4814 31.2461 84.4697 31.3633 84.4619 31.4805C84.4619 31.5898 84.4619 31.668 84.4619 31.7148C84.4619 31.7461 84.4619 31.7891 84.4619 31.8438C84.4619 31.8984 84.4658 31.957 84.4736 32.0195C84.4814 32.0742 84.4893 32.1289 84.4971 32.1836C84.5049 32.2305 84.5205 32.2656 84.5439 32.2891C84.6064 32.3516 84.6377 32.4297 84.6377 32.5234C84.6377 32.6172 84.6221 32.7109 84.5908 32.8047C84.5596 32.8906 84.5439 32.9805 84.5439 33.0742C84.5439 33.457 84.5674 33.8398 84.6143 34.2227C84.6689 34.5977 84.6963 34.9766 84.6963 35.3594C84.6963 35.6094 84.6689 35.8594 84.6143 36.1094C84.5674 36.3594 84.5439 36.6094 84.5439 36.8594C84.5439 37.0859 84.583 37.2656 84.6611 37.3984C84.7393 37.5312 84.8447 37.6328 84.9775 37.7031C85.1104 37.7734 85.2627 37.8203 85.4346 37.8438C85.6064 37.8672 85.7861 37.8789 85.9736 37.8789C86.2705 37.8789 86.5635 37.8555 86.8525 37.8086C87.1494 37.7539 87.4424 37.7266 87.7314 37.7266C88.0205 37.7266 88.2432 37.8164 88.3994 37.9961C88.5635 38.1758 88.6455 38.4062 88.6455 38.6875C88.6455 38.8984 88.6104 39.0977 88.54 39.2852C88.4775 39.4648 88.3838 39.6211 88.2588 39.7539C88.1416 39.8945 87.9971 40.0039 87.8252 40.082C87.6533 40.1602 87.458 40.1992 87.2393 40.1992C87.083 40.1992 86.9072 40.1797 86.7119 40.1406C86.3994 40.0781 86.0869 40.0312 85.7744 40C85.4619 39.9766 85.1416 39.9648 84.8135 39.9648C84.54 39.9648 84.2666 39.9688 83.9932 39.9766C83.7197 39.9922 83.4463 40 83.1729 40C82.8447 40 82.5205 39.9961 82.2002 39.9883C81.8799 39.9805 81.5557 39.9766 81.2275 39.9766C81.1104 39.9766 80.9971 39.957 80.8877 39.918C80.7783 39.8789 80.6689 39.8594 80.5596 39.8594C80.4814 39.8594 80.3916 39.8711 80.29 39.8945C80.1885 39.9258 80.0791 39.957 79.9619 39.9883C79.8525 40.0195 79.7354 40.0469 79.6104 40.0703C79.4854 40.1016 79.3604 40.1172 79.2354 40.1172C78.9463 40.1172 78.6963 40.0508 78.4854 39.918C78.2744 39.793 78.1689 39.5703 78.1689 39.25C78.1689 39.1484 78.1807 39.0508 78.2041 38.957C78.2119 38.8867 78.2471 38.7891 78.3096 38.6641C78.3799 38.5391 78.458 38.418 78.5439 38.3008C78.6377 38.1758 78.7314 38.0703 78.8252 37.9844C78.9268 37.8984 79.0166 37.8555 79.0947 37.8555C79.1572 37.8555 79.2158 37.8711 79.2705 37.9023C79.333 37.9336 79.3994 37.9727 79.4697 38.0195C79.5479 38.0586 79.6377 38.0938 79.7393 38.125C79.8408 38.1562 79.9619 38.1719 80.1025 38.1719C80.3838 38.1719 80.6768 38.1445 80.9814 38.0898C81.2861 38.0352 81.5635 37.9414 81.8135 37.8086C82.0713 37.668 82.2822 37.4883 82.4463 37.2695C82.6104 37.043 82.6924 36.7617 82.6924 36.4258C82.6924 36.3008 82.6846 36.1797 82.6689 36.0625C82.6533 35.9375 82.6377 35.8125 82.6221 35.6875C82.5752 35.2812 82.5479 34.8711 82.54 34.457C82.5322 34.043 82.5283 33.6289 82.5283 33.2148C82.5283 32.9414 82.5635 32.6797 82.6338 32.4297C82.7041 32.1719 82.7393 31.9062 82.7393 31.6328C82.7393 31.4766 82.7119 31.3281 82.6572 31.1875C82.6025 31.0469 82.5752 30.9023 82.5752 30.7539C82.5752 30.6836 82.583 30.6133 82.5986 30.543C82.6221 30.4727 82.6338 30.3984 82.6338 30.3203C82.6338 30.1484 82.6143 29.9844 82.5752 29.8281C82.5439 29.6641 82.5283 29.5 82.5283 29.3359C82.5283 29.0625 82.5557 28.7891 82.6104 28.5156C82.6729 28.2422 82.7041 27.9688 82.7041 27.6953C82.7041 27.5312 82.6846 27.3672 82.6455 27.2031C82.6064 27.0391 82.5635 26.8789 82.5166 26.7227C82.4775 26.5664 82.4385 26.4062 82.3994 26.2422C82.3604 26.0781 82.3408 25.9141 82.3408 25.75C82.3408 25.6484 82.3525 25.543 82.376 25.4336C82.3291 25.3242 82.2627 25.2383 82.1768 25.1758C82.0908 25.1133 81.9971 25.0547 81.8955 25C81.7939 24.9453 81.6924 24.8906 81.5908 24.8359C81.4971 24.7812 81.4229 24.7031 81.3682 24.6016C81.3057 24.6094 81.2666 24.6406 81.251 24.6953C81.2354 24.7422 81.2236 24.7969 81.2158 24.8594C81.208 24.9141 81.1924 24.9688 81.1689 25.0234C81.1533 25.0703 81.1104 25.0977 81.04 25.1055C80.8213 25.1289 80.5986 25.1484 80.3721 25.1641C80.1533 25.1797 79.9346 25.1875 79.7158 25.1875C79.5908 25.1875 79.4346 25.1797 79.2471 25.1641C79.0674 25.1484 78.8916 25.1133 78.7197 25.0586C78.5557 25.0039 78.415 24.9258 78.2979 24.8242C78.1807 24.7227 78.1221 24.582 78.1221 24.4023C78.1221 24.293 78.1455 24.1797 78.1924 24.0625C78.2471 23.9375 78.3096 23.8164 78.3799 23.6992C78.458 23.582 78.54 23.4727 78.626 23.3711C78.7197 23.2617 78.8018 23.168 78.8721 23.0898C78.9268 23.0352 79.0088 22.9883 79.1182 22.9492C79.2275 22.9102 79.3486 22.8828 79.4814 22.8672C79.6221 22.8516 79.7705 22.8398 79.9268 22.832C80.083 22.8242 80.2393 22.8203 80.3955 22.8203C80.5908 22.8203 80.7705 22.8242 80.9346 22.832C81.1064 22.832 81.2471 22.832 81.3564 22.832C81.5518 22.832 81.79 22.8281 82.0713 22.8203C82.3604 22.8047 82.6338 22.7852 82.8916 22.7617C83.1572 22.7383 83.3838 22.7148 83.5713 22.6914C83.7666 22.6602 83.8682 22.6289 83.876 22.5977C83.9229 22.6211 83.9775 22.6602 84.04 22.7148C84.1104 22.7617 84.1807 22.8086 84.251 22.8555C84.3291 22.9023 84.4033 22.9453 84.4736 22.9844C84.5439 23.0234 84.5986 23.043 84.6377 23.043C84.6846 23.043 84.7197 23.0273 84.7432 22.9961C84.7744 22.957 84.7979 22.9141 84.8135 22.8672C84.8369 22.8203 84.8525 22.7734 84.8604 22.7266C84.8682 22.6719 84.8721 22.6289 84.8721 22.5977H84.9541C85.126 22.5977 85.2393 22.6484 85.2939 22.75C85.3564 22.8516 85.3877 22.9727 85.3877 23.1133C85.3877 23.1445 85.3838 23.1719 85.376 23.1953C85.376 23.2188 85.376 23.2422 85.376 23.2656C85.4541 23.25 85.5088 23.2148 85.54 23.1602C85.5791 23.0977 85.6104 23.0352 85.6338 22.9727C85.6572 22.9102 85.6846 22.8555 85.7158 22.8086C85.7549 22.7617 85.8174 22.7383 85.9033 22.7383C85.9346 22.7383 85.9814 22.7461 86.0439 22.7617H86.126C86.2979 22.9023 86.4307 23.0117 86.5244 23.0898C86.626 23.168 86.7041 23.2266 86.7588 23.2656C86.8135 23.2969 86.8486 23.3164 86.8643 23.3242C86.8799 23.332 86.8916 23.3359 86.8994 23.3359C86.915 23.3359 86.9424 23.3398 86.9814 23.3477C87.0283 23.3555 87.0518 23.3555 87.0518 23.3477C87.0518 23.3164 87.0322 23.2891 86.9932 23.2656C86.9619 23.2344 86.9229 23.2031 86.876 23.1719C86.8369 23.1406 86.7979 23.1055 86.7588 23.0664C86.7275 23.0273 86.7119 22.9844 86.7119 22.9375C86.8057 22.9375 86.8799 22.9258 86.9346 22.9023C86.9893 22.8711 87.0361 22.8398 87.0752 22.8086C87.1143 22.7695 87.1533 22.7344 87.1924 22.7031C87.2393 22.6719 87.2979 22.6562 87.3682 22.6562C87.4697 22.6562 87.5479 22.6719 87.6025 22.7031C87.6572 22.7344 87.7041 22.7695 87.7432 22.8086C87.7822 22.8398 87.8174 22.8711 87.8486 22.9023C87.8799 22.9336 87.9229 22.9492 87.9775 22.9492C88.0166 22.9492 88.0479 22.9453 88.0713 22.9375C88.1025 22.9297 88.1377 22.9258 88.1768 22.9258C88.2314 22.9258 88.2666 22.9492 88.2822 22.9961C88.2979 23.043 88.3096 23.0859 88.3174 23.125C88.3408 23.2422 88.3604 23.332 88.376 23.3945C88.3916 23.457 88.4111 23.5117 88.4346 23.5586C88.458 23.6055 88.4854 23.6562 88.5166 23.7109C88.5557 23.7578 88.6064 23.8281 88.6689 23.9219C88.7158 23.9844 88.7393 24.0508 88.7393 24.1211ZM82.8682 24.8945C82.915 24.832 82.9033 24.7617 82.833 24.6836C82.7627 24.6055 82.6846 24.5664 82.5986 24.5664C82.5049 24.5664 82.4424 24.6133 82.4111 24.707C82.3877 24.793 82.376 24.8711 82.376 24.9414C82.3916 24.9961 82.415 25.0391 82.4463 25.0703C82.4697 25.1016 82.4971 25.1289 82.5283 25.1523C82.5596 25.1758 82.5947 25.1875 82.6338 25.1875C82.6963 25.1875 82.7432 25.1758 82.7744 25.1523C82.8057 25.1211 82.8291 25.0859 82.8447 25.0469C82.8604 25.0078 82.8682 24.957 82.8682 24.8945ZM103.634 24.2383C103.634 24.3086 103.614 24.3867 103.575 24.4727C103.544 24.5586 103.485 24.6016 103.399 24.6016C103.368 24.6016 103.337 24.5859 103.306 24.5547C103.282 24.5234 103.259 24.4883 103.235 24.4492C103.212 24.4102 103.185 24.375 103.153 24.3438C103.13 24.3125 103.103 24.293 103.071 24.2852C103.079 24.4336 103.079 24.5469 103.071 24.625C103.063 24.7031 103.052 24.7617 103.036 24.8008C103.021 24.832 102.997 24.8516 102.966 24.8594C102.942 24.8594 102.915 24.8594 102.884 24.8594C102.821 24.8594 102.763 24.8633 102.708 24.8711C102.653 24.8789 102.599 24.8906 102.544 24.9062C102.364 24.9453 102.228 24.9727 102.134 24.9883C102.048 24.9961 101.985 25.0195 101.946 25.0586C101.907 25.0977 101.884 25.1602 101.876 25.2461C101.868 25.332 101.856 25.4688 101.841 25.6562C101.825 25.7969 101.813 25.9375 101.806 26.0781C101.798 26.2109 101.794 26.3477 101.794 26.4883C101.794 26.8633 101.81 27.2305 101.841 27.5898C101.88 27.9492 101.899 28.3164 101.899 28.6914C101.899 28.8711 101.884 29.0469 101.853 29.2188C101.829 29.3906 101.817 29.5664 101.817 29.7461C101.817 29.9023 101.849 30.0586 101.911 30.2148C101.981 30.3633 102.017 30.5039 102.017 30.6367C102.017 30.6758 102.001 30.7148 101.97 30.7539C101.946 30.7852 101.915 30.8203 101.876 30.8594C101.845 30.8984 101.813 30.9414 101.782 30.9883C101.759 31.0352 101.747 31.0898 101.747 31.1523C101.747 31.3164 101.774 31.4766 101.829 31.6328C101.892 31.7812 101.923 31.9375 101.923 32.1016C101.923 32.3516 101.907 32.6016 101.876 32.8516C101.845 33.1016 101.81 33.3516 101.771 33.6016C101.739 33.8516 101.708 34.1016 101.677 34.3516C101.646 34.6016 101.63 34.8516 101.63 35.1016C101.63 35.3047 101.642 35.5 101.665 35.6875C101.696 35.8672 101.747 36.0469 101.817 36.2266C101.833 36.2656 101.849 36.3086 101.864 36.3555C101.88 36.4023 101.888 36.4453 101.888 36.4844C101.888 36.5859 101.86 36.6719 101.806 36.7422C101.759 36.8047 101.735 36.8594 101.735 36.9062C101.735 36.9453 101.759 36.9922 101.806 37.0469C101.86 37.1016 101.896 37.1523 101.911 37.1992C101.966 37.3789 102.009 37.5781 102.04 37.7969C102.071 38.0078 102.087 38.207 102.087 38.3945C102.087 38.5586 102.044 38.7188 101.958 38.875C101.872 39.0312 101.759 39.1719 101.618 39.2969C101.478 39.4141 101.317 39.5117 101.138 39.5898C100.966 39.668 100.79 39.707 100.61 39.707C100.368 39.707 100.161 39.6328 99.9893 39.4844C99.8252 39.3359 99.6807 39.1562 99.5557 38.9453C99.4385 38.7266 99.3291 38.5 99.2275 38.2656C99.1338 38.0312 99.04 37.8281 98.9463 37.6562C98.8682 37.5156 98.8057 37.3828 98.7588 37.2578C98.7197 37.125 98.6768 36.9961 98.6299 36.8711C98.583 36.7461 98.5244 36.625 98.4541 36.5078C98.3838 36.3828 98.2861 36.2617 98.1611 36.1445C98.0596 36.0508 97.9814 35.9414 97.9268 35.8164C97.8721 35.6836 97.8252 35.5469 97.7861 35.4062C97.7549 35.2578 97.7236 35.1133 97.6924 34.9727C97.6689 34.8242 97.6416 34.6875 97.6104 34.5625C97.5244 34.2578 97.4229 33.957 97.3057 33.6602C97.1885 33.3633 97.0752 33.0664 96.9658 32.7695C96.9268 32.6758 96.876 32.5703 96.8135 32.4531C96.7588 32.3359 96.7002 32.2188 96.6377 32.1016C96.5752 31.9844 96.5166 31.8711 96.4619 31.7617C96.415 31.6523 96.3877 31.5508 96.3799 31.457C96.3486 31.1992 96.2822 30.9688 96.1807 30.7656C96.0791 30.5547 95.9697 30.3555 95.8525 30.168C95.7354 29.9805 95.6221 29.7891 95.5127 29.5938C95.4033 29.3984 95.3291 29.1797 95.29 28.9375C95.2744 28.8594 95.2471 28.7578 95.208 28.6328C95.1689 28.5 95.1182 28.3711 95.0557 28.2461C94.9932 28.1133 94.9189 28 94.833 27.9062C94.7471 27.8125 94.6572 27.7656 94.5635 27.7656C94.4775 27.7656 94.4072 27.8086 94.3525 27.8945C94.3057 27.9727 94.2666 28.0703 94.2354 28.1875C94.2041 28.2969 94.1807 28.4102 94.165 28.5273C94.1572 28.6367 94.1533 28.7188 94.1533 28.7734C94.1533 28.9297 94.1611 29.0859 94.1768 29.2422C94.2002 29.3984 94.2119 29.5547 94.2119 29.7109C94.2119 29.8281 94.1885 29.9414 94.1416 30.0508C94.0947 30.1602 94.0713 30.2695 94.0713 30.3789C94.0713 30.4492 94.0947 30.5078 94.1416 30.5547C94.1963 30.6016 94.2236 30.6562 94.2236 30.7188C94.2236 30.7812 94.2158 30.8438 94.2002 30.9062C94.1846 30.9609 94.1768 31.0195 94.1768 31.082C94.1768 31.2773 94.1846 31.4688 94.2002 31.6562C94.2236 31.8438 94.2354 32.0312 94.2354 32.2188C94.2354 32.3516 94.2275 32.4883 94.2119 32.6289C94.1963 32.7617 94.165 32.8867 94.1182 33.0039C94.0713 33.1211 94.001 33.2227 93.9072 33.3086C93.8135 33.3867 93.6924 33.4375 93.5439 33.4609C93.5752 33.5234 93.6143 33.5664 93.6611 33.5898C93.7158 33.6055 93.7705 33.6172 93.8252 33.625C93.8799 33.6328 93.9268 33.6445 93.9658 33.6602C94.0049 33.6758 94.0244 33.7188 94.0244 33.7891C94.0244 33.8281 94.0205 33.8633 94.0127 33.8945C94.0127 33.918 94.0127 33.9453 94.0127 33.9766C94.0127 34.0625 94.0283 34.1328 94.0596 34.1875C94.0986 34.2422 94.1416 34.2969 94.1885 34.3516C94.2354 34.3984 94.2744 34.4492 94.3057 34.5039C94.3447 34.5508 94.3643 34.6133 94.3643 34.6914C94.3643 34.7852 94.3525 34.875 94.3291 34.9609C94.3057 35.0469 94.2939 35.1328 94.2939 35.2188C94.2939 35.4062 94.3174 35.5898 94.3643 35.7695C94.4111 35.9414 94.4346 36.1211 94.4346 36.3086C94.4346 36.4102 94.4229 36.4844 94.3994 36.5312C94.3838 36.5703 94.3604 36.6016 94.3291 36.625C94.3057 36.6484 94.2822 36.668 94.2588 36.6836C94.2432 36.6914 94.2354 36.7188 94.2354 36.7656C94.2354 36.8438 94.2471 36.918 94.2705 36.9883C94.2939 37.0508 94.3057 37.1211 94.3057 37.1992C94.3057 37.2461 94.2979 37.293 94.2822 37.3398C94.2744 37.3867 94.251 37.4297 94.2119 37.4688C94.2197 37.5625 94.251 37.6289 94.3057 37.668C94.3604 37.707 94.4229 37.7422 94.4932 37.7734C94.5713 37.8047 94.6455 37.8398 94.7158 37.8789C94.7861 37.9102 94.8408 37.9688 94.8799 38.0547C94.9111 38.125 94.9424 38.1914 94.9736 38.2539C95.0127 38.3086 95.0752 38.3359 95.1611 38.3359C95.2939 38.3359 95.415 38.3086 95.5244 38.2539C95.6338 38.1914 95.751 38.1602 95.876 38.1602C96.0791 38.1602 96.2197 38.2422 96.2979 38.4062C96.376 38.5625 96.415 38.7266 96.415 38.8984C96.415 39.1172 96.376 39.2734 96.2979 39.3672C96.2275 39.4531 96.1455 39.5195 96.0518 39.5664C95.9658 39.6055 95.8838 39.6445 95.8057 39.6836C95.7354 39.7227 95.7002 39.7969 95.7002 39.9062C95.7002 39.9219 95.7002 39.9336 95.7002 39.9414C95.708 39.9492 95.7119 39.9609 95.7119 39.9766C95.6025 39.9062 95.4854 39.8555 95.3604 39.8242C95.2432 39.793 95.1182 39.7773 94.9854 39.7773C94.751 39.7773 94.5166 39.8086 94.2822 39.8711C94.0557 39.9414 93.8252 39.9766 93.5908 39.9766C93.4189 39.9766 93.251 39.9609 93.0869 39.9297C92.9229 39.8984 92.7549 39.8828 92.583 39.8828C92.4736 39.8828 92.3643 39.8945 92.2549 39.918C92.1533 39.9492 92.0479 39.9648 91.9385 39.9648C91.8291 39.9648 91.6846 39.9375 91.5049 39.8828C91.3252 39.8359 91.1494 39.7695 90.9775 39.6836C90.8057 39.6055 90.6572 39.5195 90.5322 39.4258C90.415 39.3242 90.3564 39.2305 90.3564 39.1445C90.3564 38.9102 90.4346 38.6992 90.5908 38.5117C90.7471 38.3164 90.9424 38.1992 91.1768 38.1602C91.2939 38.1367 91.4229 38.125 91.5635 38.125C91.7119 38.125 91.8564 38.1211 91.9971 38.1133C92.1377 38.0977 92.2705 38.0703 92.3955 38.0312C92.5205 37.9844 92.626 37.9062 92.7119 37.7969C92.6807 37.6797 92.665 37.5469 92.665 37.3984C92.665 37.125 92.7002 36.8594 92.7705 36.6016C92.8408 36.3438 92.876 36.0781 92.876 35.8047C92.876 35.6953 92.8643 35.582 92.8408 35.4648C92.7471 34.9258 92.7002 34.3828 92.7002 33.8359C92.7002 33.6797 92.7041 33.5234 92.7119 33.3672C92.7197 33.2031 92.7236 33.043 92.7236 32.8867C92.7236 32.4805 92.6924 32.0781 92.6299 31.6797C92.5752 31.2812 92.54 30.8789 92.5244 30.4727C92.5088 30.043 92.501 29.6211 92.501 29.207C92.501 28.7852 92.458 28.3633 92.3721 27.9414C92.3486 27.832 92.333 27.7266 92.3252 27.625C92.3252 27.5234 92.3252 27.418 92.3252 27.3086V26.8867C92.3252 26.5586 92.3096 26.3125 92.2783 26.1484C92.2471 25.9844 92.1924 25.8672 92.1143 25.7969C92.0361 25.7188 91.9346 25.6719 91.8096 25.6562C91.6924 25.6328 91.5439 25.6094 91.3643 25.5859C91.2627 25.5703 91.1572 25.5195 91.0479 25.4336C90.9463 25.3477 90.8486 25.2461 90.7549 25.1289C90.6689 25.0117 90.5947 24.8906 90.5322 24.7656C90.4775 24.6406 90.4502 24.5273 90.4502 24.4258V24.168C90.4502 23.8555 90.4971 23.6172 90.5908 23.4531C90.6846 23.2812 90.8135 23.1562 90.9775 23.0781C91.1416 22.9922 91.333 22.9414 91.5518 22.9258C91.7783 22.9102 92.0205 22.9023 92.2783 22.9023C92.5361 22.9023 92.8018 22.9141 93.0752 22.9375C93.3564 22.9531 93.626 22.9961 93.8838 23.0664C94.1416 23.1289 94.376 23.2266 94.5869 23.3594C94.7979 23.4844 94.9697 23.6562 95.1025 23.875C95.1885 24.0234 95.2627 24.1797 95.3252 24.3438C95.3877 24.5 95.4463 24.6602 95.501 24.8242C95.5557 24.9883 95.6104 25.1523 95.665 25.3164C95.7197 25.4727 95.79 25.625 95.876 25.7734C95.915 25.8438 95.9424 25.9219 95.958 26.0078C95.9814 26.0859 96.001 26.168 96.0166 26.2539C96.04 26.332 96.0635 26.4102 96.0869 26.4883C96.1104 26.5586 96.1455 26.6289 96.1924 26.6992C96.2471 26.7617 96.3096 26.8281 96.3799 26.8984C96.458 26.9609 96.5166 27.0312 96.5557 27.1094C96.626 27.2656 96.6729 27.4297 96.6963 27.6016C96.7275 27.7656 96.7549 27.9336 96.7783 28.1055C96.8018 28.2695 96.8252 28.4375 96.8486 28.6094C96.8799 28.7734 96.9307 28.9336 97.001 29.0898C97.0479 29.1836 97.0908 29.2617 97.1299 29.3242C97.1768 29.3867 97.2158 29.4492 97.2471 29.5117C97.2861 29.5664 97.3174 29.6328 97.3408 29.7109C97.3721 29.7812 97.3955 29.875 97.4111 29.9922C97.4268 30.1641 97.4424 30.3359 97.458 30.5078C97.4736 30.6719 97.5127 30.8359 97.5752 31C97.6221 31.1172 97.6846 31.2266 97.7627 31.3281C97.8408 31.4297 97.9189 31.5312 97.9971 31.6328C98.083 31.7266 98.165 31.8242 98.2432 31.9258C98.3213 32.0273 98.3799 32.1406 98.4189 32.2656C98.4971 32.5 98.5713 32.7188 98.6416 32.9219C98.7119 33.125 98.8486 33.3047 99.0518 33.4609C99.0049 33.5312 98.9619 33.6094 98.9229 33.6953C98.8916 33.7734 98.876 33.8555 98.876 33.9414C98.876 34.1055 98.915 34.2695 98.9932 34.4336C99.0791 34.5898 99.1533 34.7422 99.2158 34.8906C99.2627 35.0078 99.3096 35.1094 99.3564 35.1953C99.4111 35.2812 99.501 35.3555 99.626 35.418C99.7354 35.4727 99.8096 35.5234 99.8486 35.5703C99.8877 35.6094 99.9111 35.6562 99.9189 35.7109C99.9268 35.7578 99.9268 35.8164 99.9189 35.8867C99.9189 35.9492 99.9307 36.0312 99.9541 36.1328C99.9619 36.1797 99.9775 36.2383 100.001 36.3086C100.024 36.3711 100.052 36.4375 100.083 36.5078C100.122 36.5703 100.165 36.625 100.212 36.6719C100.259 36.7188 100.31 36.7422 100.364 36.7422C100.411 36.7422 100.446 36.7266 100.47 36.6953C100.493 36.6562 100.513 36.6133 100.528 36.5664C100.544 36.5195 100.552 36.4727 100.552 36.4258C100.56 36.3711 100.563 36.3281 100.563 36.2969C100.563 36.1875 100.591 36.0898 100.646 36.0039C100.708 35.9102 100.739 35.8047 100.739 35.6875C100.739 35.5547 100.708 35.4336 100.646 35.3242C100.591 35.2148 100.563 35.0938 100.563 34.9609C100.563 34.8516 100.583 34.7539 100.622 34.668C100.669 34.5742 100.692 34.4727 100.692 34.3633C100.692 34.2852 100.661 34.2188 100.599 34.1641C100.544 34.1094 100.517 34.0547 100.517 34C100.517 33.9766 100.528 33.9648 100.552 33.9648C100.575 33.957 100.599 33.9492 100.622 33.9414C100.646 33.9336 100.669 33.9219 100.692 33.9062C100.716 33.8828 100.728 33.8438 100.728 33.7891C100.728 33.6016 100.704 33.4219 100.657 33.25C100.618 33.0703 100.571 32.8906 100.517 32.7109C100.462 32.5312 100.411 32.3516 100.364 32.1719C100.325 31.9844 100.306 31.7969 100.306 31.6094C100.306 31.4219 100.345 31.2578 100.423 31.1172C100.501 30.9766 100.54 30.8828 100.54 30.8359C100.54 30.7344 100.513 30.6445 100.458 30.5664C100.411 30.4805 100.388 30.3867 100.388 30.2852C100.388 30.168 100.415 30.0586 100.47 29.957C100.532 29.8477 100.563 29.7344 100.563 29.6172C100.563 29.5469 100.548 29.4805 100.517 29.418C100.485 29.3477 100.45 29.2773 100.411 29.207C100.372 29.1367 100.333 29.0664 100.294 28.9961C100.263 28.918 100.239 28.8438 100.224 28.7734C100.2 28.6562 100.185 28.5352 100.177 28.4102C100.177 28.2852 100.177 28.1602 100.177 28.0352V27.5312C100.177 27.3203 100.165 27.1172 100.142 26.9219C100.126 26.7188 100.091 26.5156 100.036 26.3125C99.9893 26.125 99.9619 25.9531 99.9541 25.7969C99.9463 25.6406 99.9229 25.5039 99.8838 25.3867C99.8447 25.2695 99.7705 25.1758 99.6611 25.1055C99.5518 25.0273 99.3721 24.9805 99.1221 24.9648C98.9424 24.9492 98.7627 24.9414 98.583 24.9414C98.4033 24.9336 98.2236 24.9062 98.0439 24.8594C97.9268 24.8281 97.8369 24.7617 97.7744 24.6602C97.7197 24.5586 97.6807 24.4453 97.6572 24.3203C97.6338 24.1953 97.6221 24.0703 97.6221 23.9453C97.6221 23.8125 97.6221 23.707 97.6221 23.6289C97.6221 23.4805 97.6924 23.3594 97.833 23.2656C97.9814 23.1641 98.1533 23.082 98.3486 23.0195C98.5518 22.957 98.7549 22.9141 98.958 22.8906C99.1611 22.8594 99.3174 22.8438 99.4268 22.8438C99.4971 22.8438 99.6221 22.8477 99.8018 22.8555C99.9814 22.8633 100.181 22.8789 100.399 22.9023C100.618 22.9258 100.845 22.957 101.079 22.9961C101.313 23.0273 101.528 23.0742 101.724 23.1367C101.919 23.1914 102.079 23.2578 102.204 23.3359C102.329 23.4141 102.392 23.5039 102.392 23.6055C102.462 23.5273 102.54 23.4609 102.626 23.4062C102.712 23.3516 102.81 23.3242 102.919 23.3242C103.021 23.3242 103.114 23.3555 103.2 23.418C103.294 23.4727 103.372 23.5469 103.435 23.6406C103.497 23.7344 103.544 23.8359 103.575 23.9453C103.614 24.0469 103.634 24.1445 103.634 24.2383ZM92.5596 38.8398C92.5596 38.7695 92.54 38.7188 92.501 38.6875C92.4619 38.6484 92.4111 38.6211 92.3486 38.6055C92.2939 38.5898 92.2354 38.5742 92.1729 38.5586C92.1182 38.5352 92.0752 38.5039 92.0439 38.4648C92.0361 38.4883 92.0283 38.5117 92.0205 38.5352C92.0205 38.5508 92.0205 38.5703 92.0205 38.5938C92.0205 38.6641 92.04 38.7188 92.0791 38.7578C92.1182 38.7891 92.165 38.8125 92.2197 38.8281C92.2822 38.8438 92.3408 38.8633 92.3955 38.8867C92.4502 38.9023 92.4971 38.9297 92.5361 38.9688C92.5439 38.9453 92.5479 38.9258 92.5479 38.9102C92.5557 38.8867 92.5596 38.8633 92.5596 38.8398ZM118.528 27.9414C118.528 27.9727 118.509 28.0352 118.47 28.1289C118.431 28.2227 118.384 28.3242 118.329 28.4336C118.282 28.543 118.231 28.6445 118.177 28.7383C118.122 28.832 118.079 28.8945 118.048 28.9258L118.071 28.9375C118.056 28.9375 118.04 28.9414 118.024 28.9492H117.966C117.935 28.957 117.899 28.9609 117.86 28.9609C117.829 28.9609 117.794 28.9609 117.755 28.9609L117.802 28.9492C117.622 28.9414 117.458 28.9102 117.31 28.8555C117.169 28.793 117.052 28.6797 116.958 28.5156C116.942 28.4844 116.919 28.4297 116.888 28.3516C116.856 28.2656 116.825 28.1758 116.794 28.082C116.763 27.9883 116.735 27.9023 116.712 27.8242C116.696 27.7383 116.688 27.6758 116.688 27.6367C116.688 27.5742 116.692 27.5078 116.7 27.4375C116.716 27.3672 116.724 27.3008 116.724 27.2383C116.724 26.9961 116.7 26.7578 116.653 26.5234C116.606 26.2891 116.583 26.0508 116.583 25.8086C116.583 25.6523 116.603 25.5 116.642 25.3516C116.681 25.2031 116.751 25.0664 116.853 24.9414H116.794C116.7 24.9414 116.626 24.9141 116.571 24.8594C116.517 24.7969 116.427 24.7656 116.302 24.7656C116.005 24.7656 115.716 24.8008 115.435 24.8711C115.153 24.9414 114.856 24.9766 114.544 24.9766C114.419 24.9766 114.294 24.9766 114.169 24.9766C114.044 24.9688 113.915 24.9648 113.782 24.9648C113.54 24.9648 113.302 24.9922 113.067 25.0469C112.833 25.1016 112.606 25.1289 112.388 25.1289C112.364 25.1289 112.353 25.125 112.353 25.1172C112.353 25.1016 112.38 25.082 112.435 25.0586C112.489 25.0273 112.517 25.0039 112.517 24.9883C112.517 24.957 112.489 24.9414 112.435 24.9414C112.388 24.9414 112.356 24.9414 112.341 24.9414C112.278 24.9414 112.224 24.9727 112.177 25.0352C112.138 25.0977 112.075 25.1406 111.989 25.1641C111.872 25.1953 111.747 25.2109 111.614 25.2109C111.481 25.2109 111.353 25.2109 111.228 25.2109C111.149 25.2109 111.036 25.207 110.888 25.1992C110.739 25.1914 110.591 25.1758 110.442 25.1523C110.294 25.1211 110.157 25.0781 110.032 25.0234C109.915 24.9609 109.849 24.875 109.833 24.7656C109.747 24.7891 109.688 24.832 109.657 24.8945C109.634 24.9492 109.61 25.0078 109.587 25.0703C109.571 25.1328 109.544 25.1914 109.505 25.2461C109.466 25.293 109.388 25.3203 109.271 25.3281C109.052 25.3438 108.911 25.4141 108.849 25.5391C108.786 25.6641 108.755 25.8047 108.755 25.9609C108.755 26.0469 108.759 26.1328 108.767 26.2188C108.774 26.3047 108.778 26.3906 108.778 26.4766C108.778 26.7891 108.771 27.1016 108.755 27.4141C108.747 27.7188 108.743 28.0273 108.743 28.3398C108.743 28.4727 108.743 28.6523 108.743 28.8789C108.751 29.0977 108.767 29.3164 108.79 29.5352C108.821 29.7461 108.864 29.9375 108.919 30.1094C108.974 30.2734 109.052 30.3672 109.153 30.3906C109.216 30.4062 109.282 30.418 109.353 30.4258C109.423 30.4258 109.493 30.4258 109.563 30.4258C109.837 30.4258 110.103 30.3945 110.36 30.332C110.626 30.2695 110.896 30.2383 111.169 30.2383C111.278 30.2383 111.38 30.2539 111.474 30.2852C111.575 30.3164 111.677 30.332 111.778 30.332C111.927 30.332 112.04 30.2617 112.118 30.1211C112.204 29.9727 112.263 29.8047 112.294 29.6172C112.333 29.4219 112.356 29.2266 112.364 29.0312C112.372 28.8359 112.376 28.6914 112.376 28.5977C112.376 28.4023 112.368 28.2109 112.353 28.0234C112.345 27.8281 112.341 27.6328 112.341 27.4375H112.411C112.606 27.4375 112.79 27.4688 112.962 27.5312C113.134 27.5938 113.313 27.625 113.501 27.625C113.579 27.625 113.638 27.6211 113.677 27.6133C113.677 27.7695 113.704 27.9258 113.759 28.082C113.813 28.2383 113.841 28.3984 113.841 28.5625C113.841 28.7656 113.731 28.8945 113.513 28.9492C113.575 29.0586 113.626 29.168 113.665 29.2773C113.704 29.3867 113.724 29.5 113.724 29.6172C113.724 29.7031 113.716 29.7891 113.7 29.875C113.685 29.9531 113.677 30.0352 113.677 30.1211C113.677 30.1992 113.7 30.2617 113.747 30.3086C113.802 30.3477 113.829 30.3945 113.829 30.4492C113.829 30.543 113.79 30.6602 113.712 30.8008C113.642 30.9414 113.606 31.0859 113.606 31.2344C113.606 31.4062 113.622 31.5859 113.653 31.7734C113.685 31.9609 113.72 32.1562 113.759 32.3594C113.798 32.5625 113.833 32.7695 113.864 32.9805C113.896 33.1836 113.911 33.3906 113.911 33.6016C113.911 33.7266 113.903 33.8555 113.888 33.9883C113.88 34.1211 113.853 34.25 113.806 34.375C113.767 34.4922 113.708 34.6016 113.63 34.7031C113.56 34.8047 113.466 34.8906 113.349 34.9609C113.2 34.9453 113.075 34.9023 112.974 34.832C112.872 34.7539 112.786 34.6641 112.716 34.5625C112.653 34.4531 112.603 34.3359 112.563 34.2109C112.532 34.0781 112.509 33.9453 112.493 33.8125C112.462 33.6094 112.446 33.4219 112.446 33.25C112.446 33.0781 112.407 32.9336 112.329 32.8164C112.259 32.6914 112.118 32.5938 111.907 32.5234C111.704 32.4531 111.384 32.418 110.946 32.418C110.821 32.418 110.642 32.4297 110.407 32.4531C110.181 32.4766 109.954 32.5195 109.728 32.582C109.501 32.6367 109.302 32.7188 109.13 32.8281C108.966 32.9375 108.884 33.0742 108.884 33.2383C108.884 33.332 108.892 33.4258 108.907 33.5195C108.931 33.6055 108.942 33.6953 108.942 33.7891C108.942 33.8672 108.938 33.9453 108.931 34.0234C108.923 34.1016 108.919 34.1836 108.919 34.2695C108.919 34.4805 108.931 34.6914 108.954 34.9023C108.978 35.1055 108.989 35.3125 108.989 35.5234C108.989 35.75 108.958 35.9727 108.896 36.1914C108.841 36.4102 108.813 36.6328 108.813 36.8594C108.813 37.1094 108.872 37.3086 108.989 37.457C109.114 37.5977 109.271 37.707 109.458 37.7852C109.646 37.8555 109.849 37.9023 110.067 37.9258C110.286 37.9492 110.489 37.9609 110.677 37.9609C111.052 37.9609 111.427 37.9375 111.802 37.8906C112.177 37.8438 112.552 37.8203 112.927 37.8203C113.161 37.8203 113.396 37.832 113.63 37.8555C113.864 37.8789 114.099 37.8906 114.333 37.8906C114.513 37.8906 114.712 37.8867 114.931 37.8789C115.149 37.8633 115.356 37.8242 115.552 37.7617C115.755 37.6992 115.927 37.6094 116.067 37.4922C116.216 37.3672 116.31 37.1914 116.349 36.9648C116.356 36.9023 116.376 36.8594 116.407 36.8359C116.446 36.8047 116.485 36.7812 116.524 36.7656C116.571 36.7422 116.61 36.7188 116.642 36.6953C116.673 36.6719 116.688 36.6328 116.688 36.5781C116.688 36.5156 116.665 36.4453 116.618 36.3672C116.571 36.2812 116.54 36.2031 116.524 36.1328C116.493 35.9844 116.474 35.8359 116.466 35.6875C116.466 35.5312 116.466 35.3789 116.466 35.2305C116.466 34.9961 116.501 34.793 116.571 34.6211C116.649 34.4414 116.688 34.2461 116.688 34.0352C116.688 33.9727 116.685 33.9141 116.677 33.8594C116.677 33.8047 116.677 33.7461 116.677 33.6836C116.677 33.6367 116.712 33.5898 116.782 33.543C116.853 33.4961 116.935 33.457 117.028 33.4258C117.122 33.3867 117.216 33.3555 117.31 33.332C117.403 33.3086 117.474 33.2969 117.521 33.2969C117.716 33.2969 117.876 33.3672 118.001 33.5078C118.126 33.6406 118.22 33.8047 118.282 34C118.353 34.1953 118.399 34.3984 118.423 34.6094C118.446 34.8203 118.458 35 118.458 35.1484C118.458 35.3906 118.438 35.6641 118.399 35.9688C118.36 36.2734 118.306 36.5859 118.235 36.9062C118.173 37.2266 118.099 37.5391 118.013 37.8438C117.927 38.1406 117.841 38.4023 117.755 38.6289C117.708 38.7383 117.661 38.8203 117.614 38.875C117.575 38.9297 117.528 38.9766 117.474 39.0156C117.427 39.0469 117.372 39.082 117.31 39.1211C117.255 39.1523 117.192 39.207 117.122 39.2852C117.06 39.3555 116.938 39.4023 116.759 39.4258C116.587 39.4492 116.403 39.4609 116.208 39.4609C116.06 39.4609 115.919 39.457 115.786 39.4492C115.653 39.4414 115.552 39.4375 115.481 39.4375C115.224 39.4375 115.013 39.4688 114.849 39.5312C114.692 39.5938 114.544 39.625 114.403 39.625C114.302 39.625 114.235 39.6055 114.204 39.5664C114.173 39.5195 114.126 39.4961 114.063 39.4961C114.009 39.4961 113.958 39.5195 113.911 39.5664C113.864 39.6133 113.794 39.6367 113.7 39.6367C113.606 39.6367 113.509 39.6367 113.407 39.6367C113.313 39.6289 113.216 39.625 113.114 39.625C112.528 39.625 111.946 39.6406 111.368 39.6719C110.79 39.7109 110.208 39.7383 109.622 39.7539C109.224 39.7695 108.829 39.8164 108.438 39.8945C108.048 39.9727 107.653 40.0117 107.255 40.0117C107.114 40.0117 106.954 39.9961 106.774 39.9648C106.595 39.9414 106.423 39.8945 106.259 39.8242C106.103 39.7539 105.97 39.6602 105.86 39.543C105.751 39.418 105.696 39.2656 105.696 39.0859C105.696 38.9141 105.759 38.75 105.884 38.5938C106.009 38.4375 106.157 38.293 106.329 38.1602C106.509 38.0273 106.692 37.9062 106.88 37.7969C107.067 37.6797 107.22 37.5703 107.337 37.4688C107.329 37.4062 107.325 37.3477 107.325 37.293C107.325 37.2383 107.325 37.1836 107.325 37.1289C107.325 37.0117 107.325 36.8945 107.325 36.7773C107.333 36.6602 107.356 36.543 107.396 36.4258C107.411 36.3555 107.45 36.2734 107.513 36.1797C107.583 36.0781 107.618 35.9922 107.618 35.9219C107.618 35.8672 107.606 35.8164 107.583 35.7695C107.567 35.7227 107.552 35.6719 107.536 35.6172C107.45 35.4062 107.388 35.2188 107.349 35.0547C107.317 34.8906 107.302 34.6914 107.302 34.457C107.302 34.3164 107.302 34.1953 107.302 34.0938C107.31 33.9844 107.317 33.8828 107.325 33.7891C107.341 33.6875 107.36 33.5859 107.384 33.4844C107.415 33.375 107.454 33.2539 107.501 33.1211C107.47 33.0664 107.435 32.9844 107.396 32.875C107.356 32.7656 107.337 32.6797 107.337 32.6172L107.501 30.9531C107.493 30.9297 107.489 30.8906 107.489 30.8359C107.489 30.7656 107.501 30.6953 107.524 30.625C107.548 30.5547 107.56 30.4805 107.56 30.4023C107.56 30.2227 107.528 30.0469 107.466 29.875C107.403 29.6953 107.372 29.5156 107.372 29.3359C107.372 29.2734 107.388 29.1992 107.419 29.1133C107.45 29.0273 107.481 28.9336 107.513 28.832C107.552 28.7305 107.587 28.6211 107.618 28.5039C107.649 28.3789 107.665 28.2461 107.665 28.1055C107.665 27.9961 107.638 27.9023 107.583 27.8242C107.536 27.7461 107.513 27.6562 107.513 27.5547C107.513 27.4609 107.536 27.3672 107.583 27.2734C107.63 27.1797 107.653 27.0781 107.653 26.9688C107.653 26.8125 107.622 26.6641 107.56 26.5234C107.505 26.375 107.446 26.2344 107.384 26.1016C107.29 25.9062 107.216 25.75 107.161 25.6328C107.114 25.5078 107.056 25.4102 106.985 25.3398C106.915 25.2617 106.817 25.207 106.692 25.1758C106.575 25.1367 106.403 25.1094 106.177 25.0938C106.067 25.0859 105.962 25.0547 105.86 25C105.767 24.9375 105.681 24.8594 105.603 24.7656C105.532 24.6719 105.474 24.5703 105.427 24.4609C105.38 24.3516 105.356 24.2461 105.356 24.1445C105.356 24.0039 105.419 23.8867 105.544 23.793C105.669 23.6914 105.829 23.6133 106.024 23.5586C106.22 23.4961 106.438 23.4492 106.681 23.418C106.923 23.3789 107.157 23.3516 107.384 23.3359C107.618 23.3125 107.829 23.2969 108.017 23.2891C108.212 23.2812 108.36 23.2695 108.462 23.2539C108.618 23.2305 108.771 23.2148 108.919 23.207C109.067 23.1992 109.22 23.1953 109.376 23.1953C109.681 23.1953 109.985 23.207 110.29 23.2305C110.603 23.2461 110.911 23.2539 111.216 23.2539C111.544 23.2539 111.864 23.2227 112.177 23.1602C112.497 23.0977 112.821 23.0664 113.149 23.0664C113.446 23.0664 113.739 23.1016 114.028 23.1719C114.317 23.2344 114.603 23.2656 114.884 23.2656C115.157 23.2656 115.427 23.2344 115.692 23.1719C115.958 23.1016 116.228 23.0664 116.501 23.0664C116.618 23.0664 116.735 23.0781 116.853 23.1016C117.024 23.2891 117.181 23.4453 117.321 23.5703C117.47 23.6953 117.595 23.8242 117.696 23.957C117.806 24.082 117.892 24.2305 117.954 24.4023C118.024 24.5742 118.071 24.8008 118.095 25.082C118.103 25.1836 118.106 25.3086 118.106 25.457C118.106 25.5977 118.11 25.7383 118.118 25.8789C118.126 26.0117 118.146 26.1328 118.177 26.2422C118.216 26.3516 118.274 26.418 118.353 26.4414C118.353 26.5508 118.298 26.6055 118.188 26.6055C118.196 26.7148 118.22 26.8281 118.259 26.9453C118.298 27.0547 118.337 27.168 118.376 27.2852C118.415 27.3945 118.45 27.5078 118.481 27.625C118.513 27.7344 118.528 27.8398 118.528 27.9414ZM108.38 30.8242C108.333 30.8242 108.29 30.832 108.251 30.8477C108.212 30.8633 108.185 30.8984 108.169 30.9531C108.466 31.125 108.7 31.2891 108.872 31.4453C109.052 31.5938 109.188 31.7148 109.282 31.8086C109.384 31.9023 109.458 31.957 109.505 31.9727C109.552 31.9805 109.599 31.9297 109.646 31.8203C109.708 31.6797 109.696 31.5469 109.61 31.4219C109.532 31.2969 109.419 31.1914 109.271 31.1055C109.13 31.0195 108.974 30.9531 108.802 30.9062C108.638 30.8516 108.497 30.8242 108.38 30.8242Z" fill="white" fill-opacity="0.6"/>
</g>
<defs>
<linearGradient id="paint0_linear_262_2" x1="71" y1="0.999997" x2="71" y2="80.5208" gradientUnits="userSpaceOnUse">
<stop offset="0.432292" stop-color="#000AFF"/>
<stop offset="0.578125" stop-color="#000AFF" stop-opacity="0"/>
</linearGradient>
<clipPath id="clip0_262_2">
<rect width="142" height="82" fill="white"/>
</clipPath>
</defs>
</svg>
