<svg width="800" height="20" viewBox="0 0 800 20" fill="none" xmlns="http://www.w3.org/2000/svg">
<path d="M800 0H0V20H800V0Z" fill="url(#paint0_linear_293_40)"/>
<path d="M800 0H398.006V20H800V0Z" fill="url(#paint1_linear_293_40)"/>
<path d="M365.69 0L393.952 20H383.806L355.542 0H365.69Z" fill="url(#paint2_linear_293_40)"/>
<path d="M338.98 0L367.243 20H357.097L328.833 0H338.98Z" fill="url(#paint3_linear_293_40)"/>
<path d="M312.271 0L340.533 20H330.387L302.123 0H312.271Z" fill="url(#paint4_linear_293_40)"/>
<path d="M285.561 0L313.824 20H303.678L275.414 0H285.561Z" fill="url(#paint5_linear_293_40)"/>
<path d="M258.853 0L287.115 20H276.969L248.705 0H258.853Z" fill="url(#paint6_linear_293_40)"/>
<path d="M232.143 0L260.407 20H250.26L221.996 0H232.143Z" fill="url(#paint7_linear_293_40)"/>
<path d="M205.434 0L233.698 20H223.551L195.287 0H205.434Z" fill="url(#paint8_linear_293_40)"/>
<path d="M178.725 0L206.989 20H196.842L168.579 0H178.725Z" fill="url(#paint9_linear_293_40)"/>
<path d="M152.015 0L180.279 20H170.132L141.869 0H152.015Z" fill="url(#paint10_linear_293_40)"/>
<path d="M125.306 0L153.57 20H143.423L115.159 0H125.306Z" fill="url(#paint11_linear_293_40)"/>
<path d="M98.597 0L126.861 20H116.714L88.4502 0H98.597Z" fill="url(#paint12_linear_293_40)"/>
<path d="M71.8872 0L100.151 20H90.0039L61.7407 0H71.8872Z" fill="url(#paint13_linear_293_40)"/>
<path d="M45.1789 0L73.4426 20H63.2959L35.0322 0H45.1789Z" fill="url(#paint14_linear_293_40)"/>
<path d="M18.4699 0L46.7334 20H36.5868L8.32324 0H18.4699Z" fill="url(#paint15_linear_293_40)"/>
<path d="M0.0131836 5.84814L20.0238 20H9.87723L0.0131836 13.0133V5.84814Z" fill="url(#paint16_linear_293_40)"/>
<path d="M790.051 0L793.361 2.34375V9.50893L779.908 0H790.051Z" fill="url(#paint17_linear_293_40)"/>
<path d="M763.341 0L791.613 20H781.464L753.198 0H763.341Z" fill="url(#paint18_linear_293_40)"/>
<path d="M736.633 0L764.898 20H754.755L726.49 0H736.633Z" fill="url(#paint19_linear_293_40)"/>
<path d="M709.923 0L738.195 20H728.046L699.78 0H709.923Z" fill="url(#paint20_linear_293_40)"/>
<path d="M683.214 0L711.48 20H701.337L673.071 0H683.214Z" fill="url(#paint21_linear_293_40)"/>
<path d="M656.509 0L684.776 20H674.627L646.361 0H656.509Z" fill="url(#paint22_linear_293_40)"/>
<path d="M629.799 0L658.059 20H647.916L619.652 0H629.799Z" fill="url(#paint23_linear_293_40)"/>
<path d="M603.09 0L631.354 20H621.207L592.943 0H603.09Z" fill="url(#paint24_linear_293_40)"/>
<path d="M576.381 0L604.645 20H594.498L566.234 0H576.381Z" fill="url(#paint25_linear_293_40)"/>
<path d="M549.672 0L577.936 20H567.789L539.525 0H549.672Z" fill="url(#paint26_linear_293_40)"/>
<path d="M522.963 0L551.226 20H541.079L512.816 0H522.963Z" fill="url(#paint27_linear_293_40)"/>
<path d="M496.253 0L524.517 20H514.37L486.106 0H496.253Z" fill="url(#paint28_linear_293_40)"/>
<path d="M469.544 0L497.808 20H487.66L459.397 0H469.544Z" fill="url(#paint29_linear_293_40)"/>
<path d="M442.835 0L471.099 20H460.952L432.688 0H442.835Z" fill="url(#paint30_linear_293_40)"/>
<path d="M390.669 0L418.933 20H408.786L380.523 0H390.669Z" fill="url(#paint31_linear_293_40)"/>
<path d="M416.126 0L444.39 20H434.243L405.98 0H416.126Z" fill="url(#paint32_linear_293_40)"/>
<path d="M800 4H0V16H800V4Z" fill="url(#paint33_linear_293_40)"/>
<path d="M800 4H399.336V16H800V4Z" fill="url(#paint34_linear_293_40)"/>
<path d="M122.495 13.7314V6.11961H124.983V13.7314H122.495ZM126.116 10.2952V9.10997H127.603C128.685 9.10997 129.27 8.85264 129.359 8.33791C129.359 8.29444 129.359 8.25091 129.359 8.20744C129.255 7.63471 128.67 7.33391 127.603 7.30491H126.116V6.11961H127.804C130.499 6.14137 131.854 6.83004 131.869 8.18571C131.869 9.23684 131.188 9.89291 129.826 10.1539C129.263 10.2482 128.589 10.2952 127.804 10.2952C127.774 10.2952 127.211 10.2952 126.116 10.2952ZM132.868 12.3287C132.868 12.7347 133.268 13.079 134.068 13.3618C134.764 13.6082 135.593 13.7314 136.555 13.7314V12.655C135.459 12.6477 134.904 12.4592 134.89 12.0895V11.8611C134.904 11.7161 134.993 11.6146 135.156 11.5566C135.274 11.5132 135.97 11.408 137.244 11.2413C138.133 11.1253 138.755 11.0202 139.11 10.926V12.0025C139.11 12.3504 138.777 12.5607 138.11 12.6332C137.977 12.6477 137.837 12.655 137.688 12.655V13.7314C138.666 13.7242 139.451 13.601 140.043 13.3618C140.561 13.6082 141.213 13.7314 141.998 13.7314V12.644C141.612 12.6296 141.413 12.5136 141.398 12.2961V9.37097C141.398 8.93604 141.042 8.54817 140.332 8.20744C139.621 7.86671 138.732 7.69637 137.666 7.69637V8.76204C138.333 8.76204 138.777 8.89611 138.999 9.16437C139.073 9.25137 139.11 9.34197 139.11 9.43624V9.66457C139.11 9.85304 138.296 10.0705 136.667 10.317C135.127 10.549 134.253 10.694 134.046 10.752C133.276 10.9767 132.883 11.3246 132.868 11.7959V12.3287ZM133.046 9.20784L135.09 9.58844C135.09 9.17524 135.416 8.91424 136.067 8.80551C136.23 8.77651 136.393 8.76204 136.555 8.76204V7.69637C135.534 7.69637 134.653 7.87757 133.912 8.24004C133.335 8.53004 133.046 8.85264 133.046 9.20784ZM142.842 7.70724H145.485L148.839 12.568L148.062 13.7314H146.728L142.842 7.70724ZM147.907 9.94731L149.438 7.70724H152.082L149.417 11.6762H149.128L147.907 9.94731ZM153.192 13.7314V6H155.725V13.7314H153.192ZM157.502 12.0895V9.33837C157.502 8.98311 157.828 8.63877 158.479 8.30531C159.249 7.90657 160.219 7.70724 161.389 7.70724V8.82724C160.619 8.82724 160.123 8.98311 159.9 9.29484C159.857 9.36011 159.834 9.42531 159.834 9.49057V11.9372C159.834 12.2127 160.093 12.4121 160.612 12.5353C160.848 12.5933 161.115 12.6223 161.411 12.6223V13.7424C159.975 13.7424 158.865 13.4596 158.08 12.8942C157.694 12.6114 157.502 12.3432 157.502 12.0895ZM162.389 13.7424V12.6223C163.099 12.6223 163.566 12.4737 163.788 12.1765C163.847 12.0967 163.877 12.0242 163.877 11.959V9.49057C163.877 9.18611 163.588 8.98311 163.011 8.88164C162.819 8.84537 162.603 8.82724 162.367 8.82724V7.70724C163.758 7.70724 164.832 7.98271 165.587 8.53364C165.973 8.81637 166.165 9.08464 166.165 9.33837V12.0895C166.165 12.4447 165.854 12.7927 165.232 13.1334C164.477 13.5321 163.529 13.7351 162.389 13.7424ZM167.187 7.70724H169.83L173.184 12.568L172.407 13.7314H171.073L167.187 7.70724ZM172.251 9.94731L173.784 7.70724H176.427L173.761 11.6762H173.473L172.251 9.94731Z" fill="url(#paint35_linear_293_40)"/>
<path d="M33.1953 11.8254V8.2478C33.1953 7.8636 33.5285 7.47214 34.1949 7.0734C35.0834 6.55147 36.2088 6.28686 37.5712 6.2796V7.4866C36.8011 7.49387 36.2236 7.69687 35.8386 8.0956C35.7201 8.22607 35.6609 8.3348 35.6609 8.4218V11.8254C35.6609 12.2169 36.0755 12.5068 36.9048 12.6953C37.1565 12.7533 37.3712 12.7823 37.5489 12.7823V14.0002C36.7049 14.0002 35.8608 13.8516 35.0167 13.5543C33.8172 13.1194 33.2101 12.5431 33.1953 11.8254ZM38.7706 14.0002V12.7823C39.1556 12.7823 39.5554 12.6953 39.9701 12.5213C40.4144 12.3256 40.6438 12.0936 40.6587 11.8254V8.4218C40.6587 8.20434 40.4662 7.99407 40.0812 7.79107C39.7109 7.5954 39.2741 7.49387 38.7706 7.4866V6.2796C40.2663 6.2796 41.4658 6.59496 42.3691 7.22567C42.8873 7.58814 43.1465 7.9288 43.1465 8.2478V11.8254C43.1465 12.6301 42.4135 13.2463 40.9474 13.674C40.1774 13.8915 39.4518 14.0002 38.7706 14.0002ZM44.9235 13.9458V6.21436H47.4557V13.9458H44.9235ZM49.2327 12.3039V9.5418C49.2623 9.1866 49.5955 8.84227 50.2323 8.5088C51.0171 8.1246 51.9649 7.9288 53.0755 7.9216V9.009C52.4979 9.009 52.0611 9.13587 51.7649 9.3896C51.6612 9.4766 51.6094 9.55634 51.6094 9.6288V10.2813H55.83V9.63967C55.83 9.3352 55.4893 9.13587 54.8082 9.0416C54.6155 9.0126 54.423 8.99814 54.2305 8.99814V7.9216C55.2819 7.9216 56.2149 8.0992 57.0294 8.4544C57.7105 8.7734 58.0586 9.1322 58.073 9.53094V11.4013H51.6094V12.3039C51.6094 12.4923 51.8241 12.6482 52.2536 12.7714C52.5202 12.8439 52.8089 12.8801 53.1199 12.8801V13.9458C51.7427 13.9458 50.6543 13.674 49.8546 13.1303C49.44 12.8331 49.2327 12.5575 49.2327 12.3039ZM54.2305 13.9458V12.8693C55.0894 12.8693 55.6817 12.6917 56.0076 12.3365C56.0518 12.2857 56.089 12.2386 56.1187 12.1951L58.0953 12.5431C57.829 13.036 57.2293 13.4166 56.2963 13.6849C55.6594 13.8589 54.9709 13.9458 54.2305 13.9458ZM59.8503 13.9458V6.21436H62.2936V13.9458H59.8503ZM62.8934 10.9119L66.6026 7.9216H69.3128L65.5367 10.9119L69.3352 13.9458H66.6473L62.8934 10.9119ZM70.2236 12.3582L72.4224 12.1625C72.4224 12.4452 72.726 12.6591 73.3332 12.8041C73.6 12.8693 73.8589 12.9019 74.1109 12.9019V14.0002C72.541 14.0002 71.4081 13.7283 70.7122 13.1847C70.3863 12.9237 70.2236 12.6482 70.2236 12.3582ZM70.3347 9.5962C70.3347 8.92927 70.9642 8.43267 72.2226 8.10647C72.8297 7.9542 73.4368 7.87807 74.044 7.87807V8.9546C73.3332 8.9546 72.8594 9.09234 72.6224 9.36787C72.5633 9.4476 72.5335 9.52374 72.5335 9.5962C72.5335 9.81367 72.9185 10.0058 73.6887 10.1725C74.3401 10.303 75.3321 10.4443 76.6652 10.5966C77.6864 10.6981 78.4123 10.9555 78.8419 11.3687C79.0643 11.5934 79.1751 11.8399 79.1751 12.1081C79.1751 12.8258 78.5823 13.355 77.398 13.6957C76.7168 13.8987 75.9397 14.0002 75.0657 14.0002V12.9128C75.658 12.9128 76.1466 12.8149 76.5321 12.6192C76.7683 12.4815 76.8874 12.3292 76.8874 12.1625C76.8874 11.9087 76.3098 11.6949 75.1546 11.5209C74.9179 11.4847 74.5474 11.4339 74.044 11.3687C73.289 11.2817 72.7557 11.2092 72.4448 11.1512C71.3491 10.9119 70.6824 10.5603 70.4458 10.0964C70.3714 9.94414 70.3347 9.77747 70.3347 9.5962ZM75.0434 8.9546V7.87807C76.347 7.87807 77.398 8.11367 78.1977 8.58487C78.7014 8.8894 78.9527 9.20834 78.9527 9.5418L76.7537 9.72667C76.7537 9.35694 76.347 9.11414 75.5325 8.99814C75.3544 8.96914 75.1918 8.9546 75.0434 8.9546ZM80.2641 12.5431C80.2641 12.9491 80.6634 13.2934 81.4627 13.5761C82.1587 13.8226 82.9881 13.9458 83.9508 13.9458V12.8693C82.8548 12.8621 82.2997 12.6735 82.285 12.3039V12.0755C82.2997 11.9305 82.3882 11.829 82.5516 11.771C82.6702 11.7275 83.3656 11.6224 84.6392 11.4557C85.5282 11.3397 86.1499 11.2345 86.505 11.1403V12.2169C86.505 12.5648 86.1723 12.7751 85.5057 12.8475C85.3724 12.8621 85.2321 12.8693 85.0834 12.8693V13.9458C86.0608 13.9385 86.8459 13.8153 87.4382 13.5761C87.9567 13.8226 88.6085 13.9458 89.393 13.9458V12.8584C89.0085 12.8439 88.8085 12.7279 88.7931 12.5105V9.58534C88.7931 9.15034 88.438 8.76254 87.7266 8.4218C87.0158 8.08107 86.1281 7.91074 85.0616 7.91074V8.9764C85.7281 8.9764 86.1723 9.11047 86.3947 9.37874C86.4684 9.46574 86.505 9.55634 86.505 9.65054V9.87894C86.505 10.0674 85.6903 10.2849 84.0623 10.5314C82.5221 10.7633 81.6479 10.9083 81.4402 10.9663C80.6705 11.1911 80.2782 11.539 80.2641 12.0102V12.5431ZM80.4417 9.4222L82.4843 9.8028C82.4843 9.3896 82.8106 9.1286 83.4618 9.01987C83.6252 8.99087 83.788 8.9764 83.9508 8.9764V7.91074C82.9291 7.91074 82.0479 8.09194 81.3076 8.4544C80.7301 8.7444 80.4417 9.067 80.4417 9.4222ZM90.9031 13.9458V9.55274C90.9031 9.20474 91.2287 8.8604 91.8812 8.51967C92.6804 8.11367 93.6726 7.90707 94.8571 7.8998V9.05247C94.1764 9.05247 93.7021 9.183 93.4355 9.44394C93.3464 9.53094 93.3028 9.61434 93.3028 9.69407V13.9458H90.9031ZM95.8352 9.05247V7.8998C97.2414 7.8998 98.3444 8.17894 99.1443 8.73714C99.5738 9.02714 99.7878 9.299 99.7878 9.55274V13.9458H97.3888V9.69407C97.3888 9.4766 97.1747 9.3026 96.7453 9.17207C96.4787 9.09234 96.1749 9.05247 95.8352 9.05247ZM101.299 12.3039V9.55274C101.314 9.183 101.647 8.8314 102.298 8.49794C103.024 8.1282 103.891 7.93974 104.897 7.93247H106.186V9.06334H104.897C104.364 9.06334 103.971 9.183 103.72 9.4222C103.646 9.49467 103.609 9.55634 103.609 9.60707V12.2821C103.609 12.4416 103.801 12.5829 104.187 12.7062C104.423 12.7859 104.676 12.8258 104.942 12.8258H106.186V13.9458H104.942C103.594 13.9458 102.557 13.6595 101.832 13.0868C101.477 12.8041 101.299 12.5431 101.299 12.3039ZM107.296 13.9458V6.21436H109.74V13.9458H107.296ZM111.584 13.9458V7.9216H113.982V8.67194C114.397 8.35294 115.019 8.1246 115.848 7.98687C116.232 7.9216 116.61 7.88894 116.981 7.88894H117.559L117.003 9.03074C116.129 9.038 115.367 9.2446 114.715 9.65054C114.226 9.96227 113.982 10.2849 113.982 10.6183V13.9458H111.584Z" fill="url(#paint36_linear_293_40)"/>
<path d="M257.161 13.0439V6.71026H259.318V9.36137H260.59V10.3476H259.318V13.0439H257.161ZM261.609 10.3476V9.36137H262.881V6.71026H265.038V13.0439H262.881V10.3476H261.609ZM266.116 7.69651V6.71026H274.456V7.69651H271.374V13.0439H269.217V7.69651H266.116ZM275.592 13.0439V8.75511H275.765L277.749 10.99V13.0439H275.592ZM275.592 7.36171V6.71026H277.306L281.389 11.37L284.047 8.54704H284.24V10.8452L282.16 13.0439H280.619L275.592 7.36171ZM285.222 13.0439V6.71026H287.378V13.0439H285.222ZM288.978 13.0439V6.71026H291.134V12.0486H296.219V13.0439H288.978ZM301.939 10.8452V9.93137H308.026V10.8452H301.939ZM314.169 11.4062C314.169 11.756 314.445 12.0968 314.997 12.4286C315.741 12.8629 316.737 13.0831 317.982 13.0891V12.0848C317.225 12.0848 316.704 11.928 316.422 11.6143C316.345 11.5298 316.307 11.4605 316.307 11.4062V8.35704C316.307 8.19411 316.467 8.03731 316.788 7.88651C317.122 7.74777 317.52 7.67537 317.982 7.66937V6.66504C316.531 6.66504 315.44 6.95457 314.708 7.53364C314.349 7.81711 314.169 8.09157 314.169 8.35704V11.4062ZM318.965 13.0891C319.979 13.0891 320.858 12.9021 321.603 12.5281C322.245 12.1964 322.565 11.8194 322.565 11.3971L320.486 11.1619C320.486 11.2282 320.48 11.2705 320.466 11.2886C320.466 11.4152 320.435 11.5238 320.37 11.6143C320.267 11.7349 320.1 11.8344 319.87 11.9129C319.639 11.9913 319.426 12.0396 319.234 12.0576L318.965 12.0848V13.0891ZM318.965 7.66937C318.965 7.66937 319.131 7.69351 319.465 7.74171C319.902 7.84431 320.204 7.99204 320.37 8.18511C320.435 8.27557 320.466 8.37811 320.466 8.49271V8.62844L322.565 8.37511C322.565 7.91064 322.155 7.49744 321.333 7.13551C320.602 6.82184 319.812 6.66504 318.965 6.66504V7.66937ZM323.49 11.6143L325.436 11.2886C325.512 11.6806 325.968 11.9521 326.803 12.1029C326.957 12.127 327.034 12.139 327.034 12.139V13.071C325.93 13.071 324.992 12.8478 324.222 12.4015C323.747 12.118 323.503 11.8556 323.49 11.6143ZM323.644 8.42944C323.644 7.77191 324.248 7.27724 325.455 6.94551C326.02 6.79471 326.546 6.7163 327.034 6.71026V7.66031C326.636 7.69044 326.289 7.79904 325.994 7.98604C325.802 8.11871 325.705 8.26051 325.705 8.41131C325.705 8.72497 326.187 8.97531 327.15 9.16224C327.381 9.20451 327.74 9.26177 328.228 9.33417C328.844 9.42471 329.275 9.49704 329.518 9.55131C330.636 9.81071 331.361 10.1183 331.695 10.4742C331.888 10.6854 331.984 10.9176 331.984 11.171C331.984 11.7018 331.548 12.1632 330.674 12.5553C329.891 12.8991 329.011 13.071 328.036 13.071V12.139C328.524 12.127 328.96 12.0184 329.345 11.8134C329.666 11.6324 329.827 11.4243 329.827 11.189C329.827 10.8211 329.281 10.5436 328.19 10.3566C327.958 10.3144 327.599 10.2601 327.111 10.1937C326.572 10.1214 326.206 10.0641 326.014 10.0218C324.935 9.79864 324.241 9.51217 323.933 9.16224C323.74 8.95117 323.644 8.70684 323.644 8.42944ZM328.036 7.66031V6.71026C329.14 6.71026 330.064 6.93344 330.809 7.37984C331.207 7.62111 331.419 7.84124 331.444 8.04031L329.461 8.34797C329.409 8.16697 329.262 8.01924 329.018 7.90457C328.787 7.78997 328.568 7.72064 328.363 7.69651L328.036 7.66031ZM332.869 11.6143L334.814 11.2886C334.891 11.6806 335.348 11.9521 336.182 12.1029C336.336 12.127 336.413 12.139 336.413 12.139V13.071C335.309 13.071 334.372 12.8478 333.602 12.4015C333.127 12.118 332.883 11.8556 332.869 11.6143ZM333.024 8.42944C333.024 7.77191 333.627 7.27724 334.834 6.94551C335.399 6.79471 335.925 6.7163 336.413 6.71026V7.66031C336.016 7.69044 335.669 7.79904 335.373 7.98604C335.18 8.11871 335.084 8.26051 335.084 8.41131C335.084 8.72497 335.566 8.97531 336.529 9.16224C336.76 9.20451 337.119 9.26177 337.608 9.33417C338.224 9.42471 338.654 9.49704 338.898 9.55131C340.015 9.81071 340.74 10.1183 341.074 10.4742C341.267 10.6854 341.363 10.9176 341.363 11.171C341.363 11.7018 340.927 12.1632 340.054 12.5553C339.271 12.8991 338.391 13.071 337.415 13.071V12.139C337.903 12.127 338.339 12.0184 338.724 11.8134C339.046 11.6324 339.206 11.4243 339.206 11.189C339.206 10.8211 338.66 10.5436 337.569 10.3566C337.338 10.3144 336.979 10.2601 336.491 10.1937C335.951 10.1214 335.586 10.0641 335.393 10.0218C334.314 9.79864 333.62 9.51217 333.313 9.16224C333.12 8.95117 333.024 8.70684 333.024 8.42944ZM337.415 7.66031V6.71026C338.519 6.71026 339.443 6.93344 340.188 7.37984C340.586 7.62111 340.798 7.84124 340.824 8.04031L338.84 8.34797C338.789 8.16697 338.641 8.01924 338.397 7.90457C338.166 7.78997 337.947 7.72064 337.742 7.69651L337.415 7.66031ZM347.199 10.8452V9.93137H353.284V10.8452H347.199ZM358.986 11.2976V10.8542H361.142V11.2795C361.155 11.6294 361.496 11.8767 362.163 12.0214C362.344 12.0576 362.497 12.0757 362.626 12.0757V13.0891C361.919 13.0891 361.207 12.9624 360.488 12.7091C359.499 12.3472 358.998 11.8767 358.986 11.2976ZM363.607 13.0891V12.0757C363.916 12.0757 364.256 12.0094 364.629 11.8767C365.04 11.7198 365.251 11.5268 365.264 11.2976V6.71026H367.401V11.2976C367.401 11.9672 366.767 12.4738 365.495 12.8176C364.828 12.9986 364.198 13.0891 363.607 13.0891ZM368.518 11.6143L370.464 11.2886C370.541 11.6806 370.998 11.9521 371.831 12.1029C371.985 12.127 372.063 12.139 372.063 12.139V13.071C370.958 13.071 370.021 12.8478 369.251 12.4015C368.775 12.118 368.532 11.8556 368.518 11.6143ZM368.673 8.42944C368.673 7.77191 369.277 7.27724 370.484 6.94551C371.048 6.79471 371.575 6.7163 372.063 6.71026V7.66031C371.665 7.69044 371.318 7.79904 371.023 7.98604C370.83 8.11871 370.733 8.26051 370.733 8.41131C370.733 8.72497 371.215 8.97531 372.178 9.16224C372.41 9.20451 372.768 9.26177 373.257 9.33417C373.873 9.42471 374.303 9.49704 374.547 9.55131C375.664 9.81071 376.39 10.1183 376.723 10.4742C376.916 10.6854 377.012 10.9176 377.012 11.171C377.012 11.7018 376.576 12.1632 375.703 12.5553C374.92 12.8991 374.04 13.071 373.064 13.071V12.139C373.552 12.127 373.989 12.0184 374.374 11.8134C374.695 11.6324 374.855 11.4243 374.855 11.189C374.855 10.8211 374.309 10.5436 373.218 10.3566C372.987 10.3144 372.627 10.2601 372.14 10.1937C371.6 10.1214 371.234 10.0641 371.042 10.0218C369.963 9.79864 369.27 9.51217 368.962 9.16224C368.77 8.95117 368.673 8.70684 368.673 8.42944ZM373.064 7.66031V6.71026C374.168 6.71026 375.093 6.93344 375.837 7.37984C376.235 7.62111 376.447 7.84124 376.473 8.04031L374.489 8.34797C374.438 8.16697 374.29 8.01924 374.047 7.90457C373.815 7.78997 373.597 7.72064 373.391 7.69651L373.064 7.66031Z" fill="url(#paint37_linear_293_40)"/>
<path d="M508.97 13.7314V6.11961H511.458V13.7314H508.97ZM512.591 10.2952V9.10997H514.079C515.16 9.10997 515.745 8.85264 515.834 8.33791C515.834 8.29444 515.834 8.25091 515.834 8.20744C515.73 7.63471 515.145 7.33391 514.079 7.30491H512.591V6.11961H514.279C516.974 6.14137 518.329 6.83004 518.344 8.18571C518.344 9.23684 517.663 9.89291 516.301 10.1539C515.738 10.2482 515.064 10.2952 514.279 10.2952C514.249 10.2952 513.686 10.2952 512.591 10.2952ZM519.343 12.3287C519.343 12.7347 519.743 13.079 520.543 13.3618C521.239 13.6082 522.069 13.7314 523.031 13.7314V12.655C521.935 12.6477 521.38 12.4592 521.365 12.0895V11.8611C521.38 11.7161 521.469 11.6146 521.631 11.5566C521.749 11.5132 522.445 11.408 523.72 11.2413C524.608 11.1253 525.23 11.0202 525.585 10.926V12.0025C525.585 12.3504 525.252 12.5607 524.585 12.6332C524.452 12.6477 524.312 12.655 524.163 12.655V13.7314C525.141 13.7242 525.926 13.601 526.518 13.3618C527.036 13.6082 527.688 13.7314 528.473 13.7314V12.644C528.088 12.6296 527.888 12.5136 527.874 12.2961V9.37097C527.874 8.93604 527.517 8.54817 526.807 8.20744C526.096 7.86671 525.207 7.69637 524.141 7.69637V8.76204C524.807 8.76204 525.252 8.89611 525.474 9.16437C525.548 9.25137 525.585 9.34197 525.585 9.43624V9.66457C525.585 9.85304 524.771 10.0705 523.142 10.317C521.602 10.549 520.728 10.694 520.521 10.752C519.751 10.9767 519.359 11.3246 519.343 11.7959V12.3287ZM519.521 9.20784L521.565 9.58844C521.565 9.17524 521.891 8.91424 522.542 8.80551C522.705 8.77651 522.868 8.76204 523.031 8.76204V7.69637C522.009 7.69637 521.128 7.87757 520.387 8.24004C519.81 8.53004 519.521 8.85264 519.521 9.20784ZM529.317 7.70724H531.96L535.314 12.568L534.537 13.7314H533.204L529.317 7.70724ZM534.382 9.94731L535.913 7.70724H538.557L535.892 11.6762H535.603L534.382 9.94731ZM539.667 13.7314V6H542.2V13.7314H539.667ZM543.977 12.0895V9.33837C543.977 8.98311 544.303 8.63877 544.954 8.30531C545.724 7.90657 546.694 7.70724 547.864 7.70724V8.82724C547.094 8.82724 546.598 8.98311 546.376 9.29484C546.332 9.36011 546.31 9.42531 546.31 9.49057V11.9372C546.31 12.2127 546.568 12.4121 547.087 12.5353C547.324 12.5933 547.59 12.6223 547.886 12.6223V13.7424C546.45 13.7424 545.34 13.4596 544.555 12.8942C544.169 12.6114 543.977 12.3432 543.977 12.0895ZM548.864 13.7424V12.6223C549.575 12.6223 550.041 12.4737 550.264 12.1765C550.322 12.0967 550.352 12.0242 550.352 11.959V9.49057C550.352 9.18611 550.064 8.98311 549.486 8.88164C549.294 8.84537 549.078 8.82724 548.842 8.82724V7.70724C550.233 7.70724 551.307 7.98271 552.062 8.53364C552.448 8.81637 552.64 9.08464 552.64 9.33837V12.0895C552.64 12.4447 552.329 12.7927 551.707 13.1334C550.952 13.5321 550.004 13.7351 548.864 13.7424ZM553.662 7.70724H556.305L559.659 12.568L558.882 13.7314H557.548L553.662 7.70724ZM558.727 9.94731L560.259 7.70724H562.902L560.237 11.6762H559.948L558.727 9.94731Z" fill="url(#paint38_linear_293_40)"/>
<path d="M419.67 11.8254V8.2478C419.67 7.8636 420.003 7.47214 420.67 7.0734C421.557 6.55147 422.684 6.28686 424.046 6.2796V7.4866C423.276 7.49387 422.698 7.69687 422.314 8.0956C422.195 8.22607 422.135 8.3348 422.135 8.4218V11.8254C422.135 12.2169 422.55 12.5068 423.379 12.6953C423.632 12.7533 423.846 12.7823 424.024 12.7823V14.0002C423.18 14.0002 422.335 13.8516 421.491 13.5543C420.292 13.1194 419.685 12.5431 419.67 11.8254ZM425.245 14.0002V12.7823C425.63 12.7823 426.03 12.6953 426.445 12.5213C426.889 12.3256 427.119 12.0936 427.133 11.8254V8.4218C427.133 8.20434 426.941 7.99407 426.556 7.79107C426.186 7.5954 425.749 7.49387 425.245 7.4866V6.2796C426.741 6.2796 427.941 6.59496 428.844 7.22567C429.362 7.58814 429.621 7.9288 429.621 8.2478V11.8254C429.621 12.6301 428.888 13.2463 427.422 13.674C426.652 13.8915 425.927 14.0002 425.245 14.0002ZM431.398 13.9458V6.21436H433.93V13.9458H431.398ZM435.707 12.3039V9.5418C435.737 9.1866 436.07 8.84227 436.707 8.5088C437.492 8.1246 438.439 7.9288 439.55 7.9216V9.009C438.973 9.009 438.536 9.13587 438.24 9.3896C438.136 9.4766 438.084 9.55634 438.084 9.6288V10.2813H442.305V9.63967C442.305 9.3352 441.964 9.13587 441.282 9.0416C441.09 9.0126 440.897 8.99814 440.705 8.99814V7.9216C441.756 7.9216 442.69 8.0992 443.504 8.4544C444.185 8.7734 444.533 9.1322 444.547 9.53094V11.4013H438.084V12.3039C438.084 12.4923 438.299 12.6482 438.728 12.7714C438.995 12.8439 439.283 12.8801 439.595 12.8801V13.9458C438.217 13.9458 437.129 13.674 436.329 13.1303C435.915 12.8331 435.707 12.5575 435.707 12.3039ZM440.705 13.9458V12.8693C441.564 12.8693 442.156 12.6917 442.482 12.3365C442.526 12.2857 442.564 12.2386 442.594 12.1951L444.57 12.5431C444.304 13.036 443.704 13.4166 442.771 13.6849C442.134 13.8589 441.446 13.9458 440.705 13.9458ZM446.325 13.9458V6.21436H448.768V13.9458H446.325ZM449.368 10.9119L453.078 7.9216H455.787L452.011 10.9119L455.809 13.9458H453.122L449.368 10.9119ZM456.698 12.3582L458.897 12.1625C458.897 12.4452 459.201 12.6591 459.808 12.8041C460.075 12.8693 460.333 12.9019 460.586 12.9019V14.0002C459.016 14.0002 457.883 13.7283 457.187 13.1847C456.861 12.9237 456.698 12.6482 456.698 12.3582ZM456.809 9.5962C456.809 8.92927 457.439 8.43267 458.697 8.10647C459.304 7.9542 459.912 7.87807 460.518 7.87807V8.9546C459.808 8.9546 459.335 9.09234 459.097 9.36787C459.038 9.4476 459.008 9.52374 459.008 9.5962C459.008 9.81367 459.393 10.0058 460.163 10.1725C460.815 10.303 461.807 10.4443 463.14 10.5966C464.161 10.6981 464.887 10.9555 465.317 11.3687C465.539 11.5934 465.65 11.8399 465.65 12.1081C465.65 12.8258 465.057 13.355 463.872 13.6957C463.191 13.8987 462.415 14.0002 461.541 14.0002V12.9128C462.132 12.9128 462.621 12.8149 463.007 12.6192C463.243 12.4815 463.362 12.3292 463.362 12.1625C463.362 11.9087 462.785 11.6949 461.629 11.5209C461.393 11.4847 461.022 11.4339 460.518 11.3687C459.763 11.2817 459.231 11.2092 458.919 11.1512C457.823 10.9119 457.157 10.5603 456.921 10.0964C456.846 9.94414 456.809 9.77747 456.809 9.5962ZM461.518 8.9546V7.87807C462.821 7.87807 463.872 8.11367 464.672 8.58487C465.176 8.8894 465.427 9.20834 465.427 9.5418L463.228 9.72667C463.228 9.35694 462.821 9.11414 462.007 8.99814C461.829 8.96914 461.666 8.9546 461.518 8.9546ZM466.739 12.5431C466.739 12.9491 467.138 13.2934 467.937 13.5761C468.633 13.8226 469.463 13.9458 470.425 13.9458V12.8693C469.329 12.8621 468.774 12.6735 468.759 12.3039V12.0755C468.774 11.9305 468.863 11.829 469.026 11.771C469.144 11.7275 469.84 11.6224 471.114 11.4557C472.003 11.3397 472.625 11.2345 472.98 11.1403V12.2169C472.98 12.5648 472.647 12.7751 471.98 12.8475C471.847 12.8621 471.707 12.8693 471.558 12.8693V13.9458C472.535 13.9385 473.321 13.8153 473.913 13.5761C474.431 13.8226 475.083 13.9458 475.868 13.9458V12.8584C475.483 12.8439 475.283 12.7279 475.268 12.5105V9.58534C475.268 9.15034 474.912 8.76254 474.201 8.4218C473.49 8.08107 472.603 7.91074 471.536 7.91074V8.9764C472.203 8.9764 472.647 9.11047 472.869 9.37874C472.943 9.46574 472.98 9.55634 472.98 9.65054V9.87894C472.98 10.0674 472.165 10.2849 470.537 10.5314C468.997 10.7633 468.123 10.9083 467.915 10.9663C467.145 11.1911 466.753 11.539 466.739 12.0102V12.5431ZM466.916 9.4222L468.959 9.8028C468.959 9.3896 469.285 9.1286 469.936 9.01987C470.1 8.99087 470.263 8.9764 470.425 8.9764V7.91074C469.404 7.91074 468.523 8.09194 467.782 8.4544C467.205 8.7444 466.916 9.067 466.916 9.4222ZM477.378 13.9458V9.55274C477.378 9.20474 477.703 8.8604 478.356 8.51967C479.155 8.11367 480.147 7.90707 481.332 7.8998V9.05247C480.651 9.05247 480.177 9.183 479.909 9.44394C479.821 9.53094 479.777 9.61434 479.777 9.69407V13.9458H477.378ZM482.31 9.05247V7.8998C483.716 7.8998 484.819 8.17894 485.619 8.73714C486.048 9.02714 486.262 9.299 486.262 9.55274V13.9458H483.863V9.69407C483.863 9.4766 483.649 9.3026 483.22 9.17207C482.953 9.09234 482.649 9.05247 482.31 9.05247ZM487.774 12.3039V9.55274C487.789 9.183 488.121 8.8314 488.773 8.49794C489.499 8.1282 490.365 7.93974 491.371 7.93247H492.66V9.06334H491.371C490.839 9.06334 490.446 9.183 490.195 9.4222C490.12 9.49467 490.084 9.55634 490.084 9.60707V12.2821C490.084 12.4416 490.276 12.5829 490.661 12.7062C490.898 12.7859 491.15 12.8258 491.416 12.8258H492.66V13.9458H491.416C490.068 13.9458 489.032 13.6595 488.306 13.0868C487.951 12.8041 487.774 12.5431 487.774 12.3039ZM493.771 13.9458V6.21436H496.214V13.9458H493.771ZM498.058 13.9458V7.9216H500.457V8.67194C500.871 8.35294 501.493 8.1246 502.323 7.98687C502.707 7.9216 503.085 7.88894 503.456 7.88894H504.033L503.478 9.03074C502.604 9.038 501.841 9.2446 501.19 9.65054C500.7 9.96227 500.457 10.2849 500.457 10.6183V13.9458H498.058Z" fill="url(#paint39_linear_293_40)"/>
<path d="M643.636 13.0439V6.71026H645.793V9.36137H647.064V10.3476H645.793V13.0439H643.636ZM648.084 10.3476V9.36137H649.356V6.71026H651.511V13.0439H649.356V10.3476H648.084ZM652.594 7.69651V6.71026H660.928V7.69651H657.845V13.0439H655.692V7.69651H652.594ZM662.069 13.0439V8.75511H662.242L664.223 10.99V13.0439H662.069ZM662.069 7.36171V6.71026H663.781L667.863 11.37L670.523 8.54704H670.716V10.8452L668.632 13.0439H667.088L662.069 7.36171ZM671.696 13.0439V6.71026H673.85V13.0439H671.696ZM675.452 13.0439V6.71026H677.612V12.0486H682.695V13.0439H675.452ZM688.412 10.8452V9.93137H694.501V10.8452H688.412ZM700.648 11.4062C700.648 11.756 700.917 12.0968 701.474 12.4286C702.218 12.8629 703.211 13.0831 704.461 13.0891V12.0848C703.698 12.0848 703.179 11.928 702.897 11.6143C702.82 11.5298 702.775 11.4605 702.775 11.4062V8.35704C702.775 8.19411 702.942 8.03731 703.263 7.88651C703.602 7.74777 703.993 7.67537 704.461 7.66937V6.66504C703.006 6.66504 701.91 6.95457 701.186 7.53364C700.821 7.81711 700.648 8.09157 700.648 8.35704V11.4062ZM705.442 13.0891C706.455 13.0891 707.333 12.9021 708.076 12.5281C708.717 12.1964 709.044 11.8194 709.044 11.3971L706.961 11.1619C706.961 11.2282 706.954 11.2705 706.942 11.2886C706.942 11.4152 706.91 11.5238 706.845 11.6143C706.743 11.7349 706.57 11.8344 706.346 11.9129C706.115 11.9913 705.903 12.0396 705.705 12.0576L705.442 12.0848V13.0891ZM705.442 7.66937C705.442 7.66937 705.602 7.69351 705.942 7.74171C706.378 7.84431 706.679 7.99204 706.845 8.18511C706.91 8.27557 706.942 8.37811 706.942 8.49271V8.62844L709.044 8.37511C709.044 7.91064 708.627 7.49744 707.807 7.13551C707.076 6.82184 706.288 6.66504 705.442 6.66504V7.66937ZM709.967 11.6143L711.909 11.2886C711.986 11.6806 712.441 11.9521 713.274 12.1029C713.428 12.127 713.505 12.139 713.505 12.139V13.071C712.402 13.071 711.467 12.8478 710.698 12.4015C710.223 12.118 709.98 11.8556 709.967 11.6143ZM710.121 8.42944C710.121 7.77191 710.723 7.27724 711.928 6.94551C712.492 6.79471 713.024 6.7163 713.505 6.71026V7.66031C713.114 7.69044 712.761 7.79904 712.467 7.98604C712.274 8.11871 712.185 8.26051 712.185 8.41131C712.185 8.72497 712.659 8.97531 713.627 9.16224C713.857 9.20451 714.21 9.26177 714.703 9.33417C715.319 9.42471 715.748 9.49704 715.998 9.55131C717.107 9.81071 717.838 10.1183 718.165 10.4742C718.363 10.6854 718.459 10.9176 718.459 11.171C718.459 11.7018 718.024 12.1632 717.145 12.5553C716.363 12.8991 715.485 13.071 714.511 13.071V12.139C714.998 12.127 715.434 12.0184 715.819 11.8134C716.139 11.6324 716.299 11.4243 716.299 11.189C716.299 10.8211 715.755 10.5436 714.665 10.3566C714.434 10.3144 714.075 10.2601 713.588 10.1937C713.05 10.1214 712.678 10.0641 712.486 10.0218C711.409 9.79864 710.717 9.51217 710.403 9.16224C710.217 8.95117 710.121 8.70684 710.121 8.42944ZM714.511 7.66031V6.71026C715.614 6.71026 716.537 6.93344 717.28 7.37984C717.684 7.62111 717.895 7.84124 717.921 8.04031L715.94 8.34797C715.883 8.16697 715.735 8.01924 715.492 7.90457C715.261 7.78997 715.043 7.72064 714.838 7.69651L714.511 7.66031ZM719.344 11.6143L721.286 11.2886C721.369 11.6806 721.824 11.9521 722.658 12.1029C722.811 12.127 722.888 12.139 722.888 12.139V13.071C721.786 13.071 720.85 12.8478 720.074 12.4015C719.6 12.118 719.357 11.8556 719.344 11.6143ZM719.498 8.42944C719.498 7.77191 720.1 7.27724 721.312 6.94551C721.869 6.79471 722.401 6.7163 722.888 6.71026V7.66031C722.491 7.69044 722.145 7.79904 721.85 7.98604C721.658 8.11871 721.562 8.26051 721.562 8.41131C721.562 8.72497 722.036 8.97531 723.004 9.16224C723.234 9.20451 723.593 9.26177 724.08 9.33417C724.702 9.42471 725.125 9.49704 725.375 9.55131C726.49 9.81071 727.215 10.1183 727.554 10.4742C727.74 10.6854 727.836 10.9176 727.836 11.171C727.836 11.7018 727.401 12.1632 726.529 12.5553C725.74 12.8991 724.862 13.071 723.888 13.071V12.139C724.375 12.127 724.811 12.0184 725.196 11.8134C725.522 11.6324 725.683 11.4243 725.683 11.189C725.683 10.8211 725.132 10.5436 724.042 10.3566C723.811 10.3144 723.452 10.2601 722.965 10.1937C722.427 10.1214 722.055 10.0641 721.869 10.0218C720.792 9.79864 720.094 9.51217 719.793 9.16224C719.594 8.95117 719.498 8.70684 719.498 8.42944ZM723.888 7.66031V6.71026C724.991 6.71026 725.913 6.93344 726.663 7.37984C727.061 7.62111 727.272 7.84124 727.298 8.04031L725.317 8.34797C725.266 8.16697 725.112 8.01924 724.869 7.90457C724.644 7.78997 724.426 7.72064 724.215 7.69651L723.888 7.66031ZM733.669 10.8452V9.93137H739.758V10.8452H733.669ZM745.462 11.2976V10.8542H747.622V11.2795C747.635 11.6294 747.968 11.8767 748.641 12.0214C748.814 12.0576 748.968 12.0757 749.096 12.0757V13.0891C748.398 13.0891 747.686 12.9624 746.962 12.7091C745.969 12.3472 745.475 11.8767 745.462 11.2976ZM750.083 13.0891V12.0757C750.391 12.0757 750.731 12.0094 751.103 11.8767C751.519 11.7198 751.724 11.5268 751.737 11.2976V6.71026H753.878V11.2976C753.878 11.9672 753.243 12.4738 751.968 12.8176C751.301 12.9986 750.673 13.0891 750.083 13.0891ZM754.993 11.6143L756.941 11.2886C757.018 11.6806 757.467 11.9521 758.307 12.1029C758.454 12.127 758.537 12.139 758.537 12.139V13.071C757.435 13.071 756.493 12.8478 755.724 12.4015C755.249 12.118 755.006 11.8556 754.993 11.6143ZM755.147 8.42944C755.147 7.77191 755.749 7.27724 756.961 6.94551C757.518 6.79471 758.05 6.7163 758.537 6.71026V7.66031C758.14 7.69044 757.794 7.79904 757.493 7.98604C757.307 8.11871 757.211 8.26051 757.211 8.41131C757.211 8.72497 757.685 8.97531 758.653 9.16224C758.884 9.20451 759.249 9.26177 759.73 9.33417C760.345 9.42471 760.781 9.49704 761.024 9.55131C762.14 9.81071 762.864 10.1183 763.204 10.4742C763.389 10.6854 763.485 10.9176 763.485 11.171C763.485 11.7018 763.05 12.1632 762.178 12.5553C761.39 12.8991 760.512 13.071 759.537 13.071V12.139C760.031 12.127 760.46 12.0184 760.851 11.8134C761.172 11.6324 761.326 11.4243 761.326 11.189C761.326 10.8211 760.781 10.5436 759.691 10.3566C759.46 10.3144 759.101 10.2601 758.614 10.1937C758.076 10.1214 757.704 10.0641 757.512 10.0218C756.442 9.79864 755.743 9.51217 755.442 9.16224C755.243 8.95117 755.147 8.70684 755.147 8.42944ZM759.537 7.66031V6.71026C760.64 6.71026 761.569 6.93344 762.313 7.37984C762.71 7.62111 762.921 7.84124 762.947 8.04031L760.967 8.34797C760.915 8.16697 760.768 8.01924 760.518 7.90457C760.294 7.78997 760.076 7.72064 759.864 7.69651L759.537 7.66031Z" fill="url(#paint40_linear_293_40)"/>
<defs>
<linearGradient id="paint0_linear_293_40" x1="400" y1="20.0116" x2="400" y2="0.000827758" gradientUnits="userSpaceOnUse">
<stop stop-color="#D0A40B"/>
<stop offset="0.5" stop-color="#FFF200"/>
<stop offset="0.6238" stop-color="#FFE600"/>
<stop offset="0.7725" stop-color="#F1D200"/>
<stop offset="0.9334" stop-color="#DBB307"/>
<stop offset="1" stop-color="#D0A40B"/>
</linearGradient>
<linearGradient id="paint1_linear_293_40" x1="599.003" y1="20.0116" x2="599.003" y2="0.000827759" gradientUnits="userSpaceOnUse">
<stop stop-color="#D0A40B"/>
<stop offset="0.5" stop-color="#FFF200"/>
<stop offset="0.6238" stop-color="#FFE600"/>
<stop offset="0.7725" stop-color="#F1D200"/>
<stop offset="0.9334" stop-color="#DBB307"/>
<stop offset="1" stop-color="#D0A40B"/>
</linearGradient>
<linearGradient id="paint2_linear_293_40" x1="393.941" y1="9.99507" x2="355.545" y2="9.99507" gradientUnits="userSpaceOnUse">
<stop/>
<stop offset="0.0297515" stop-color="#050505"/>
<stop offset="0.1898" stop-color="#191919"/>
<stop offset="0.3478" stop-color="#262526"/>
<stop offset="0.5" stop-color="#2A292A"/>
<stop offset="0.6464" stop-color="#252425"/>
<stop offset="0.8223" stop-color="#161616"/>
<stop offset="1"/>
</linearGradient>
<linearGradient id="paint3_linear_293_40" x1="367.232" y1="9.99507" x2="328.836" y2="9.99507" gradientUnits="userSpaceOnUse">
<stop/>
<stop offset="0.0297515" stop-color="#050505"/>
<stop offset="0.1898" stop-color="#191919"/>
<stop offset="0.3478" stop-color="#262526"/>
<stop offset="0.5" stop-color="#2A292A"/>
<stop offset="0.6464" stop-color="#252425"/>
<stop offset="0.8223" stop-color="#161616"/>
<stop offset="1"/>
</linearGradient>
<linearGradient id="paint4_linear_293_40" x1="340.522" y1="9.99507" x2="302.126" y2="9.99507" gradientUnits="userSpaceOnUse">
<stop/>
<stop offset="0.0297515" stop-color="#050505"/>
<stop offset="0.1898" stop-color="#191919"/>
<stop offset="0.3478" stop-color="#262526"/>
<stop offset="0.5" stop-color="#2A292A"/>
<stop offset="0.6464" stop-color="#252425"/>
<stop offset="0.8223" stop-color="#161616"/>
<stop offset="1"/>
</linearGradient>
<linearGradient id="paint5_linear_293_40" x1="313.813" y1="9.99507" x2="275.417" y2="9.99507" gradientUnits="userSpaceOnUse">
<stop/>
<stop offset="0.0297515" stop-color="#050505"/>
<stop offset="0.1898" stop-color="#191919"/>
<stop offset="0.3478" stop-color="#262526"/>
<stop offset="0.5" stop-color="#2A292A"/>
<stop offset="0.6464" stop-color="#252425"/>
<stop offset="0.8223" stop-color="#161616"/>
<stop offset="1"/>
</linearGradient>
<linearGradient id="paint6_linear_293_40" x1="287.104" y1="9.99507" x2="248.708" y2="9.99507" gradientUnits="userSpaceOnUse">
<stop/>
<stop offset="0.0297515" stop-color="#050505"/>
<stop offset="0.1898" stop-color="#191919"/>
<stop offset="0.3478" stop-color="#262526"/>
<stop offset="0.5" stop-color="#2A292A"/>
<stop offset="0.6464" stop-color="#252425"/>
<stop offset="0.8223" stop-color="#161616"/>
<stop offset="1"/>
</linearGradient>
<linearGradient id="paint7_linear_293_40" x1="260.396" y1="9.99507" x2="221.999" y2="9.99507" gradientUnits="userSpaceOnUse">
<stop/>
<stop offset="0.0297515" stop-color="#050505"/>
<stop offset="0.1898" stop-color="#191919"/>
<stop offset="0.3478" stop-color="#262526"/>
<stop offset="0.5" stop-color="#2A292A"/>
<stop offset="0.6464" stop-color="#252425"/>
<stop offset="0.8223" stop-color="#161616"/>
<stop offset="1"/>
</linearGradient>
<linearGradient id="paint8_linear_293_40" x1="233.688" y1="9.99507" x2="195.29" y2="9.99507" gradientUnits="userSpaceOnUse">
<stop/>
<stop offset="0.0297515" stop-color="#050505"/>
<stop offset="0.1898" stop-color="#191919"/>
<stop offset="0.3478" stop-color="#262526"/>
<stop offset="0.5" stop-color="#2A292A"/>
<stop offset="0.6464" stop-color="#252425"/>
<stop offset="0.8223" stop-color="#161616"/>
<stop offset="1"/>
</linearGradient>
<linearGradient id="paint9_linear_293_40" x1="206.978" y1="9.99507" x2="168.581" y2="9.99507" gradientUnits="userSpaceOnUse">
<stop/>
<stop offset="0.0297515" stop-color="#050505"/>
<stop offset="0.1898" stop-color="#191919"/>
<stop offset="0.3478" stop-color="#262526"/>
<stop offset="0.5" stop-color="#2A292A"/>
<stop offset="0.6464" stop-color="#252425"/>
<stop offset="0.8223" stop-color="#161616"/>
<stop offset="1"/>
</linearGradient>
<linearGradient id="paint10_linear_293_40" x1="180.269" y1="9.99507" x2="141.872" y2="9.99507" gradientUnits="userSpaceOnUse">
<stop/>
<stop offset="0.0297515" stop-color="#050505"/>
<stop offset="0.1898" stop-color="#191919"/>
<stop offset="0.3478" stop-color="#262526"/>
<stop offset="0.5" stop-color="#2A292A"/>
<stop offset="0.6464" stop-color="#252425"/>
<stop offset="0.8223" stop-color="#161616"/>
<stop offset="1"/>
</linearGradient>
<linearGradient id="paint11_linear_293_40" x1="153.559" y1="9.99507" x2="115.162" y2="9.99507" gradientUnits="userSpaceOnUse">
<stop/>
<stop offset="0.0297515" stop-color="#050505"/>
<stop offset="0.1898" stop-color="#191919"/>
<stop offset="0.3478" stop-color="#262526"/>
<stop offset="0.5" stop-color="#2A292A"/>
<stop offset="0.6464" stop-color="#252425"/>
<stop offset="0.8223" stop-color="#161616"/>
<stop offset="1"/>
</linearGradient>
<linearGradient id="paint12_linear_293_40" x1="126.851" y1="9.99507" x2="88.4535" y2="9.99507" gradientUnits="userSpaceOnUse">
<stop/>
<stop offset="0.0297515" stop-color="#050505"/>
<stop offset="0.1898" stop-color="#191919"/>
<stop offset="0.3478" stop-color="#262526"/>
<stop offset="0.5" stop-color="#2A292A"/>
<stop offset="0.6464" stop-color="#252425"/>
<stop offset="0.8223" stop-color="#161616"/>
<stop offset="1"/>
</linearGradient>
<linearGradient id="paint13_linear_293_40" x1="100.141" y1="9.99507" x2="61.7439" y2="9.99507" gradientUnits="userSpaceOnUse">
<stop/>
<stop offset="0.0297515" stop-color="#050505"/>
<stop offset="0.1898" stop-color="#191919"/>
<stop offset="0.3478" stop-color="#262526"/>
<stop offset="0.5" stop-color="#2A292A"/>
<stop offset="0.6464" stop-color="#252425"/>
<stop offset="0.8223" stop-color="#161616"/>
<stop offset="1"/>
</linearGradient>
<linearGradient id="paint14_linear_293_40" x1="73.4327" y1="9.99507" x2="35.0353" y2="9.99507" gradientUnits="userSpaceOnUse">
<stop/>
<stop offset="0.0297515" stop-color="#050505"/>
<stop offset="0.1898" stop-color="#191919"/>
<stop offset="0.3478" stop-color="#262526"/>
<stop offset="0.5" stop-color="#2A292A"/>
<stop offset="0.6464" stop-color="#252425"/>
<stop offset="0.8223" stop-color="#161616"/>
<stop offset="1"/>
</linearGradient>
<linearGradient id="paint15_linear_293_40" x1="46.7232" y1="9.99507" x2="8.32632" y2="9.99507" gradientUnits="userSpaceOnUse">
<stop/>
<stop offset="0.0297515" stop-color="#050505"/>
<stop offset="0.1898" stop-color="#191919"/>
<stop offset="0.3478" stop-color="#262526"/>
<stop offset="0.5" stop-color="#2A292A"/>
<stop offset="0.6464" stop-color="#252425"/>
<stop offset="0.8223" stop-color="#161616"/>
<stop offset="1"/>
</linearGradient>
<linearGradient id="paint16_linear_293_40" x1="20.0135" y1="12.917" x2="0.0132098" y2="12.917" gradientUnits="userSpaceOnUse">
<stop/>
<stop offset="0.0297515" stop-color="#050505"/>
<stop offset="0.1898" stop-color="#191919"/>
<stop offset="0.3478" stop-color="#262526"/>
<stop offset="0.5" stop-color="#2A292A"/>
<stop offset="0.6464" stop-color="#252425"/>
<stop offset="0.8223" stop-color="#161616"/>
<stop offset="1"/>
</linearGradient>
<linearGradient id="paint17_linear_293_40" x1="793.361" y1="4.75698" x2="779.914" y2="4.75698" gradientUnits="userSpaceOnUse">
<stop/>
<stop offset="0.0297515" stop-color="#050505"/>
<stop offset="0.1898" stop-color="#191919"/>
<stop offset="0.3478" stop-color="#262526"/>
<stop offset="0.5" stop-color="#2A292A"/>
<stop offset="0.6464" stop-color="#252425"/>
<stop offset="0.8223" stop-color="#161616"/>
<stop offset="1"/>
</linearGradient>
<linearGradient id="paint18_linear_293_40" x1="791.6" y1="9.99507" x2="753.205" y2="9.99507" gradientUnits="userSpaceOnUse">
<stop/>
<stop offset="0.0297515" stop-color="#050505"/>
<stop offset="0.1898" stop-color="#191919"/>
<stop offset="0.3478" stop-color="#262526"/>
<stop offset="0.5" stop-color="#2A292A"/>
<stop offset="0.6464" stop-color="#252425"/>
<stop offset="0.8223" stop-color="#161616"/>
<stop offset="1"/>
</linearGradient>
<linearGradient id="paint19_linear_293_40" x1="764.892" y1="9.99507" x2="726.496" y2="9.99507" gradientUnits="userSpaceOnUse">
<stop/>
<stop offset="0.0297515" stop-color="#050505"/>
<stop offset="0.1898" stop-color="#191919"/>
<stop offset="0.3478" stop-color="#262526"/>
<stop offset="0.5" stop-color="#2A292A"/>
<stop offset="0.6464" stop-color="#252425"/>
<stop offset="0.8223" stop-color="#161616"/>
<stop offset="1"/>
</linearGradient>
<linearGradient id="paint20_linear_293_40" x1="738.182" y1="9.99507" x2="699.787" y2="9.99507" gradientUnits="userSpaceOnUse">
<stop/>
<stop offset="0.0297515" stop-color="#050505"/>
<stop offset="0.1898" stop-color="#191919"/>
<stop offset="0.3478" stop-color="#262526"/>
<stop offset="0.5" stop-color="#2A292A"/>
<stop offset="0.6464" stop-color="#252425"/>
<stop offset="0.8223" stop-color="#161616"/>
<stop offset="1"/>
</linearGradient>
<linearGradient id="paint21_linear_293_40" x1="711.473" y1="9.99507" x2="673.078" y2="9.99507" gradientUnits="userSpaceOnUse">
<stop/>
<stop offset="0.0297515" stop-color="#050505"/>
<stop offset="0.1898" stop-color="#191919"/>
<stop offset="0.3478" stop-color="#262526"/>
<stop offset="0.5" stop-color="#2A292A"/>
<stop offset="0.6464" stop-color="#252425"/>
<stop offset="0.8223" stop-color="#161616"/>
<stop offset="1"/>
</linearGradient>
<linearGradient id="paint22_linear_293_40" x1="684.763" y1="9.99507" x2="646.365" y2="9.99507" gradientUnits="userSpaceOnUse">
<stop/>
<stop offset="0.0297515" stop-color="#050505"/>
<stop offset="0.1898" stop-color="#191919"/>
<stop offset="0.3478" stop-color="#262526"/>
<stop offset="0.5" stop-color="#2A292A"/>
<stop offset="0.6464" stop-color="#252425"/>
<stop offset="0.8223" stop-color="#161616"/>
<stop offset="1"/>
</linearGradient>
<linearGradient id="paint23_linear_293_40" x1="658.053" y1="9.99507" x2="619.655" y2="9.99507" gradientUnits="userSpaceOnUse">
<stop/>
<stop offset="0.0297515" stop-color="#050505"/>
<stop offset="0.1898" stop-color="#191919"/>
<stop offset="0.3478" stop-color="#262526"/>
<stop offset="0.5" stop-color="#2A292A"/>
<stop offset="0.6464" stop-color="#252425"/>
<stop offset="0.8223" stop-color="#161616"/>
<stop offset="1"/>
</linearGradient>
<linearGradient id="paint24_linear_293_40" x1="631.344" y1="9.99507" x2="592.947" y2="9.99507" gradientUnits="userSpaceOnUse">
<stop/>
<stop offset="0.0297515" stop-color="#050505"/>
<stop offset="0.1898" stop-color="#191919"/>
<stop offset="0.3478" stop-color="#262526"/>
<stop offset="0.5" stop-color="#2A292A"/>
<stop offset="0.6464" stop-color="#252425"/>
<stop offset="0.8223" stop-color="#161616"/>
<stop offset="1"/>
</linearGradient>
<linearGradient id="paint25_linear_293_40" x1="604.634" y1="9.99507" x2="566.237" y2="9.99507" gradientUnits="userSpaceOnUse">
<stop/>
<stop offset="0.0297515" stop-color="#050505"/>
<stop offset="0.1898" stop-color="#191919"/>
<stop offset="0.3478" stop-color="#262526"/>
<stop offset="0.5" stop-color="#2A292A"/>
<stop offset="0.6464" stop-color="#252425"/>
<stop offset="0.8223" stop-color="#161616"/>
<stop offset="1"/>
</linearGradient>
<linearGradient id="paint26_linear_293_40" x1="577.926" y1="9.99507" x2="539.529" y2="9.99507" gradientUnits="userSpaceOnUse">
<stop/>
<stop offset="0.0297515" stop-color="#050505"/>
<stop offset="0.1898" stop-color="#191919"/>
<stop offset="0.3478" stop-color="#262526"/>
<stop offset="0.5" stop-color="#2A292A"/>
<stop offset="0.6464" stop-color="#252425"/>
<stop offset="0.8223" stop-color="#161616"/>
<stop offset="1"/>
</linearGradient>
<linearGradient id="paint27_linear_293_40" x1="551.216" y1="9.99507" x2="512.819" y2="9.99507" gradientUnits="userSpaceOnUse">
<stop/>
<stop offset="0.0297515" stop-color="#050505"/>
<stop offset="0.1898" stop-color="#191919"/>
<stop offset="0.3478" stop-color="#262526"/>
<stop offset="0.5" stop-color="#2A292A"/>
<stop offset="0.6464" stop-color="#252425"/>
<stop offset="0.8223" stop-color="#161616"/>
<stop offset="1"/>
</linearGradient>
<linearGradient id="paint28_linear_293_40" x1="524.507" y1="9.99507" x2="486.11" y2="9.99507" gradientUnits="userSpaceOnUse">
<stop/>
<stop offset="0.0297515" stop-color="#050505"/>
<stop offset="0.1898" stop-color="#191919"/>
<stop offset="0.3478" stop-color="#262526"/>
<stop offset="0.5" stop-color="#2A292A"/>
<stop offset="0.6464" stop-color="#252425"/>
<stop offset="0.8223" stop-color="#161616"/>
<stop offset="1"/>
</linearGradient>
<linearGradient id="paint29_linear_293_40" x1="497.797" y1="9.99507" x2="459.4" y2="9.99507" gradientUnits="userSpaceOnUse">
<stop/>
<stop offset="0.0297515" stop-color="#050505"/>
<stop offset="0.1898" stop-color="#191919"/>
<stop offset="0.3478" stop-color="#262526"/>
<stop offset="0.5" stop-color="#2A292A"/>
<stop offset="0.6464" stop-color="#252425"/>
<stop offset="0.8223" stop-color="#161616"/>
<stop offset="1"/>
</linearGradient>
<linearGradient id="paint30_linear_293_40" x1="471.089" y1="9.99507" x2="432.692" y2="9.99507" gradientUnits="userSpaceOnUse">
<stop/>
<stop offset="0.0297515" stop-color="#050505"/>
<stop offset="0.1898" stop-color="#191919"/>
<stop offset="0.3478" stop-color="#262526"/>
<stop offset="0.5" stop-color="#2A292A"/>
<stop offset="0.6464" stop-color="#252425"/>
<stop offset="0.8223" stop-color="#161616"/>
<stop offset="1"/>
</linearGradient>
<linearGradient id="paint31_linear_293_40" x1="418.923" y1="9.99507" x2="380.526" y2="9.99507" gradientUnits="userSpaceOnUse">
<stop/>
<stop offset="0.0297515" stop-color="#050505"/>
<stop offset="0.1898" stop-color="#191919"/>
<stop offset="0.3478" stop-color="#262526"/>
<stop offset="0.5" stop-color="#2A292A"/>
<stop offset="0.6464" stop-color="#252425"/>
<stop offset="0.8223" stop-color="#161616"/>
<stop offset="1"/>
</linearGradient>
<linearGradient id="paint32_linear_293_40" x1="444.38" y1="9.99507" x2="405.983" y2="9.99507" gradientUnits="userSpaceOnUse">
<stop/>
<stop offset="0.0297515" stop-color="#050505"/>
<stop offset="0.1898" stop-color="#191919"/>
<stop offset="0.3478" stop-color="#262526"/>
<stop offset="0.5" stop-color="#2A292A"/>
<stop offset="0.6464" stop-color="#252425"/>
<stop offset="0.8223" stop-color="#161616"/>
<stop offset="1"/>
</linearGradient>
<linearGradient id="paint33_linear_293_40" x1="400" y1="20.0453" x2="400" y2="0.224254" gradientUnits="userSpaceOnUse">
<stop stop-color="#D0A40B"/>
<stop offset="0.5" stop-color="#FFF200"/>
<stop offset="0.6238" stop-color="#FFE600"/>
<stop offset="0.7725" stop-color="#F1D200"/>
<stop offset="0.9334" stop-color="#DBB307"/>
<stop offset="1" stop-color="#D0A40B"/>
</linearGradient>
<linearGradient id="paint34_linear_293_40" x1="599.668" y1="20.0453" x2="599.668" y2="0.224252" gradientUnits="userSpaceOnUse">
<stop stop-color="#D0A40B"/>
<stop offset="0.5" stop-color="#FFF200"/>
<stop offset="0.6238" stop-color="#FFE600"/>
<stop offset="0.7725" stop-color="#F1D200"/>
<stop offset="0.9334" stop-color="#DBB307"/>
<stop offset="1" stop-color="#D0A40B"/>
</linearGradient>
<linearGradient id="paint35_linear_293_40" x1="149.119" y1="2.38228" x2="149.119" y2="15.0163" gradientUnits="userSpaceOnUse">
<stop offset="0.9999"/>
<stop offset="1" stop-opacity="0"/>
</linearGradient>
<linearGradient id="paint36_linear_293_40" x1="75.4144" y1="2.59664" x2="75.4144" y2="15.2307" gradientUnits="userSpaceOnUse">
<stop offset="0.9999"/>
<stop offset="1" stop-opacity="0"/>
</linearGradient>
<linearGradient id="paint37_linear_293_40" x1="316.936" y1="3.59341" x2="316.936" y2="14.7116" gradientUnits="userSpaceOnUse">
<stop offset="0.9999"/>
<stop offset="1" stop-opacity="0"/>
</linearGradient>
<linearGradient id="paint38_linear_293_40" x1="535.594" y1="2.38228" x2="535.594" y2="15.0163" gradientUnits="userSpaceOnUse">
<stop offset="0.9999"/>
<stop offset="1" stop-opacity="0"/>
</linearGradient>
<linearGradient id="paint39_linear_293_40" x1="461.889" y1="2.59664" x2="461.889" y2="15.2307" gradientUnits="userSpaceOnUse">
<stop offset="0.9999"/>
<stop offset="1" stop-opacity="0"/>
</linearGradient>
<linearGradient id="paint40_linear_293_40" x1="703.41" y1="3.59341" x2="703.41" y2="14.7116" gradientUnits="userSpaceOnUse">
<stop offset="0.9999"/>
<stop offset="1" stop-opacity="0"/>
</linearGradient>
</defs>
</svg>
