<svg width="500" height="30" viewBox="0 0 500 30" fill="none" xmlns="http://www.w3.org/2000/svg">
<g clip-path="url(#clip0_190_63)">
<path d="M499.644 0H0.712891V29.9665H499.644V0Z" fill="url(#paint0_linear_190_63)"/>
<path d="M495.474 0L499.643 3.51563V14.2634L482.68 0H495.474Z" fill="url(#paint1_linear_190_63)"/>
<path d="M461.796 0L497.434 30H484.64L449.002 0H461.796Z" fill="url(#paint2_linear_190_63)"/>
<path d="M428.118 0L463.756 30H450.962L415.324 0H428.118Z" fill="url(#paint3_linear_190_63)"/>
<path d="M394.441 0L430.078 30H417.284L381.646 0H394.441Z" fill="url(#paint4_linear_190_63)"/>
<path d="M360.763 0L396.401 30H383.607L347.969 0H360.763Z" fill="url(#paint5_linear_190_63)"/>
<path d="M327.085 0L362.723 30H349.929L314.291 0H327.085Z" fill="url(#paint6_linear_190_63)"/>
<path d="M293.407 0L329.045 30H316.251L280.613 0H293.407Z" fill="url(#paint7_linear_190_63)"/>
<path d="M259.73 0L295.367 30H282.573L246.936 0H259.73Z" fill="url(#paint8_linear_190_63)"/>
<path d="M226.052 0L261.69 30H248.896L213.258 0H226.052Z" fill="url(#paint9_linear_190_63)"/>
<path d="M192.373 0L228.011 30H215.217L179.579 0H192.373Z" fill="url(#paint10_linear_190_63)"/>
<path d="M158.695 0L194.333 30H181.539L145.901 0H158.695Z" fill="url(#paint11_linear_190_63)"/>
<path d="M125.018 0L160.656 30H147.862L112.224 0H125.018Z" fill="url(#paint12_linear_190_63)"/>
<path d="M91.3399 0L126.978 30H114.184L78.5459 0H91.3399Z" fill="url(#paint13_linear_190_63)"/>
<path d="M57.6622 0L93.3001 30H80.5061L44.8682 0H57.6622Z" fill="url(#paint14_linear_190_63)"/>
<path d="M23.9844 0L59.6222 30H46.8282L11.1904 0H23.9844Z" fill="url(#paint15_linear_190_63)"/>
<path d="M0.712891 8.77246L25.9445 30.0001H13.1505L0.712891 19.5202V8.77246Z" fill="url(#paint16_linear_190_63)"/>
<path d="M499.644 5.89258H0.712891V24.0734H499.644V5.89258Z" fill="url(#paint17_linear_190_63)"/>
<path d="M197.79 20.4746V9.08137H199.739V13.8503H200.888V15.6243H199.739V20.4746H197.79ZM201.81 15.6243V13.8503H202.958V9.08137H204.907V20.4746H202.958V15.6243H201.81ZM205.882 10.8555V9.08137H213.417V10.8555H210.632V20.4746H208.683V10.8555H205.882ZM214.443 20.4746V12.7598H214.6L216.392 16.7799V20.4746H214.443ZM214.443 10.2532V9.08137H215.992L219.681 17.4635L222.082 12.3854H222.256V16.5195L220.377 20.4746H218.985L214.443 10.2532ZM223.144 20.4746V9.08137H225.093V20.4746H223.144ZM226.537 20.4746V9.08137H228.486V18.6842H233.08V20.4746H226.537ZM238.248 16.5195V14.8756H243.747V16.5195H238.248ZM249.298 17.5286C249.298 18.158 249.547 18.771 250.046 19.3678C250.719 20.1491 251.618 20.5451 252.743 20.556V18.7493C252.059 18.7493 251.589 18.4672 251.334 17.903C251.264 17.7511 251.229 17.6263 251.229 17.5286V12.0436C251.229 11.7506 251.374 11.4685 251.665 11.1973C251.966 10.9477 252.326 10.8175 252.743 10.8066V9C251.433 9 250.446 9.52083 249.785 10.5625C249.46 11.0725 249.298 11.5662 249.298 12.0436V17.5286ZM253.631 20.556C254.547 20.556 255.342 20.2196 256.015 19.5469C256.595 18.9501 256.885 18.2719 256.885 17.5124L255.006 17.0892C255.006 17.2085 255 17.2845 254.988 17.317C254.988 17.5449 254.959 17.7402 254.901 17.903C254.809 18.12 254.657 18.299 254.449 18.4401C254.24 18.5812 254.048 18.668 253.874 18.7005L253.631 18.7493V20.556ZM253.631 10.8066C253.631 10.8066 253.782 10.85 254.083 10.9368C254.478 11.1213 254.75 11.3871 254.901 11.7344C254.959 11.8971 254.988 12.0816 254.988 12.2878V12.5319L256.885 12.0762C256.885 11.2407 256.514 10.4974 255.771 9.84633C255.11 9.2821 254.397 9 253.631 9V10.8066ZM257.72 17.903L259.478 17.317C259.547 18.0223 259.959 18.5106 260.713 18.7819C260.852 18.8253 260.922 18.847 260.922 18.847V20.5234C259.924 20.5234 259.078 20.122 258.382 19.319C257.952 18.809 257.732 18.337 257.72 17.903ZM257.86 12.1738C257.86 10.9911 258.405 10.1013 259.495 9.50453C260.006 9.23327 260.481 9.09223 260.922 9.08137V10.7904C260.562 10.8446 260.249 11.0399 259.982 11.3763C259.809 11.615 259.721 11.87 259.721 12.1413C259.721 12.7055 260.156 13.1558 261.027 13.4922C261.235 13.5681 261.56 13.6712 262.001 13.8014C262.558 13.9642 262.946 14.0944 263.167 14.192C264.176 14.6586 264.832 15.212 265.133 15.8522C265.307 16.232 265.394 16.6497 265.394 17.1055C265.394 18.0603 265 18.8904 264.211 19.5957C263.503 20.2142 262.709 20.5234 261.827 20.5234V18.847C262.268 18.8253 262.662 18.63 263.01 18.2611C263.3 17.9355 263.445 17.5612 263.445 17.138C263.445 16.4761 262.952 15.977 261.966 15.6406C261.757 15.5647 261.433 15.467 260.992 15.3476C260.505 15.2174 260.174 15.1144 260 15.0384C259.025 14.6369 258.399 14.1215 258.12 13.4922C257.946 13.1124 257.86 12.673 257.86 12.1738ZM261.827 10.7904V9.08137C262.825 9.08137 263.66 9.48283 264.333 10.2858C264.692 10.7198 264.884 11.1159 264.907 11.4739L263.115 12.0273C263.068 11.7018 262.935 11.436 262.714 11.2298C262.506 11.0236 262.309 10.8989 262.123 10.8555L261.827 10.7904ZM266.195 17.903L267.952 17.317C268.022 18.0223 268.434 18.5106 269.188 18.7819C269.327 18.8253 269.397 18.847 269.397 18.847V20.5234C268.399 20.5234 267.552 20.122 266.856 19.319C266.427 18.809 266.206 18.337 266.195 17.903ZM266.334 12.1738C266.334 10.9911 266.879 10.1013 267.97 9.50453C268.48 9.23327 268.956 9.09223 269.397 9.08137V10.7904C269.037 10.8446 268.724 11.0399 268.457 11.3763C268.283 11.615 268.196 11.87 268.196 12.1413C268.196 12.7055 268.631 13.1558 269.501 13.4922C269.71 13.5681 270.035 13.6712 270.475 13.8014C271.032 13.9642 271.421 14.0944 271.641 14.192C272.651 14.6586 273.306 15.212 273.608 15.8522C273.782 16.232 273.869 16.6497 273.869 17.1055C273.869 18.0603 273.474 18.8904 272.685 19.5957C271.978 20.2142 271.183 20.5234 270.301 20.5234V18.847C270.742 18.8253 271.137 18.63 271.485 18.2611C271.775 17.9355 271.92 17.5612 271.92 17.138C271.92 16.4761 271.427 15.977 270.441 15.6406C270.232 15.5647 269.907 15.467 269.466 15.3476C268.979 15.2174 268.648 15.1144 268.474 15.0384C267.5 14.6369 266.873 14.1215 266.595 13.4922C266.421 13.1124 266.334 12.673 266.334 12.1738ZM270.301 10.7904V9.08137C271.299 9.08137 272.134 9.48283 272.807 10.2858C273.167 10.7198 273.358 11.1159 273.381 11.4739L271.589 12.0273C271.543 11.7018 271.409 11.436 271.189 11.2298C270.98 11.0236 270.783 10.8989 270.597 10.8555L270.301 10.7904ZM279.141 16.5195V14.8756H284.64V16.5195H279.141ZM289.791 17.3333V16.5358H291.74V17.3008C291.752 17.9301 292.059 18.375 292.662 18.6354C292.825 18.7005 292.964 18.7331 293.08 18.7331V20.556C292.442 20.556 291.798 20.3281 291.148 19.8724C290.255 19.2213 289.803 18.375 289.791 17.3333ZM293.967 20.556V18.7331C294.245 18.7331 294.553 18.6137 294.889 18.375C295.261 18.0929 295.452 17.7457 295.464 17.3333V9.08137H297.395V17.3333C297.395 18.5378 296.821 19.4492 295.672 20.0677C295.069 20.3932 294.501 20.556 293.967 20.556ZM298.404 17.903L300.162 17.317C300.232 18.0223 300.644 18.5106 301.398 18.7819C301.537 18.8253 301.607 18.847 301.607 18.847V20.5234C300.609 20.5234 299.762 20.122 299.066 19.319C298.636 18.809 298.416 18.337 298.404 17.903ZM298.544 12.1738C298.544 10.9911 299.089 10.1013 300.18 9.50453C300.69 9.23327 301.166 9.09223 301.607 9.08137V10.7904C301.247 10.8446 300.934 11.0399 300.667 11.3763C300.493 11.615 300.406 11.87 300.406 12.1413C300.406 12.7055 300.841 13.1558 301.711 13.4922C301.92 13.5681 302.244 13.6712 302.685 13.8014C303.242 13.9642 303.631 14.0944 303.851 14.192C304.861 14.6586 305.516 15.212 305.817 15.8522C305.991 16.232 306.079 16.6497 306.079 17.1055C306.079 18.0603 305.684 18.8904 304.895 19.5957C304.188 20.2142 303.393 20.5234 302.511 20.5234V18.847C302.952 18.8253 303.347 18.63 303.695 18.2611C303.985 17.9355 304.13 17.5612 304.13 17.138C304.13 16.4761 303.636 15.977 302.65 15.6406C302.441 15.5647 302.117 15.467 301.676 15.3476C301.189 15.2174 300.858 15.1144 300.684 15.0384C299.709 14.6369 299.083 14.1215 298.805 13.4922C298.631 13.1124 298.544 12.673 298.544 12.1738ZM302.511 10.7904V9.08137C303.509 9.08137 304.344 9.48283 305.017 10.2858C305.377 10.7198 305.568 11.1159 305.591 11.4739L303.799 12.0273C303.753 11.7018 303.619 11.436 303.399 11.2298C303.19 11.0236 302.993 10.8989 302.807 10.8555L302.511 10.7904Z" fill="url(#paint18_linear_190_63)"/>
<path d="M423.36 20.6665V9.27326H425.31V14.0422H426.457V15.8162H425.31V20.6665H423.36ZM427.38 15.8162V14.0422H428.531V9.27326H430.477V20.6665H428.531V15.8162H427.38ZM431.454 11.0474V9.27326H438.988V11.0474H436.204V20.6665H434.255V11.0474H431.454ZM440.014 20.6665V12.9517H440.171L441.963 16.9718V20.6665H440.014ZM440.014 10.4451V9.27326H441.564L445.253 17.6554L447.655 12.5773H447.829V16.7114L445.948 20.6665H444.558L440.014 10.4451ZM448.717 20.6665V9.27326H450.663V20.6665H448.717ZM452.109 20.6665V9.27326H454.059V18.8761H458.653V20.6665H452.109ZM463.82 16.7114V15.0675H469.319V16.7114H463.82ZM474.868 17.7205C474.868 18.3499 475.117 18.9629 475.616 19.5597C476.29 20.341 477.188 20.737 478.314 20.7479V18.9412C477.63 18.9412 477.159 18.6591 476.906 18.0949C476.835 17.943 476.799 17.8182 476.799 17.7205V12.2355C476.799 11.9425 476.946 11.6604 477.234 11.3892C477.537 11.1396 477.897 11.0094 478.314 10.9985V9.19189C477.003 9.19189 476.019 9.71273 475.356 10.7544C475.032 11.2644 474.868 11.7581 474.868 12.2355V17.7205ZM479.201 20.7479C480.117 20.7479 480.912 20.4115 481.586 19.7388C482.166 19.142 482.455 18.4638 482.455 17.7043L480.577 17.2811C480.577 17.4004 480.57 17.4764 480.559 17.5089C480.559 17.7368 480.531 17.9321 480.474 18.0949C480.381 18.3119 480.228 18.4909 480.021 18.632C479.811 18.7731 479.618 18.8599 479.447 18.8924L479.201 18.9412V20.7479ZM479.201 10.9985C479.201 10.9985 479.355 11.0419 479.654 11.1287C480.05 11.3132 480.32 11.579 480.474 11.9263C480.531 12.089 480.559 12.2735 480.559 12.4797V12.7238L482.455 12.2681C482.455 11.4326 482.085 10.6893 481.343 10.0382C480.68 9.47399 479.968 9.19189 479.201 9.19189V10.9985ZM483.293 18.0949L485.05 17.5089C485.117 18.2142 485.531 18.7025 486.286 18.9738C486.425 19.0172 486.493 19.0389 486.493 19.0389V20.7153C485.495 20.7153 484.65 20.3139 483.952 19.5109C483.524 19.0009 483.303 18.5289 483.293 18.0949ZM483.432 12.3657C483.432 11.183 483.977 10.2932 485.067 9.69643C485.577 9.42516 486.051 9.28413 486.493 9.27326V10.9823C486.133 11.0365 485.819 11.2318 485.552 11.5682C485.381 11.8069 485.292 12.0619 485.292 12.3332C485.292 12.8974 485.727 13.3477 486.596 13.6841C486.807 13.76 487.131 13.8631 487.573 13.9933C488.129 14.1561 488.517 14.2863 488.738 14.3839C489.747 14.8505 490.402 15.4039 490.705 16.0441C490.88 16.4239 490.966 16.8416 490.966 17.2974C490.966 18.2522 490.57 19.0823 489.782 19.7876C489.073 20.4061 488.278 20.7153 487.398 20.7153V19.0389C487.84 19.0172 488.232 18.8219 488.581 18.453C488.87 18.1274 489.016 17.7531 489.016 17.3299C489.016 16.668 488.524 16.1689 487.537 15.8325C487.33 15.7566 487.003 15.6589 486.564 15.5395C486.076 15.4093 485.745 15.3063 485.57 15.2303C484.597 14.8288 483.97 14.3134 483.692 13.6841C483.517 13.3043 483.432 12.8649 483.432 12.3657ZM487.398 10.9823V9.27326C488.396 9.27326 489.23 9.67473 489.904 10.4777C490.263 10.9117 490.456 11.3078 490.477 11.6658L488.685 12.2192C488.638 11.8937 488.506 11.6279 488.286 11.4217C488.075 11.2155 487.879 11.0908 487.694 11.0474L487.398 10.9823ZM491.767 18.0949L493.524 17.5089C493.592 18.2142 494.005 18.7025 494.757 18.9738C494.9 19.0172 494.968 19.0389 494.968 19.0389V20.7153C493.97 20.7153 493.125 20.3139 492.427 19.5109C491.999 19.0009 491.778 18.5289 491.767 18.0949ZM491.906 12.3657C491.906 11.183 492.452 10.2932 493.542 9.69643C494.052 9.42516 494.526 9.28413 494.968 9.27326V10.9823C494.608 11.0365 494.294 11.2318 494.027 11.5682C493.856 11.8069 493.767 12.0619 493.767 12.3332C493.767 12.8974 494.201 13.3477 495.071 13.6841C495.281 13.76 495.606 13.8631 496.047 13.9933C496.603 14.1561 496.992 14.2863 497.213 14.3839C498.221 14.8505 498.877 15.4039 499.18 16.0441C499.355 16.4239 499.44 16.8416 499.44 17.2974C499.44 18.2522 499.045 19.0823 498.257 19.7876C497.548 20.4061 496.753 20.7153 495.873 20.7153V19.0389C496.315 19.0172 496.707 18.8219 497.056 18.453C497.345 18.1274 497.491 17.7531 497.491 17.3299C497.491 16.668 496.999 16.1689 496.012 15.8325C495.802 15.7566 495.477 15.6589 495.039 15.5395C494.551 15.4093 494.219 15.3063 494.045 15.2303C493.072 14.8288 492.444 14.3134 492.167 13.6841C491.992 13.3043 491.906 12.8649 491.906 12.3657ZM495.873 10.9823V9.27326C496.871 9.27326 497.705 9.67473 498.378 10.4777C498.738 10.9117 498.931 11.3078 498.952 11.6658L497.159 12.2192C497.113 11.8937 496.981 11.6279 496.76 11.4217C496.55 11.2155 496.354 11.0908 496.169 11.0474L495.873 10.9823Z" fill="url(#paint19_linear_190_63)"/>
<path d="M0.713867 20.6665V9.27326H2.66282V18.8761H7.25676V20.6665H0.713867ZM12.425 16.7114V15.0675H17.9238V16.7114H12.425ZM23.4748 17.7205C23.4748 18.3499 23.7242 18.9629 24.2231 19.5597C24.8959 20.341 25.795 20.737 26.9203 20.7479V18.9412C26.2358 18.9412 25.766 18.6591 25.5107 18.0949C25.4411 17.943 25.4064 17.8182 25.4064 17.7205V12.2355C25.4064 11.9425 25.5514 11.6604 25.8414 11.3892C26.143 11.1396 26.5026 11.0094 26.9203 10.9985V9.19189C25.6094 9.19189 24.6233 9.71273 23.962 10.7544C23.6372 11.2644 23.4748 11.7581 23.4748 12.2355V17.7205ZM27.8077 20.7479C28.7242 20.7479 29.5189 20.4115 30.1917 19.7388C30.7718 19.142 31.0618 18.4638 31.0618 17.7043L29.1825 17.2811C29.1825 17.4004 29.1766 17.4764 29.165 17.5089C29.165 17.7368 29.136 17.9321 29.078 18.0949C28.9852 18.3119 28.8344 18.4909 28.6256 18.632C28.4168 18.7731 28.2254 18.8599 28.0513 18.8924L27.8077 18.9412V20.7479ZM27.8077 10.9985C27.8077 10.9985 27.9585 11.0419 28.2602 11.1287C28.6546 11.3132 28.9272 11.579 29.078 11.9263C29.136 12.089 29.165 12.2735 29.165 12.4797V12.7238L31.0618 12.2681C31.0618 11.4326 30.6905 10.6893 29.9481 10.0382C29.2868 9.47399 28.5734 9.19189 27.8077 9.19189V10.9985ZM31.8971 18.0949L33.6546 17.5089C33.7242 18.2142 34.136 18.7025 34.8901 18.9738C35.0293 19.0172 35.0989 19.0389 35.0989 19.0389V20.7153C34.1012 20.7153 33.2543 20.3139 32.5583 19.5109C32.1291 19.0009 31.9086 18.5289 31.8971 18.0949ZM32.0363 12.3657C32.0363 11.183 32.5815 10.2932 33.672 9.69643C34.1824 9.42516 34.658 9.28413 35.0989 9.27326V10.9823C34.7393 11.0365 34.426 11.2318 34.1592 11.5682C33.9852 11.8069 33.8982 12.0619 33.8982 12.3332C33.8982 12.8974 34.3332 13.3477 35.2033 13.6841C35.4121 13.76 35.737 13.8631 36.1779 13.9933C36.7346 14.1561 37.1234 14.2863 37.3436 14.3839C38.3529 14.8505 39.0083 15.4039 39.3101 16.0441C39.484 16.4239 39.571 16.8416 39.571 17.2974C39.571 18.2522 39.1765 19.0823 38.3878 19.7876C37.68 20.4061 36.8853 20.7153 36.0036 20.7153V19.0389C36.4445 19.0172 36.839 18.8219 37.1872 18.453C37.4772 18.1274 37.6219 17.7531 37.6219 17.3299C37.6219 16.668 37.1291 16.1689 36.143 15.8325C35.9341 15.7566 35.6093 15.6589 35.1685 15.5395C34.6813 15.4093 34.3506 15.3063 34.1766 15.2303C33.2022 14.8288 32.5757 14.3134 32.2973 13.6841C32.1233 13.3043 32.0363 12.8649 32.0363 12.3657ZM36.0036 10.9823V9.27326C37.0015 9.27326 37.8368 9.67473 38.5097 10.4777C38.8693 10.9117 39.0606 11.3078 39.0838 11.6658L37.2916 12.2192C37.2449 11.8937 37.1116 11.6279 36.8914 11.4217C36.6825 11.2155 36.4851 11.0908 36.2994 11.0474L36.0036 10.9823ZM40.3714 18.0949L42.1291 17.5089C42.1986 18.2142 42.6105 18.7025 43.3646 18.9738C43.5036 19.0172 43.5735 19.0389 43.5735 19.0389V20.7153C42.5756 20.7153 41.7289 20.3139 41.0328 19.5109C40.6034 19.0009 40.3832 18.5289 40.3714 18.0949ZM40.5107 12.3657C40.5107 11.183 41.056 10.2932 42.1465 9.69643C42.6569 9.42516 43.1326 9.28413 43.5735 9.27326V10.9823C43.2139 11.0365 42.9006 11.2318 42.6337 11.5682C42.4598 11.8069 42.3725 12.0619 42.3725 12.3332C42.3725 12.8974 42.8076 13.3477 43.6779 13.6841C43.8867 13.76 44.2114 13.8631 44.6522 13.9933C45.2089 14.1561 45.5977 14.2863 45.8179 14.3839C46.8272 14.8505 47.4829 15.4039 47.7844 16.0441C47.9584 16.4239 48.0453 16.8416 48.0453 17.2974C48.0453 18.2522 47.6512 19.0823 46.8621 19.7876C46.1544 20.4061 45.36 20.7153 44.4783 20.7153V19.0389C44.9192 19.0172 45.3133 18.8219 45.6615 18.453C45.9516 18.1274 46.0966 17.7531 46.0966 17.3299C46.0966 16.668 45.6034 16.1689 44.6173 15.8325C44.4085 15.7566 44.0838 15.6589 43.643 15.5395C43.1558 15.4093 42.8251 15.3063 42.6512 15.2303C41.6765 14.8288 41.0503 14.3134 40.7716 13.6841C40.5977 13.3043 40.5107 12.8649 40.5107 12.3657ZM44.4783 10.9823V9.27326C45.4758 9.27326 46.3112 9.67473 46.984 10.4777C47.3436 10.9117 47.535 11.3078 47.5581 11.6658L45.7659 12.2192C45.7196 11.8937 45.5859 11.6279 45.3657 11.4217C45.1569 11.2155 44.9598 11.0908 44.7741 11.0474L44.4783 10.9823ZM53.3179 16.7114V15.0675H58.8169V16.7114H53.3179ZM63.9676 17.5252V16.7277H65.9167V17.4927C65.9281 18.122 66.2356 18.5669 66.839 18.8273C67.0015 18.8924 67.1405 18.925 67.2566 18.925V20.7479C66.6184 20.7479 65.9748 20.52 65.3251 20.0643C64.4316 19.4132 63.9794 18.5669 63.9676 17.5252ZM68.144 20.7479V18.925C68.4224 18.925 68.7299 18.8056 69.0663 18.5669C69.4373 18.2848 69.6291 17.9376 69.6405 17.5252V9.27326H71.572V17.5252C71.572 18.7297 70.9979 19.6411 69.8493 20.2596C69.246 20.5851 68.6775 20.7479 68.144 20.7479ZM72.5813 18.0949L74.339 17.5089C74.4085 18.2142 74.8204 18.7025 75.5745 18.9738C75.7135 19.0172 75.783 19.0389 75.783 19.0389V20.7153C74.7855 20.7153 73.9388 20.3139 73.2428 19.5109C72.8133 19.0009 72.5931 18.5289 72.5813 18.0949ZM72.7207 12.3657C72.7207 11.183 73.2659 10.2932 74.3564 9.69643C74.8668 9.42516 75.3425 9.28413 75.783 9.27326V10.9823C75.4234 11.0365 75.1102 11.2318 74.8436 11.5682C74.6693 11.8069 74.5824 12.0619 74.5824 12.3332C74.5824 12.8974 75.0175 13.3477 75.8874 13.6841C76.0963 13.76 76.4213 13.8631 76.8621 13.9933C77.4188 14.1561 77.8076 14.2863 78.0279 14.3839C79.0371 14.8505 79.6929 15.4039 79.9944 16.0441C80.1683 16.4239 80.2552 16.8416 80.2552 17.2974C80.2552 18.2522 79.8611 19.0823 79.072 19.7876C78.3643 20.4061 77.5699 20.7153 76.6882 20.7153V19.0389C77.1291 19.0172 77.5232 18.8219 77.8714 18.453C78.1615 18.1274 78.3065 17.7531 78.3065 17.3299C78.3065 16.668 77.8133 16.1689 76.8272 15.8325C76.6184 15.7566 76.2937 15.6589 75.8529 15.5395C75.3657 15.4093 75.035 15.3063 74.8611 15.2303C73.8864 14.8288 73.2599 14.3134 72.9815 13.6841C72.8076 13.3043 72.7207 12.8649 72.7207 12.3657ZM76.6882 10.9823V9.27326C77.6857 9.27326 78.5211 9.67473 79.1939 10.4777C79.5535 10.9117 79.7449 11.3078 79.7681 11.6658L77.9758 12.2192C77.9295 11.8937 77.7958 11.6279 77.5756 11.4217C77.3668 11.2155 77.1693 11.0908 76.984 11.0474L76.6882 10.9823Z" fill="url(#paint20_linear_190_63)"/>
</g>
<defs>
<linearGradient id="paint0_linear_190_63" x1="250.178" y1="29.9839" x2="250.178" y2="0.00124025" gradientUnits="userSpaceOnUse">
<stop stop-color="#D0A40B"/>
<stop offset="0.5" stop-color="#FFF200"/>
<stop offset="0.6238" stop-color="#FFE600"/>
<stop offset="0.7725" stop-color="#F1D200"/>
<stop offset="0.9334" stop-color="#DBB307"/>
<stop offset="1" stop-color="#D0A40B"/>
</linearGradient>
<linearGradient id="paint1_linear_190_63" x1="499.643" y1="7.13547" x2="482.683" y2="7.13547" gradientUnits="userSpaceOnUse">
<stop/>
<stop offset="0.0297515" stop-color="#050505"/>
<stop offset="0.1898" stop-color="#191919"/>
<stop offset="0.3478" stop-color="#262526"/>
<stop offset="0.5" stop-color="#2A292A"/>
<stop offset="0.6464" stop-color="#252425"/>
<stop offset="0.8223" stop-color="#161616"/>
<stop offset="1"/>
</linearGradient>
<linearGradient id="paint2_linear_190_63" x1="497.42" y1="14.9926" x2="449.006" y2="14.9926" gradientUnits="userSpaceOnUse">
<stop/>
<stop offset="0.0297515" stop-color="#050505"/>
<stop offset="0.1898" stop-color="#191919"/>
<stop offset="0.3478" stop-color="#262526"/>
<stop offset="0.5" stop-color="#2A292A"/>
<stop offset="0.6464" stop-color="#252425"/>
<stop offset="0.8223" stop-color="#161616"/>
<stop offset="1"/>
</linearGradient>
<linearGradient id="paint3_linear_190_63" x1="463.742" y1="14.9926" x2="415.328" y2="14.9926" gradientUnits="userSpaceOnUse">
<stop/>
<stop offset="0.0297515" stop-color="#050505"/>
<stop offset="0.1898" stop-color="#191919"/>
<stop offset="0.3478" stop-color="#262526"/>
<stop offset="0.5" stop-color="#2A292A"/>
<stop offset="0.6464" stop-color="#252425"/>
<stop offset="0.8223" stop-color="#161616"/>
<stop offset="1"/>
</linearGradient>
<linearGradient id="paint4_linear_190_63" x1="430.064" y1="14.9926" x2="381.65" y2="14.9926" gradientUnits="userSpaceOnUse">
<stop/>
<stop offset="0.0297515" stop-color="#050505"/>
<stop offset="0.1898" stop-color="#191919"/>
<stop offset="0.3478" stop-color="#262526"/>
<stop offset="0.5" stop-color="#2A292A"/>
<stop offset="0.6464" stop-color="#252425"/>
<stop offset="0.8223" stop-color="#161616"/>
<stop offset="1"/>
</linearGradient>
<linearGradient id="paint5_linear_190_63" x1="396.386" y1="14.9926" x2="347.973" y2="14.9926" gradientUnits="userSpaceOnUse">
<stop/>
<stop offset="0.0297515" stop-color="#050505"/>
<stop offset="0.1898" stop-color="#191919"/>
<stop offset="0.3478" stop-color="#262526"/>
<stop offset="0.5" stop-color="#2A292A"/>
<stop offset="0.6464" stop-color="#252425"/>
<stop offset="0.8223" stop-color="#161616"/>
<stop offset="1"/>
</linearGradient>
<linearGradient id="paint6_linear_190_63" x1="362.709" y1="14.9926" x2="314.295" y2="14.9926" gradientUnits="userSpaceOnUse">
<stop/>
<stop offset="0.0297515" stop-color="#050505"/>
<stop offset="0.1898" stop-color="#191919"/>
<stop offset="0.3478" stop-color="#262526"/>
<stop offset="0.5" stop-color="#2A292A"/>
<stop offset="0.6464" stop-color="#252425"/>
<stop offset="0.8223" stop-color="#161616"/>
<stop offset="1"/>
</linearGradient>
<linearGradient id="paint7_linear_190_63" x1="329.032" y1="14.9926" x2="280.617" y2="14.9926" gradientUnits="userSpaceOnUse">
<stop/>
<stop offset="0.0297515" stop-color="#050505"/>
<stop offset="0.1898" stop-color="#191919"/>
<stop offset="0.3478" stop-color="#262526"/>
<stop offset="0.5" stop-color="#2A292A"/>
<stop offset="0.6464" stop-color="#252425"/>
<stop offset="0.8223" stop-color="#161616"/>
<stop offset="1"/>
</linearGradient>
<linearGradient id="paint8_linear_190_63" x1="295.355" y1="14.9926" x2="246.939" y2="14.9926" gradientUnits="userSpaceOnUse">
<stop/>
<stop offset="0.0297515" stop-color="#050505"/>
<stop offset="0.1898" stop-color="#191919"/>
<stop offset="0.3478" stop-color="#262526"/>
<stop offset="0.5" stop-color="#2A292A"/>
<stop offset="0.6464" stop-color="#252425"/>
<stop offset="0.8223" stop-color="#161616"/>
<stop offset="1"/>
</linearGradient>
<linearGradient id="paint9_linear_190_63" x1="261.677" y1="14.9926" x2="213.262" y2="14.9926" gradientUnits="userSpaceOnUse">
<stop/>
<stop offset="0.0297515" stop-color="#050505"/>
<stop offset="0.1898" stop-color="#191919"/>
<stop offset="0.3478" stop-color="#262526"/>
<stop offset="0.5" stop-color="#2A292A"/>
<stop offset="0.6464" stop-color="#252425"/>
<stop offset="0.8223" stop-color="#161616"/>
<stop offset="1"/>
</linearGradient>
<linearGradient id="paint10_linear_190_63" x1="227.998" y1="14.9926" x2="179.583" y2="14.9926" gradientUnits="userSpaceOnUse">
<stop/>
<stop offset="0.0297515" stop-color="#050505"/>
<stop offset="0.1898" stop-color="#191919"/>
<stop offset="0.3478" stop-color="#262526"/>
<stop offset="0.5" stop-color="#2A292A"/>
<stop offset="0.6464" stop-color="#252425"/>
<stop offset="0.8223" stop-color="#161616"/>
<stop offset="1"/>
</linearGradient>
<linearGradient id="paint11_linear_190_63" x1="194.32" y1="14.9926" x2="145.905" y2="14.9926" gradientUnits="userSpaceOnUse">
<stop/>
<stop offset="0.0297515" stop-color="#050505"/>
<stop offset="0.1898" stop-color="#191919"/>
<stop offset="0.3478" stop-color="#262526"/>
<stop offset="0.5" stop-color="#2A292A"/>
<stop offset="0.6464" stop-color="#252425"/>
<stop offset="0.8223" stop-color="#161616"/>
<stop offset="1"/>
</linearGradient>
<linearGradient id="paint12_linear_190_63" x1="160.643" y1="14.9926" x2="112.228" y2="14.9926" gradientUnits="userSpaceOnUse">
<stop/>
<stop offset="0.0297515" stop-color="#050505"/>
<stop offset="0.1898" stop-color="#191919"/>
<stop offset="0.3478" stop-color="#262526"/>
<stop offset="0.5" stop-color="#2A292A"/>
<stop offset="0.6464" stop-color="#252425"/>
<stop offset="0.8223" stop-color="#161616"/>
<stop offset="1"/>
</linearGradient>
<linearGradient id="paint13_linear_190_63" x1="126.965" y1="14.9926" x2="78.5498" y2="14.9926" gradientUnits="userSpaceOnUse">
<stop/>
<stop offset="0.0297515" stop-color="#050505"/>
<stop offset="0.1898" stop-color="#191919"/>
<stop offset="0.3478" stop-color="#262526"/>
<stop offset="0.5" stop-color="#2A292A"/>
<stop offset="0.6464" stop-color="#252425"/>
<stop offset="0.8223" stop-color="#161616"/>
<stop offset="1"/>
</linearGradient>
<linearGradient id="paint14_linear_190_63" x1="93.2873" y1="14.9926" x2="44.8721" y2="14.9926" gradientUnits="userSpaceOnUse">
<stop/>
<stop offset="0.0297515" stop-color="#050505"/>
<stop offset="0.1898" stop-color="#191919"/>
<stop offset="0.3478" stop-color="#262526"/>
<stop offset="0.5" stop-color="#2A292A"/>
<stop offset="0.6464" stop-color="#252425"/>
<stop offset="0.8223" stop-color="#161616"/>
<stop offset="1"/>
</linearGradient>
<linearGradient id="paint15_linear_190_63" x1="59.6094" y1="14.9926" x2="11.1943" y2="14.9926" gradientUnits="userSpaceOnUse">
<stop/>
<stop offset="0.0297515" stop-color="#050505"/>
<stop offset="0.1898" stop-color="#191919"/>
<stop offset="0.3478" stop-color="#262526"/>
<stop offset="0.5" stop-color="#2A292A"/>
<stop offset="0.6464" stop-color="#252425"/>
<stop offset="0.8223" stop-color="#161616"/>
<stop offset="1"/>
</linearGradient>
<linearGradient id="paint16_linear_190_63" x1="25.9315" y1="19.3757" x2="0.712927" y2="19.3757" gradientUnits="userSpaceOnUse">
<stop/>
<stop offset="0.0297515" stop-color="#050505"/>
<stop offset="0.1898" stop-color="#191919"/>
<stop offset="0.3478" stop-color="#262526"/>
<stop offset="0.5" stop-color="#2A292A"/>
<stop offset="0.6464" stop-color="#252425"/>
<stop offset="0.8223" stop-color="#161616"/>
<stop offset="1"/>
</linearGradient>
<linearGradient id="paint17_linear_190_63" x1="250.178" y1="30.2023" x2="250.178" y2="0.172094" gradientUnits="userSpaceOnUse">
<stop stop-color="#D0A40B"/>
<stop offset="0.5" stop-color="#FFF200"/>
<stop offset="0.6238" stop-color="#FFE600"/>
<stop offset="0.7725" stop-color="#F1D200"/>
<stop offset="0.9334" stop-color="#DBB307"/>
<stop offset="1" stop-color="#D0A40B"/>
</linearGradient>
<linearGradient id="paint18_linear_190_63" x1="251.798" y1="3.4746" x2="251.798" y2="23.4746" gradientUnits="userSpaceOnUse">
<stop offset="0.9999"/>
<stop offset="1" stop-opacity="0"/>
</linearGradient>
<linearGradient id="paint19_linear_190_63" x1="461.333" y1="3.66649" x2="461.333" y2="23.6665" gradientUnits="userSpaceOnUse">
<stop offset="0.9999"/>
<stop offset="1" stop-opacity="0"/>
</linearGradient>
<linearGradient id="paint20_linear_190_63" x1="40.4495" y1="3.66649" x2="40.4495" y2="23.6665" gradientUnits="userSpaceOnUse">
<stop offset="0.9999"/>
<stop offset="1" stop-opacity="0"/>
</linearGradient>
<clipPath id="clip0_190_63">
<rect width="500" height="30" fill="white"/>
</clipPath>
</defs>
</svg>
