<svg width="102" height="59" viewBox="0 0 102 59" fill="none" xmlns="http://www.w3.org/2000/svg">
<path d="M1.02312 28.9456C0.828779 27.6573 1.90888 26.7698 2.42683 25.6993C2.71667 25.1 2.5417 24.2806 2.8629 24.0549C3.18418 23.8291 4.03902 24.1207 4.80969 24.6737C4.87558 24.1973 4.57943 24.1475 4.22578 23.8992C3.71617 23.5415 4.00649 22.575 3.7888 22.0351C3.07984 20.284 4.51528 19.1126 5.65627 17.8988C6.59793 16.8978 7.56379 15.7205 8.73565 14.9932C10.0393 14.1846 11.609 13.6201 9.85581 12.0402C10.1994 11.8876 10.5389 11.7249 10.8733 11.552C9.40289 11.2112 7.33773 7.99543 7.43782 6.52145C7.52456 5.25174 9.2277 6.55875 9.92331 6.18665C10.5655 5.84337 11.1436 5.33735 11.5448 4.73217C12.0519 3.96932 13.3138 4.16936 14.0703 4.16597C15.7726 4.15749 17.4841 4.00916 19.1823 3.94305C20.6895 3.88456 21.9055 4.4372 23.3101 4.79743C23.999 4.97373 26.1926 4.74827 26.6855 5.30175C27.2018 5.88321 27.6972 6.50281 28.5588 6.21208C29.3011 5.96204 29.8483 6.68166 30.5072 6.85202C30.6173 5.83405 31.0051 6.40618 31.8375 6.31125C32.4514 6.2409 32.9902 6.20954 33.5223 6.60368C33.8993 6.88339 34.4548 6.36211 34.8952 6.54858C35.3189 6.72742 35.338 7.436 35.7959 7.64621C35.6408 6.41125 37.1062 6.0061 37.9987 6.48839C38.9387 6.99525 38.8929 8.4184 40.2808 7.39704C40.6811 7.10292 41.003 7.08935 41.4617 7.32244C42.0514 7.62249 42.8363 6.99188 43.4952 7.13767C43.9098 7.22921 45.7047 9.39822 45.959 8.26243C46.2718 6.8605 45.0832 6.40702 45.8698 4.86608C46.4286 3.77098 47.4194 2.45213 48.7331 3.11156C48.9408 3.21582 49.7549 2.79202 49.9509 2.74286C50.5639 2.58859 51.4324 2.60506 52.0402 2.7547C53.2483 3.05211 54.4854 3.4027 54.7341 1.1192C57.8278 1.56073 57.1264 1.68889 59.1854 1.00453C60.1585 0.935962 61.1579 1.67733 62.2089 1.07106C62.8054 0.726979 63.871 1.91174 64.1152 2.50561C65.0003 4.65757 66.0402 4.03015 66.5995 5.20431C66.155 5.48487 65.2852 5.49001 64.9449 5.86296C64.7464 6.08164 66.7409 8.10814 65.8435 8.64552C66.5925 8.90206 68.579 9.6517 69.5077 9.14172C70.5625 8.56242 71.1878 10.2704 72.3138 10.2085C72.3521 10.5347 71.805 10.6942 73.8354 14.5099C74.771 15.4953 75.6208 14.5404 76.2741 14.4775C77.4262 14.364 78.5516 15.6006 79.8987 16.0271C80.7687 16.0212 81.9575 14.9689 83.71 14.5095C84.7175 14.2454 85.4408 15.2366 85.7561 15.929C86.2693 17.0559 87.8737 17.2994 88.2193 18.3061C89.6205 17.4864 88.9841 16.9194 90.6823 17.8229C91.5614 18.2908 93.9209 19.2961 94.6499 18.429C95.2788 19.7038 96.2771 18.9409 96.9919 19.8029C97.3439 20.2284 97.9308 20.5022 98.4591 20.6365C99.3899 20.8733 99.6556 20.1315 100.335 20.3847C99.4959 21.1985 101.351 22.9952 99.868 24.1101C99.4449 24.4282 98.4152 24.2883 98.7961 25.1001C99.2927 26.1583 100.382 24.8669 100.414 26.1985C99.7001 25.9816 98.5017 26.6473 98.9037 27.5619C99.0413 27.8746 101.309 28.6646 100.133 29.536C100.382 29.7411 100.663 29.8021 100.975 29.719C101.127 30.2253 100.546 32.1962 100.325 32.5608C99.6337 33.7065 97.912 32.7497 96.811 32.9726C96.1679 33.1031 95.6122 32.6722 94.9893 33.0158C94.4085 33.3362 94.3844 34.1313 93.5581 34.416C91.0986 35.8695 92.1625 36.9163 92.548 36.9394C92.0876 37.3496 92.5572 38.0277 92.0001 38.3549C91.3195 38.7549 89.5913 38.3447 88.7748 38.4964C87.9691 38.6473 87.859 39.5296 87.0233 39.5941C86.0383 39.6703 84.8722 40.195 84.6244 41.2723C84.1699 40.501 83.1257 40.5611 82.4501 40.9536C81.3116 41.6139 80.5126 41.2859 79.309 41.652C77.2948 42.2657 76.9753 45.1408 74.9493 45.6654C75.0294 45.3111 77.8711 43.0972 75.6166 42.7971C76.4023 43.955 74.8868 44.1753 74.207 44.6407C73.9597 44.8098 74.6315 46.9523 74.5987 47.1603C74.4325 46.5699 73.3989 45.7442 73.3342 45.9769C73.2674 45.7942 74.1056 45.3528 73.0524 44.9184C72.2708 48.3752 71.1365 44.7359 72.3063 45.6254C72.422 44.9599 72.3789 44.0887 72.3714 44.9376C72.4098 45.0173 72.0563 45.107 71.8118 45.0717C71.4862 45.0245 71.2199 44.48 71.1099 45.4457C71.2262 45.5081 70.0731 44.1006 70.0909 44.2066C70.1476 44.7865 70.6941 45.2022 67.4049 44.6166C67.5997 44.9565 68.3551 45.5795 69.1672 46.0918C69.2356 45.7178 69.641 45.3648 70.154 46.5431C69.9502 44.603 72.5866 47.66 72.6449 46.4973C72.7099 46.5898 73.0847 47.1657 72.3015 47.8255L73.4229 47.1436C73.0553 47.768 75.4735 48.8358 75.5665 48.9556C76.6647 50.3716 74.8183 50.6712 77.7507 51.5206C77.6395 50.9451 75.0877 48.3345 75.5874 48.8128C75.991 49.1991 76.9842 50.1456 77.4117 50.3859C77.8393 50.6263 78.247 50.8045 78.6126 50.8929C78.9782 50.9812 79.3016 50.9796 79.5604 50.86C79.8193 50.7404 80.0137 50.5029 80.1211 50.1195C80.77 50.8849 81.1836 50.6535 81.926 50.2602C82.9177 49.7356 84.1263 50.2374 84.9253 50.9138C83.9695 51.0434 83.9853 51.5121 84.0003 52.3174C84.0178 53.3048 83.1337 53.2591 82.3889 53.3455C81.579 53.4388 81.1344 53.4023 80.3971 52.9887C79.9509 52.7378 79.337 52.3454 78.7949 52.5615C78.2594 52.7759 78.5505 53.3455 78.2219 53.4786C77.422 53.8032 76.9599 54.6135 76.11 54.7356C74.9557 54.9017 73.9382 54.7848 73.0415 55.7027C71.501 57.2801 68.6411 59.1736 66.9671 56.3443C68.174 56.6215 68.475 52.4937 66.6184 52.2157C65.5917 52.0614 65.0529 51.6842 64.1838 51.157C63.3739 50.6663 62.6224 51.0155 61.7658 50.907C60.4647 50.74 63.3664 48.7761 63.8151 48.5939C64.7009 48.2353 67.766 47.7335 68.0438 46.641C67.2831 46.6639 67.1589 45.8943 67.143 45.2984C66.2623 45.8019 66.485 45.9265 65.3573 45.362C64.4315 44.8983 63.1854 45.3942 62.1695 45.412C61.0669 45.4314 60.3779 45.5527 59.3679 44.9856C58.4996 44.4982 57.5188 43.7023 56.4587 44.0168C59.5932 42.7607 55.6614 43.2404 54.8991 42.125C56.8583 43.1022 59.4797 42.8276 61.1378 41.5757C60.0202 41.8995 58.5039 42.4581 57.5105 41.4562C56.7632 40.7027 57.332 39.4211 56.5171 38.6464C57.1526 39.494 56.9492 40.3001 56.9675 41.2426C56.9817 41.9639 55.3436 41.5054 54.9574 41.7588C54.7414 41.3401 54.7614 40.9332 55.0149 40.5382C54.5262 40.6425 54.4369 41.3062 54.195 41.6537C53.8564 42.1419 52.8672 41.6791 52.3593 41.769C50.1874 42.1513 50.521 44.2516 49.2524 45.6027C49.1348 44.961 47.9329 43.026 47.0913 43.6498C47.4016 44.5466 48.7711 44.6237 49.0322 45.5247C49.3416 46.5901 46.3999 48.5515 45.6484 48.96C46.3298 48.4981 47.1806 48.0099 47.3916 47.1292C46.5967 47.1894 45.1438 49.8653 44.9811 47.9836C44.605 48.4049 44.0778 49.7619 45.2806 49.2033C45.1321 49.4008 44.9936 49.6042 44.8635 49.8144C45.7109 49.939 46.1805 51.5834 45.223 51.8894C44.9497 49.2813 42.8276 50.5157 41.6523 50.8107C40.1452 51.1889 39.8028 52.3109 38.1003 51.1498C37.8404 50.9725 35.944 49.9352 37.3681 49.687C38.8371 49.431 38.378 48.5883 39.0836 47.695C39.861 46.71 40.7556 45.9356 40.5529 44.4727C40.3753 43.1894 40.1819 42.8844 41.7441 42.308C41.8734 42.6784 42.0119 43.0438 42.1612 43.4065C43.0586 41.5282 45.5362 44.6376 46.8816 43.1933C46.2961 43.011 46.0662 42.4781 45.5132 42.2458C47.0903 41.4477 44.3353 38.8495 43.0224 38.6688C43.3577 38.1259 43.3726 36.0434 42.6196 37.0388C42.3927 37.3387 41.5978 34.9933 41.4385 34.75C41.0331 34.1279 40.9113 33.4622 40.4714 32.7853C39.3657 31.0842 39.8694 33.1405 38.6646 31.7388C38.1607 31.1527 36.8284 30.1697 36.5657 31.4038C36.378 30.3087 35.6689 31.682 35.4663 30.6259C34.2435 31.2107 32.8715 28.7974 31.8114 28.4573C30.9657 28.186 30.3254 29.6661 27.8512 29.1134C27.3653 29.0049 26.7953 29.1295 26.9646 29.7991C26.6819 30.1627 25.8659 30.0819 25.4174 30.189C24.9832 30.2928 24.414 30.4967 24.2455 30.979C23.8569 32.0928 23.2838 31.9995 22.1562 32.1021C20.7658 32.2292 19.2545 31.958 18.2336 33.1251C16.7298 34.8449 15.9107 32.7378 14.4811 32.2673C13.798 32.0427 13.0232 32.286 12.3393 32.3691C11.4868 32.4725 11.049 32.186 10.2467 32.0461C9.43263 31.9046 8.63526 32.186 7.90545 31.6681C6.68939 30.8035 6.5234 31.891 5.41243 32.18C5.38324 30.8697 4.15046 31.385 3.50657 30.6637C3.05367 30.1551 2.79344 30.3772 2.35138 30.045C1.85011 29.6695 1.74167 29.1117 1.02271 28.9456" stroke="#E9FF00" stroke-width="0.5"/>
<path d="M1.02312 28.9456C0.828779 27.6573 1.90888 26.7698 2.42683 25.6993C2.71667 25.1 2.5417 24.2806 2.8629 24.0549C3.18418 23.8291 4.03902 24.1207 4.80969 24.6737C4.87558 24.1973 4.57943 24.1475 4.22578 23.8992C3.71617 23.5415 4.00649 22.575 3.7888 22.0351C3.07984 20.284 4.51528 19.1126 5.65627 17.8988C6.59793 16.8978 7.56379 15.7205 8.73565 14.9932C10.0393 14.1846 11.609 13.6201 9.85581 12.0402C10.1994 11.8876 10.5389 11.7249 10.8733 11.552C9.40289 11.2112 7.33773 7.99543 7.43782 6.52145C7.52456 5.25174 9.2277 6.55875 9.92331 6.18665C10.5655 5.84337 11.1436 5.33735 11.5448 4.73217C12.0519 3.96932 13.3138 4.16936 14.0703 4.16597C15.7726 4.15749 17.4841 4.00916 19.1823 3.94305C20.6895 3.88456 21.9055 4.4372 23.3101 4.79743C23.999 4.97373 26.1926 4.74827 26.6855 5.30175C27.2018 5.88321 27.6972 6.50281 28.5588 6.21208C29.3011 5.96204 29.8483 6.68166 30.5072 6.85202C30.6173 5.83405 31.0051 6.40618 31.8375 6.31125C32.4514 6.2409 32.9902 6.20954 33.5223 6.60368C33.8993 6.88339 34.4548 6.36211 34.8952 6.54858C35.3189 6.72742 35.338 7.436 35.7959 7.64621C35.6408 6.41125 37.1062 6.0061 37.9987 6.48839C38.9387 6.99525 38.8929 8.4184 40.2808 7.39704C40.6811 7.10292 41.003 7.08935 41.4617 7.32244C42.0514 7.62249 42.8363 6.99188 43.4952 7.13767C43.9098 7.22921 45.7047 9.39822 45.959 8.26243C46.2718 6.8605 45.0832 6.40702 45.8698 4.86608C46.4286 3.77098 47.4194 2.45213 48.7331 3.11156C48.9408 3.21582 49.7549 2.79202 49.9509 2.74286C50.5639 2.58859 51.4324 2.60506 52.0402 2.7547C53.2483 3.05211 54.4854 3.4027 54.7341 1.1192C57.8278 1.56073 57.1264 1.68889 59.1854 1.00453C60.1585 0.935962 61.1579 1.67733 62.2089 1.07106C62.8054 0.726979 63.871 1.91174 64.1152 2.50561C65.0003 4.65757 66.0402 4.03015 66.5995 5.20431C66.155 5.48487 65.2852 5.49001 64.9449 5.86296C64.7464 6.08164 66.7409 8.10814 65.8435 8.64552C66.5925 8.90206 68.579 9.6517 69.5077 9.14172C70.5625 8.56242 71.1878 10.2704 72.3138 10.2085C72.3521 10.5347 71.805 10.6942 73.8354 14.5099C74.771 15.4953 75.6208 14.5404 76.2741 14.4775C77.4262 14.364 78.5516 15.6006 79.8987 16.0271C80.7687 16.0212 81.9575 14.9689 83.71 14.5095C84.7175 14.2454 85.4408 15.2366 85.7561 15.929C86.2693 17.0559 87.8737 17.2994 88.2193 18.3061C89.6205 17.4864 88.9841 16.9194 90.6823 17.8229C91.5614 18.2908 93.9209 19.2961 94.6499 18.429C95.2788 19.7038 96.2771 18.9409 96.9919 19.8029C97.3439 20.2284 97.9308 20.5022 98.4591 20.6365C99.3899 20.8733 99.6556 20.1315 100.335 20.3847C99.4959 21.1985 101.351 22.9952 99.868 24.1101C99.4449 24.4282 98.4152 24.2883 98.7961 25.1001C99.2927 26.1583 100.382 24.8669 100.414 26.1985C99.7001 25.9816 98.5017 26.6473 98.9037 27.5619C99.0413 27.8746 101.309 28.6646 100.133 29.536C100.382 29.7411 100.663 29.8021 100.975 29.719C101.127 30.2253 100.546 32.1962 100.325 32.5608C99.6337 33.7065 97.912 32.7497 96.811 32.9726C96.1679 33.1031 95.6122 32.6722 94.9893 33.0158C94.4085 33.3362 94.3844 34.1313 93.5581 34.416C91.0986 35.8695 92.1625 36.9163 92.548 36.9394C92.0876 37.3496 92.5572 38.0277 92.0001 38.3549C91.3195 38.7549 89.5913 38.3447 88.7748 38.4964C87.9691 38.6473 87.859 39.5296 87.0233 39.5941C86.0383 39.6703 84.8722 40.195 84.6244 41.2723C84.1699 40.501 83.1257 40.5611 82.4501 40.9536C81.3116 41.6139 80.5126 41.2859 79.309 41.652C77.2948 42.2657 76.9753 45.1408 74.9493 45.6654C75.0294 45.3111 77.8711 43.0972 75.6166 42.7971C76.4023 43.955 74.8868 44.1753 74.207 44.6407C73.9597 44.8098 74.6315 46.9523 74.5987 47.1603C74.4325 46.5699 73.3989 45.7442 73.3342 45.9769C73.2674 45.7942 74.1056 45.3528 73.0524 44.9184C72.2708 48.3752 71.1365 44.7359 72.3063 45.6254C72.422 44.9599 72.3789 44.0887 72.3714 44.9376C72.4098 45.0173 72.0563 45.107 71.8118 45.0717C71.4862 45.0245 71.2199 44.48 71.1099 45.4457C71.2262 45.5081 70.0731 44.1006 70.0909 44.2066C70.1476 44.7865 70.6941 45.2022 67.4049 44.6166C67.5997 44.9565 68.3551 45.5795 69.1672 46.0918C69.2356 45.7178 69.641 45.3648 70.154 46.5431C69.9502 44.603 72.5866 47.66 72.6449 46.4973C72.7099 46.5898 73.0847 47.1657 72.3015 47.8255L73.4229 47.1436C73.0553 47.768 75.4735 48.8358 75.5665 48.9556C76.6647 50.3716 74.8183 50.6712 77.7507 51.5206C77.6395 50.9451 75.0877 48.3345 75.5874 48.8128C75.991 49.1991 76.9842 50.1456 77.4117 50.3859C77.8393 50.6263 78.247 50.8045 78.6126 50.8929C78.9782 50.9812 79.3016 50.9796 79.5604 50.86C79.8193 50.7404 80.0137 50.5029 80.1211 50.1195C80.77 50.8849 81.1836 50.6535 81.926 50.2602C82.9177 49.7356 84.1263 50.2374 84.9253 50.9138C83.9695 51.0434 83.9853 51.5121 84.0003 52.3174C84.0178 53.3048 83.1337 53.2591 82.3889 53.3455C81.579 53.4388 81.1344 53.4023 80.3971 52.9887C79.9509 52.7378 79.337 52.3454 78.7949 52.5615C78.2594 52.7759 78.5505 53.3455 78.2219 53.4786C77.422 53.8032 76.9599 54.6135 76.11 54.7356C74.9557 54.9017 73.9382 54.7848 73.0415 55.7027C71.501 57.2801 68.6411 59.1736 66.9671 56.3443C68.174 56.6215 68.475 52.4937 66.6184 52.2157C65.5917 52.0614 65.0529 51.6842 64.1838 51.157C63.3739 50.6663 62.6224 51.0155 61.7658 50.907C60.4647 50.74 63.3664 48.7761 63.8151 48.5939C64.7009 48.2353 67.766 47.7335 68.0438 46.641C67.2831 46.6639 67.1589 45.8943 67.143 45.2984C66.2623 45.8019 66.485 45.9265 65.3573 45.362C64.4315 44.8983 63.1854 45.3942 62.1695 45.412C61.0669 45.4314 60.3779 45.5527 59.3679 44.9856C58.4996 44.4982 57.5188 43.7023 56.4587 44.0168C59.5932 42.7607 55.6614 43.2404 54.8991 42.125C56.8583 43.1022 59.4797 42.8276 61.1378 41.5757C60.0202 41.8995 58.5039 42.4581 57.5105 41.4562C56.7632 40.7027 57.332 39.4211 56.5171 38.6464C57.1526 39.494 56.9492 40.3001 56.9675 41.2426C56.9817 41.9639 55.3436 41.5054 54.9574 41.7588C54.7414 41.3401 54.7614 40.9332 55.0149 40.5382C54.5262 40.6425 54.4369 41.3062 54.195 41.6537C53.8564 42.1419 52.8672 41.6791 52.3593 41.769C50.1874 42.1513 50.521 44.2516 49.2524 45.6027C49.1348 44.961 47.9329 43.026 47.0913 43.6498C47.4016 44.5466 48.7711 44.6237 49.0322 45.5247C49.3416 46.5901 46.3999 48.5515 45.6484 48.96C46.3298 48.4981 47.1806 48.0099 47.3916 47.1292C46.5967 47.1894 45.1438 49.8653 44.9811 47.9836C44.605 48.4049 44.0778 49.7619 45.2806 49.2033C45.1321 49.4008 44.9936 49.6042 44.8635 49.8144C45.7109 49.939 46.1805 51.5834 45.223 51.8894C44.9497 49.2813 42.8276 50.5157 41.6523 50.8107C40.1452 51.1889 39.8028 52.3109 38.1003 51.1498C37.8404 50.9725 35.944 49.9352 37.3681 49.687C38.8371 49.431 38.378 48.5883 39.0836 47.695C39.861 46.71 40.7556 45.9356 40.5529 44.4727C40.3753 43.1894 40.1819 42.8844 41.7441 42.308C41.8734 42.6784 42.0119 43.0438 42.1612 43.4065C43.0586 41.5282 45.5362 44.6376 46.8816 43.1933C46.2961 43.011 46.0662 42.4781 45.5132 42.2458C47.0903 41.4477 44.3353 38.8495 43.0224 38.6688C43.3577 38.1259 43.3726 36.0434 42.6196 37.0388C42.3927 37.3387 41.5978 34.9933 41.4385 34.75C41.0331 34.1279 40.9113 33.4622 40.4714 32.7853C39.3657 31.0842 39.8694 33.1405 38.6646 31.7388C38.1607 31.1527 36.8284 30.1697 36.5657 31.4038C36.378 30.3087 35.6689 31.682 35.4663 30.6259C34.2435 31.2107 32.8715 28.7974 31.8114 28.4573C30.9657 28.186 30.3254 29.6661 27.8512 29.1134C27.3653 29.0049 26.7953 29.1295 26.9646 29.7991C26.6819 30.1627 25.8659 30.0819 25.4174 30.189C24.9832 30.2928 24.414 30.4967 24.2455 30.979C23.8569 32.0928 23.2838 31.9995 22.1562 32.1021C20.7658 32.2292 19.2545 31.958 18.2336 33.1251C16.7298 34.8449 15.9107 32.7378 14.4811 32.2673C13.798 32.0427 13.0232 32.286 12.3393 32.3691C11.4868 32.4725 11.049 32.186 10.2467 32.0461C9.43263 31.9046 8.63526 32.186 7.90545 31.6681C6.68939 30.8035 6.5234 31.891 5.41243 32.18C5.38324 30.8697 4.15046 31.385 3.50657 30.6637C3.05367 30.1551 2.79344 30.3772 2.35138 30.045C1.85011 29.6695 1.74167 29.1117 1.02271 28.9456" stroke="url(#paint0_linear_274_2)" stroke-width="0.5"/>
<defs>
<linearGradient id="paint0_linear_274_2" x1="51" y1="1" x2="51" y2="57.8006" gradientUnits="userSpaceOnUse">
<stop offset="0.432292" stop-color="#000AFF"/>
<stop offset="0.578125" stop-color="#000AFF" stop-opacity="0"/>
</linearGradient>
</defs>
</svg>
