<!-- Generated by IcoMoon.io -->
<svg version="1.1" xmlns="http://www.w3.org/2000/svg" width="42" height="20" viewBox="0 0 42 20">
<title>logo</title>
<path d="M3.345 11.333v-7.595h1.215v7.595h-1.215zM5.113 7.905v-1.183h0.727c0.528 0 0.814-0.257 0.857-0.77 0-0.043 0-0.087 0-0.13-0.051-0.571-0.336-0.872-0.857-0.901h-0.727v-1.183h0.825c1.317 0.022 1.978 0.709 1.986 2.062 0 1.049-0.333 1.704-0.998 1.964-0.275 0.094-0.604 0.141-0.987 0.141-0.014 0-0.289 0-0.825 0zM8.412 9.934c0 0.405 0.195 0.749 0.586 1.031 0.34 0.246 0.745 0.369 1.215 0.369v-1.074c-0.535-0.007-0.807-0.195-0.814-0.564v-0.228c0.007-0.145 0.051-0.246 0.13-0.304 0.058-0.043 0.398-0.148 1.020-0.315 0.434-0.116 0.738-0.221 0.911-0.315v1.074c0 0.347-0.163 0.557-0.488 0.629-0.065 0.014-0.134 0.022-0.206 0.022v1.074c0.477-0.007 0.861-0.13 1.15-0.369 0.253 0.246 0.571 0.369 0.955 0.369v-1.085c-0.188-0.014-0.286-0.13-0.293-0.347v-2.919c0-0.434-0.174-0.821-0.521-1.161s-0.781-0.51-1.302-0.51v1.063c0.326 0 0.543 0.134 0.651 0.401 0.036 0.087 0.054 0.177 0.054 0.271v0.228c0 0.188-0.398 0.405-1.194 0.651-0.752 0.231-1.179 0.376-1.28 0.434-0.376 0.224-0.568 0.571-0.575 1.042v0.532zM8.499 6.819l0.998 0.38c0-0.412 0.159-0.673 0.477-0.781 0.080-0.029 0.159-0.043 0.239-0.043v-1.063c-0.499 0-0.93 0.181-1.291 0.543-0.282 0.289-0.423 0.611-0.423 0.966zM13.284 5.322h1.291l1.638 4.85-0.38 1.161h-0.651l-1.899-6.011zM15.758 7.557l0.749-2.235h1.291l-1.302 3.961h-0.141l-0.597-1.725zM18.34 11.333v-7.715h1.237v7.715h-1.237zM20.445 9.695v-2.745c0-0.354 0.159-0.698 0.477-1.031 0.376-0.398 0.85-0.597 1.421-0.597v1.118c-0.376 0-0.619 0.156-0.727 0.467-0.022 0.065-0.033 0.13-0.033 0.195v2.441c0 0.275 0.127 0.474 0.38 0.597 0.116 0.058 0.246 0.087 0.391 0.087v1.118c-0.702 0-1.244-0.282-1.628-0.846-0.188-0.282-0.282-0.55-0.282-0.803zM22.832 11.344v-1.118c0.347 0 0.575-0.148 0.684-0.445 0.029-0.080 0.044-0.152 0.044-0.217v-2.463c0-0.304-0.141-0.506-0.423-0.608-0.094-0.036-0.199-0.054-0.315-0.054v-1.118c0.68 0 1.204 0.275 1.573 0.825 0.188 0.282 0.282 0.55 0.282 0.803v2.745c0 0.354-0.152 0.702-0.456 1.042-0.369 0.398-0.832 0.6-1.389 0.608zM25.176 5.322h1.291l1.638 4.85-0.38 1.161h-0.651l-1.899-6.011zM27.65 7.557l0.749-2.235h1.291l-1.302 3.961h-0.141l-0.597-1.725z"></path>
<path d="M0.423 15.884v-3.57c0-0.383 0.163-0.774 0.488-1.172 0.434-0.521 0.984-0.785 1.649-0.792v1.204c-0.376 0.007-0.658 0.21-0.846 0.608-0.058 0.13-0.087 0.239-0.087 0.326v3.396c0 0.391 0.203 0.68 0.608 0.868 0.123 0.058 0.228 0.087 0.315 0.087v1.215c-0.412 0-0.825-0.148-1.237-0.445-0.586-0.434-0.883-1.009-0.89-1.725zM3.147 18.054v-1.215c0.188 0 0.383-0.087 0.586-0.26 0.217-0.195 0.329-0.427 0.336-0.694v-3.396c0-0.217-0.094-0.427-0.282-0.629-0.181-0.195-0.394-0.297-0.64-0.304v-1.204c0.731 0 1.317 0.315 1.758 0.944 0.253 0.362 0.38 0.702 0.38 1.020v3.57c0 0.803-0.358 1.418-1.074 1.845-0.376 0.217-0.731 0.326-1.063 0.326zM6.152 18v-7.715h1.237v7.715h-1.237zM8.257 16.362v-2.756c0.014-0.354 0.177-0.698 0.488-1.031 0.383-0.383 0.846-0.579 1.389-0.586v1.085c-0.282 0-0.496 0.127-0.64 0.38-0.051 0.087-0.076 0.166-0.076 0.239v0.651h2.062v-0.64c0-0.304-0.166-0.503-0.499-0.597-0.094-0.029-0.188-0.043-0.282-0.043v-1.074c0.514 0 0.969 0.177 1.367 0.532 0.333 0.318 0.503 0.676 0.51 1.074v1.866h-3.158v0.901c0 0.188 0.105 0.344 0.315 0.467 0.13 0.072 0.271 0.108 0.423 0.108v1.063c-0.673 0-1.204-0.271-1.595-0.814-0.203-0.297-0.304-0.571-0.304-0.825zM10.699 18v-1.074c0.42 0 0.709-0.177 0.868-0.532 0.022-0.051 0.040-0.098 0.054-0.141l0.966 0.347c-0.13 0.492-0.423 0.872-0.879 1.139-0.311 0.174-0.647 0.26-1.009 0.26zM13.444 18v-7.715h1.194v7.715h-1.194zM14.931 14.973l1.812-2.984h1.324l-1.845 2.984 1.855 3.027h-1.313l-1.834-3.027zM18.511 16.416l1.074-0.195c0 0.282 0.148 0.496 0.445 0.64 0.13 0.065 0.257 0.098 0.38 0.098v1.096c-0.767 0-1.32-0.271-1.66-0.814-0.159-0.26-0.239-0.535-0.239-0.825zM18.566 13.66c0-0.666 0.307-1.161 0.922-1.487 0.297-0.152 0.593-0.228 0.89-0.228v1.074c-0.347 0-0.579 0.137-0.694 0.412-0.029 0.080-0.043 0.156-0.043 0.228 0 0.217 0.188 0.409 0.564 0.575 0.318 0.13 0.803 0.271 1.454 0.423 0.499 0.101 0.854 0.358 1.063 0.77 0.108 0.224 0.163 0.47 0.163 0.738 0 0.716-0.29 1.244-0.868 1.584-0.333 0.203-0.713 0.304-1.139 0.304v-1.085c0.289 0 0.528-0.098 0.716-0.293 0.116-0.137 0.174-0.289 0.174-0.456 0-0.253-0.282-0.467-0.846-0.64-0.116-0.036-0.297-0.087-0.543-0.152-0.369-0.087-0.629-0.159-0.781-0.217-0.535-0.239-0.861-0.59-0.977-1.053-0.036-0.152-0.054-0.318-0.054-0.499zM20.866 13.020v-1.074c0.637 0 1.15 0.235 1.541 0.705 0.246 0.304 0.369 0.622 0.369 0.955l-1.074 0.184c0-0.369-0.199-0.611-0.597-0.727-0.087-0.029-0.166-0.043-0.239-0.043zM23.416 16.6c0 0.405 0.195 0.749 0.586 1.031 0.34 0.246 0.745 0.369 1.215 0.369v-1.074c-0.535-0.007-0.807-0.195-0.814-0.564v-0.228c0.007-0.145 0.051-0.246 0.13-0.304 0.058-0.043 0.398-0.148 1.020-0.315 0.434-0.116 0.738-0.221 0.912-0.315v1.074c0 0.347-0.163 0.557-0.488 0.629-0.065 0.014-0.134 0.022-0.206 0.022v1.074c0.477-0.007 0.861-0.13 1.15-0.369 0.253 0.246 0.571 0.369 0.955 0.369v-1.085c-0.188-0.014-0.286-0.13-0.293-0.347v-2.919c0-0.434-0.174-0.821-0.521-1.161s-0.781-0.51-1.302-0.51v1.063c0.326 0 0.542 0.134 0.651 0.401 0.036 0.087 0.054 0.177 0.054 0.271v0.228c0 0.188-0.398 0.405-1.194 0.651-0.752 0.231-1.179 0.376-1.28 0.434-0.376 0.224-0.568 0.571-0.575 1.042v0.532zM23.503 13.486l0.998 0.38c0-0.412 0.159-0.673 0.477-0.781 0.080-0.029 0.159-0.043 0.239-0.043v-1.063c-0.499 0-0.93 0.181-1.291 0.543-0.282 0.289-0.423 0.611-0.423 0.966zM28.613 18v-4.384c0-0.347 0.159-0.691 0.477-1.031 0.391-0.405 0.875-0.611 1.454-0.618v1.15c-0.333 0-0.564 0.13-0.694 0.391-0.043 0.087-0.065 0.17-0.065 0.25v4.243h-1.172zM31.022 13.117v-1.15c0.687 0 1.226 0.278 1.617 0.835 0.21 0.289 0.315 0.561 0.315 0.814v4.384h-1.172v-4.243c0-0.217-0.105-0.391-0.315-0.521-0.13-0.080-0.279-0.119-0.445-0.119zM33.691 16.362v-2.745c0.007-0.369 0.17-0.72 0.488-1.053 0.354-0.369 0.778-0.557 1.269-0.564h0.63v1.128h-0.63c-0.26 0-0.452 0.119-0.575 0.358-0.036 0.072-0.054 0.134-0.054 0.184v2.669c0 0.159 0.094 0.3 0.282 0.423 0.116 0.080 0.239 0.119 0.369 0.119h0.608v1.118h-0.608c-0.658 0-1.165-0.286-1.519-0.857-0.174-0.282-0.26-0.543-0.26-0.781zM36.621 18v-7.715h1.194v7.715h-1.194zM38.715 18v-6.011h1.172v0.749c0.203-0.318 0.506-0.546 0.912-0.684 0.188-0.065 0.372-0.098 0.553-0.098h0.282l-0.271 1.139c-0.427 0.007-0.799 0.213-1.118 0.618-0.239 0.311-0.358 0.633-0.358 0.966v3.32h-1.172z"></path>
</svg>
